<svg xmlns="http://www.w3.org/2000/svg" xmlns:v="https://svgstorm.com"
viewBox = "0 0 255 264"
width="255"
height="264">
<g fill="None" fill-opacity="0.0" stroke="#FDFDFD" stroke-opacity="1.00" stroke-width="0.3"><path d="
M 0.00 264.00 
L 255.00 264.00
L 255.00 0.00
L 0.00 0.00
L 0.00 264.00
M 214.00 122.00 
C 213.78 123.14 215.02 123.67 215.00 124.00
C 222.31 126.47 222.43 125.82 219.00 133.00
C 218.81 133.41 219.15 134.55 219.00 135.00
C 231.65 138.83 229.63 153.28 231.00 166.00
C 233.91 166.87 237.14 168.06 236.00 172.00
C 231.87 170.73 230.16 174.53 231.00 178.00
C 241.11 175.89 239.38 187.13 230.00 184.00
C 228.47 194.91 224.41 207.45 218.75 216.75 C 213.09 226.04 207.45 234.01 198.25 240.25 C 189.05 246.49 176.88 252.47 165.00 251.00 C 153.12 249.53 142.64 256.14 129.00 255.00 C 115.36 253.86 102.72 252.44 90.00 256.00
C 85.99 256.65 81.93 256.56 78.00 256.00
C 55.72 255.15 35.45 242.02 21.00 225.00
C 11.86 228.69 16.42 219.48 15.00 215.00
C 6.96 222.37 3.38 210.73 13.00 209.00
C 9.12 201.34 7.93 192.77 8.00 184.00
C 8.06 181.83 8.80 179.49 9.00 178.00
C 9.22 173.30 9.92 173.05 10.32 168.32 C 10.73 163.59 14.59 164.86 17.00 163.00
C 16.94 162.10 18.09 161.19 18.00 160.00
C 17.84 157.92 14.83 157.26 16.00 154.00 C 17.17 150.73 20.72 153.01 23.00 152.00
C 23.01 151.83 24.20 150.95 24.00 149.00
C 22.54 134.74 41.24 124.19 52.00 118.00
C 51.78 110.16 49.68 98.57 52.33 91.33 C 54.97 84.08 57.81 78.45 64.70 74.70 C 71.58 70.94 75.89 66.76 84.22 65.22 C 92.56 63.69 97.61 58.98 107.67 59.67 C 117.73 60.37 118.68 50.83 119.33 42.33 C 119.97 33.83 128.27 31.90 133.00 27.00
C 133.55 25.18 131.25 24.53 131.00 23.00
C 130.38 22.02 129.30 21.11 129.00 20.00
C 126.81 11.96 140.01 7.11 145.74 13.26 C 151.48 19.40 156.94 12.05 165.00 12.00 C 173.07 11.95 176.66 24.55 167.00 27.00
C 173.68 32.55 179.95 40.07 181.00 49.00
C 192.41 47.84 199.93 35.76 212.67 39.33 C 225.41 42.90 226.61 57.02 222.23 67.23 C 217.85 77.43 209.06 81.71 205.08 92.08 C 201.09 102.45 222.59 111.81 214.00 122.00 Z"/>
</g>
<g fill="None" fill-opacity="0.0" stroke="#080404" stroke-opacity="1.00" stroke-width="0.3"><path d="
M 129.00 20.00 
C 134.38 16.38 140.39 10.52 147.25 18.75 C 154.11 26.98 136.80 27.75 131.00 23.00
C 131.25 24.53 133.55 25.18 133.00 27.00
C 128.27 31.90 119.97 33.83 119.33 42.33 C 118.68 50.83 117.73 60.37 107.67 59.67 C 97.61 58.98 92.56 63.69 84.22 65.22 C 75.89 66.76 71.58 70.94 64.70 74.70 C 57.81 78.45 54.97 84.08 52.33 91.33 C 49.68 98.57 51.78 110.16 52.00 118.00
C 41.24 124.19 22.54 134.74 24.00 149.00
C 27.60 154.16 35.13 142.79 38.75 139.75 C 42.38 136.71 49.57 128.70 55.00 128.00
C 58.39 135.19 60.31 139.92 65.75 146.25 C 71.20 152.58 77.42 153.89 85.01 156.99 C 92.59 160.10 102.69 158.13 111.00 160.00 C 119.31 161.87 132.81 155.12 121.97 151.03 C 111.14 146.94 104.13 153.48 94.00 149.00
C 75.79 145.42 68.67 135.68 63.07 117.93 C 57.48 100.18 64.14 85.43 81.00 77.00
C 93.56 70.72 108.54 70.25 122.00 67.00
C 135.12 85.71 165.59 85.74 178.00 66.00
C 185.20 56.32 190.28 58.44 201.08 51.08 C 211.87 43.71 218.54 58.72 211.08 67.08 C 203.63 75.44 196.53 80.26 196.00 91.00
C 195.89 93.25 195.79 95.76 196.00 98.00
C 198.56 109.54 205.64 115.68 214.00 122.00
C 222.59 111.81 201.09 102.45 205.08 92.08 C 209.06 81.71 217.85 77.43 222.23 67.23 C 226.61 57.02 225.41 42.90 212.67 39.33 C 199.93 35.76 192.41 47.84 181.00 49.00
C 179.95 40.07 173.68 32.55 167.00 27.00
C 176.66 24.55 173.07 11.95 165.00 12.00 C 156.94 12.05 151.48 19.40 145.74 13.26 C 140.01 7.11 126.81 11.96 129.00 20.00
M 170.00 19.00 
C 167.01 25.98 158.07 29.26 151.00 23.00
C 154.07 15.37 163.92 12.47 170.00 19.00
M 171.00 48.00 
C 172.05 51.02 171.86 53.06 171.00 56.00
C 168.33 65.16 161.81 67.55 154.00 71.00
C 142.96 75.88 129.97 68.69 129.00 58.00
C 128.42 51.62 127.06 46.69 131.00 41.00
C 132.36 39.03 133.99 37.23 136.00 36.00
C 148.53 28.32 166.24 34.26 171.00 48.00 Z"/>
</g>
<g fill="None" fill-opacity="0.0" stroke="#031203" stroke-opacity="1.00" stroke-width="0.3"><path d="
M 129.00 20.00 
C 129.30 21.11 130.38 22.02 131.00 23.00
C 136.80 27.75 154.11 26.98 147.25 18.75 C 140.39 10.52 134.38 16.38 129.00 20.00
M 146.00 23.00 
C 141.59 22.95 136.16 22.53 134.00 18.00
C 137.92 15.88 145.11 18.31 146.00 23.00 Z"/>
</g>
<g fill="None" fill-opacity="0.0" stroke="#031002" stroke-opacity="1.00" stroke-width="0.3"><path d="
M 170.00 19.00 
C 163.92 12.47 154.07 15.37 151.00 23.00
C 158.07 29.26 167.01 25.98 170.00 19.00
M 167.00 18.00 
C 166.40 22.95 158.30 24.29 155.00 22.00
C 157.54 18.22 162.61 17.63 167.00 18.00 Z"/>
</g>
<g fill="None" fill-opacity="0.0" stroke="#799677" stroke-opacity="1.00" stroke-width="0.3"><path d="
M 146.00 23.00 
C 145.11 18.31 137.92 15.88 134.00 18.00
C 136.16 22.53 141.59 22.95 146.00 23.00 Z"/>
</g>
<g fill="None" fill-opacity="0.0" stroke="#7A977A" stroke-opacity="1.00" stroke-width="0.3"><path d="
M 167.00 18.00 
C 162.61 17.63 157.54 18.22 155.00 22.00
C 158.30 24.29 166.40 22.95 167.00 18.00 Z"/>
</g>
<g fill="None" fill-opacity="0.0" stroke="#F2A45E" stroke-opacity="1.00" stroke-width="0.3"><path d="
M 136.00 36.00 
C 134.75 36.90 131.95 39.83 131.00 41.00
C 127.06 46.69 128.42 51.62 129.00 58.00
C 132.54 67.46 144.56 72.50 154.00 71.00
C 161.81 67.55 168.33 65.16 171.00 56.00
C 171.35 53.82 171.44 50.16 171.00 48.00
C 166.24 34.26 148.53 28.32 136.00 36.00 Z"/>
</g>
<g fill="None" fill-opacity="0.0" stroke="#906345" stroke-opacity="1.00" stroke-width="0.3"><path d="
M 131.00 41.00 
C 131.95 39.83 134.75 36.90 136.00 36.00
C 133.99 37.23 132.36 39.03 131.00 41.00 Z"/>
</g>
<g fill="None" fill-opacity="0.0" stroke="#492513" stroke-opacity="1.00" stroke-width="0.3"><path d="
M 171.00 56.00 
C 171.86 53.06 172.05 51.02 171.00 48.00
C 171.44 50.16 171.35 53.82 171.00 56.00 Z"/>
</g>
<g fill="None" fill-opacity="0.0" stroke="#876F68" stroke-opacity="1.00" stroke-width="0.3"><path d="
M 178.00 66.00 
C 181.58 68.67 182.18 75.27 185.75 79.25 C 189.33 83.23 195.09 85.35 195.00 91.00
C 195.00 90.99 196.00 91.00 196.00 91.00
C 196.53 80.26 203.63 75.44 211.08 67.08 C 218.54 58.72 211.87 43.71 201.08 51.08 C 190.28 58.44 185.20 56.32 178.00 66.00 Z"/>
</g>
<g fill="None" fill-opacity="0.0" stroke="#2B0E04" stroke-opacity="1.00" stroke-width="0.3"><path d="
M 154.00 71.00 
C 144.56 72.50 132.54 67.46 129.00 58.00
C 129.97 68.69 142.96 75.88 154.00 71.00 Z"/>
</g>
<g fill="None" fill-opacity="0.0" stroke="#BF9877" stroke-opacity="1.00" stroke-width="0.3"><path d="
M 81.00 77.00 
C 95.95 81.38 95.99 97.42 95.00 111.00 C 94.01 124.58 106.19 137.99 94.00 149.00
C 104.13 153.48 111.14 146.94 121.97 151.03 C 132.81 155.12 119.31 161.87 111.00 160.00 C 102.69 158.13 92.59 160.10 85.01 156.99 C 77.42 153.89 71.20 152.58 65.75 146.25 C 60.31 139.92 58.39 135.19 55.00 128.00
C 49.57 128.70 42.38 136.71 38.75 139.75 C 35.13 142.79 27.60 154.16 24.00 149.00
C 24.20 150.95 23.01 151.83 23.00 152.00
C 22.90 154.50 25.90 154.93 24.22 158.22 C 22.54 161.51 19.03 159.15 18.00 160.00
C 18.09 161.19 16.94 162.10 17.00 163.00
C 17.82 174.68 17.50 190.32 20.00 203.00
C 22.22 200.33 30.25 201.00 28.64 204.70 C 27.04 208.39 20.32 210.95 27.00 213.00
C 29.94 214.11 31.83 210.55 31.00 216.00
C 29.85 223.54 38.66 230.05 46.08 234.92 C 53.50 239.79 64.63 246.04 74.00 246.00
C 75.00 246.00 76.00 246.00 77.00 246.00
C 71.75 242.48 81.71 234.31 83.00 232.00
C 84.56 229.21 81.82 227.37 86.00 226.00
C 95.65 222.83 111.25 233.31 109.00 244.00
C 113.44 243.85 117.40 245.71 122.00 245.00
C 124.33 244.95 126.67 245.04 129.00 245.00
C 127.26 237.67 134.44 229.55 140.00 229.00
C 135.17 224.95 131.72 216.56 139.67 217.33 C 147.63 218.11 148.37 223.43 154.00 227.00
C 161.64 222.24 160.68 217.47 169.70 213.70 C 178.71 209.92 176.12 221.40 170.00 226.00
C 172.85 225.94 179.80 236.25 178.00 239.00
C 202.23 232.72 217.21 206.19 220.00 183.00
C 216.92 183.42 214.00 181.40 215.00 178.00
C 218.74 178.16 222.34 176.44 221.00 172.00
C 218.63 172.55 215.86 170.47 216.00 168.00
C 225.07 168.22 220.30 160.02 220.01 153.99 C 219.71 147.97 215.98 141.07 219.00 135.00
C 219.15 134.55 218.81 133.41 219.00 133.00
C 211.69 130.28 214.67 130.12 215.00 124.00
C 215.02 123.67 213.78 123.14 214.00 122.00
C 205.64 115.68 198.56 109.54 196.00 98.00
C 195.57 96.05 194.52 93.63 195.00 91.00
C 195.09 85.35 189.33 83.23 185.75 79.25 C 182.18 75.27 181.58 68.67 178.00 66.00
C 165.59 85.74 135.12 85.71 122.00 67.00
C 108.54 70.25 93.56 70.72 81.00 77.00
M 160.00 98.00 
C 174.59 100.06 168.13 122.96 153.00 119.00 C 137.87 115.04 145.15 95.91 160.00 98.00 Z"/>
</g>
<g fill="None" fill-opacity="0.0" stroke="#826E65" stroke-opacity="1.00" stroke-width="0.3"><path d="
M 94.00 149.00 
C 106.19 137.99 94.01 124.58 95.00 111.00 C 95.99 97.42 95.95 81.38 81.00 77.00
C 64.14 85.43 57.48 100.18 63.07 117.93 C 68.67 135.68 75.79 145.42 94.00 149.00
M 82.00 93.00 
C 94.45 96.78 77.63 111.83 82.33 118.67 C 87.03 125.51 91.66 141.24 79.77 135.23 C 67.88 129.22 75.71 119.23 69.22 109.78 C 62.73 100.32 68.16 88.80 82.00 93.00 Z"/>
</g>
<g fill="None" fill-opacity="0.0" stroke="#452E1D" stroke-opacity="1.00" stroke-width="0.3"><path d="
M 196.00 98.00 
C 195.79 95.76 195.89 93.25 196.00 91.00
C 196.00 91.00 195.00 90.99 195.00 91.00
C 194.52 93.63 195.57 96.05 196.00 98.00 Z"/>
</g>
<g fill="None" fill-opacity="0.0" stroke="#060202" stroke-opacity="1.00" stroke-width="0.3"><path d="
M 82.00 93.00 
C 68.16 88.80 62.73 100.32 69.22 109.78 C 75.71 119.23 67.88 129.22 79.77 135.23 C 91.66 141.24 87.03 125.51 82.33 118.67 C 77.63 111.83 94.45 96.78 82.00 93.00 Z"/>
</g>
<g fill="None" fill-opacity="0.0" stroke="#0B0303" stroke-opacity="1.00" stroke-width="0.3"><path d="
M 160.00 98.00 
C 145.15 95.91 137.87 115.04 153.00 119.00 C 168.13 122.96 174.59 100.06 160.00 98.00 Z"/>
</g>
<g fill="None" fill-opacity="0.0" stroke="#0F0708" stroke-opacity="1.00" stroke-width="0.3"><path d="
M 219.00 133.00 
C 222.43 125.82 222.31 126.47 215.00 124.00
C 214.67 130.12 211.69 130.28 219.00 133.00 Z"/>
</g>
<g fill="None" fill-opacity="0.0" stroke="#070404" stroke-opacity="1.00" stroke-width="0.3"><path d="
M 178.00 239.00 
C 172.79 240.35 166.16 240.81 161.00 239.00
C 162.34 233.97 165.84 229.20 170.00 226.00
C 176.12 221.40 178.71 209.92 169.70 213.70 C 160.68 217.47 161.64 222.24 154.00 227.00
C 148.37 223.43 147.63 218.11 139.67 217.33 C 131.72 216.56 135.17 224.95 140.00 229.00
C 143.35 231.81 154.30 240.77 145.77 243.77 C 137.24 246.77 129.74 245.75 122.00 245.00
C 117.40 245.71 113.44 243.85 109.00 244.00
C 111.25 233.31 95.65 222.83 86.00 226.00
C 80.56 228.86 86.26 234.64 89.00 236.00
C 97.57 239.41 99.19 245.57 88.00 246.00
C 83.42 246.65 78.53 246.74 74.00 246.00
C 64.63 246.04 53.50 239.79 46.08 234.92 C 38.66 230.05 29.85 223.54 31.00 216.00
C 30.32 212.88 28.80 214.25 27.00 213.00
C 20.32 210.95 27.04 208.39 28.64 204.70 C 30.25 201.00 22.22 200.33 20.00 203.00
C 17.50 190.32 17.82 174.68 17.00 163.00
C 14.59 164.86 10.73 163.59 10.32 168.32 C 9.92 173.05 9.22 173.30 9.00 178.00
C 8.90 180.08 8.16 182.60 8.00 184.00
C 7.93 192.77 9.12 201.34 13.00 209.00
C 3.38 210.73 6.96 222.37 15.00 215.00
C 16.42 219.48 11.86 228.69 21.00 225.00
C 35.45 242.02 55.72 255.15 78.00 256.00
C 81.94 256.15 86.06 256.21 90.00 256.00
C 102.72 252.44 115.36 253.86 129.00 255.00 C 142.64 256.14 153.12 249.53 165.00 251.00 C 176.88 252.47 189.05 246.49 198.25 240.25 C 207.45 234.01 213.09 226.04 218.75 216.75 C 224.41 207.45 228.47 194.91 230.00 184.00
C 239.38 187.13 241.11 175.89 231.00 178.00
C 230.16 174.53 231.87 170.73 236.00 172.00
C 237.14 168.06 233.91 166.87 231.00 166.00
C 229.63 153.28 231.65 138.83 219.00 135.00
C 215.98 141.07 219.71 147.97 220.01 153.99 C 220.30 160.02 225.07 168.22 216.00 168.00
C 215.86 170.47 218.63 172.55 221.00 172.00
C 222.34 176.44 218.74 178.16 215.00 178.00
C 214.00 181.40 216.92 183.42 220.00 183.00
C 217.21 206.19 202.23 232.72 178.00 239.00 Z"/>
</g>
<g fill="None" fill-opacity="0.0" stroke="#120D0A" stroke-opacity="1.00" stroke-width="0.3"><path d="
M 18.00 160.00 
C 19.03 159.15 22.54 161.51 24.22 158.22 C 25.90 154.93 22.90 154.50 23.00 152.00
C 20.72 153.01 17.17 150.73 16.00 154.00 C 14.83 157.26 17.84 157.92 18.00 160.00 Z"/>
</g>
<g fill="None" fill-opacity="0.0" stroke="#777777" stroke-opacity="1.00" stroke-width="0.3"><path d="
M 8.00 184.00 
C 8.16 182.60 8.90 180.08 9.00 178.00
C 8.80 179.49 8.06 181.83 8.00 184.00 Z"/>
</g>
<g fill="None" fill-opacity="0.0" stroke="#341B09" stroke-opacity="1.00" stroke-width="0.3"><path d="
M 27.00 213.00 
C 28.80 214.25 30.32 212.88 31.00 216.00
C 31.83 210.55 29.94 214.11 27.00 213.00 Z"/>
</g>
<g fill="None" fill-opacity="0.0" stroke="#3F2C1F" stroke-opacity="1.00" stroke-width="0.3"><path d="
M 83.00 232.00 
C 83.66 234.76 86.99 235.20 89.00 236.00
C 86.26 234.64 80.56 228.86 86.00 226.00
C 81.82 227.37 84.56 229.21 83.00 232.00 Z"/>
</g>
<g fill="None" fill-opacity="0.0" stroke="#856F65" stroke-opacity="1.00" stroke-width="0.3"><path d="
M 178.00 239.00 
C 179.80 236.25 172.85 225.94 170.00 226.00
C 165.84 229.20 162.34 233.97 161.00 239.00
C 166.16 240.81 172.79 240.35 178.00 239.00 Z"/>
</g>
<g fill="None" fill-opacity="0.0" stroke="#846F62" stroke-opacity="1.00" stroke-width="0.3"><path d="
M 122.00 245.00 
C 129.74 245.75 137.24 246.77 145.77 243.77 C 154.30 240.77 143.35 231.81 140.00 229.00
C 134.44 229.55 127.26 237.67 129.00 245.00
C 126.67 245.04 124.33 244.95 122.00 245.00 Z"/>
</g>
<g fill="None" fill-opacity="0.0" stroke="#847066" stroke-opacity="1.00" stroke-width="0.3"><path d="
M 77.00 246.00 
C 80.66 246.00 84.35 246.14 88.00 246.00
C 99.19 245.57 97.57 239.41 89.00 236.00
C 86.99 235.20 83.66 234.76 83.00 232.00
C 81.71 234.31 71.75 242.48 77.00 246.00 Z"/>
</g>
<g fill="None" fill-opacity="0.0" stroke="#514641" stroke-opacity="1.00" stroke-width="0.3"><path d="
M 88.00 246.00 
C 84.35 246.14 80.66 246.00 77.00 246.00
C 76.00 246.00 75.00 246.00 74.00 246.00
C 78.53 246.74 83.42 246.65 88.00 246.00 Z"/>
</g>
<g fill="None" fill-opacity="0.0" stroke="#7A7A7A" stroke-opacity="1.00" stroke-width="0.3"><path d="
M 90.00 256.00 
C 86.06 256.21 81.94 256.15 78.00 256.00
C 81.93 256.56 85.99 256.65 90.00 256.00 Z"/>
</g>
<g fill="#FDFDFD" fill-opacity="1.00" stroke="None">
<path d="
M 0.00 264.00 
L 255.00 264.00
L 255.00 0.00
L 0.00 0.00
L 0.00 264.00
M 214.00 122.00 
C 213.78 123.14 215.02 123.67 215.00 124.00
C 222.31 126.47 222.43 125.82 219.00 133.00
C 218.81 133.41 219.15 134.55 219.00 135.00
C 231.65 138.83 229.63 153.28 231.00 166.00
C 233.91 166.87 237.14 168.06 236.00 172.00
C 231.87 170.73 230.16 174.53 231.00 178.00
C 241.11 175.89 239.38 187.13 230.00 184.00
C 228.47 194.91 224.41 207.45 218.75 216.75 C 213.09 226.04 207.45 234.01 198.25 240.25 C 189.05 246.49 176.88 252.47 165.00 251.00 C 153.12 249.53 142.64 256.14 129.00 255.00 C 115.36 253.86 102.72 252.44 90.00 256.00
C 85.99 256.65 81.93 256.56 78.00 256.00
C 55.72 255.15 35.45 242.02 21.00 225.00
C 11.86 228.69 16.42 219.48 15.00 215.00
C 6.96 222.37 3.38 210.73 13.00 209.00
C 9.12 201.34 7.93 192.77 8.00 184.00
C 8.06 181.83 8.80 179.49 9.00 178.00
C 9.22 173.30 9.92 173.05 10.32 168.32 C 10.73 163.59 14.59 164.86 17.00 163.00
C 16.94 162.10 18.09 161.19 18.00 160.00
C 17.84 157.92 14.83 157.26 16.00 154.00 C 17.17 150.73 20.72 153.01 23.00 152.00
C 23.01 151.83 24.20 150.95 24.00 149.00
C 22.54 134.74 41.24 124.19 52.00 118.00
C 51.78 110.16 49.68 98.57 52.33 91.33 C 54.97 84.08 57.81 78.45 64.70 74.70 C 71.58 70.94 75.89 66.76 84.22 65.22 C 92.56 63.69 97.61 58.98 107.67 59.67 C 117.73 60.37 118.68 50.83 119.33 42.33 C 119.97 33.83 128.27 31.90 133.00 27.00
C 133.55 25.18 131.25 24.53 131.00 23.00
C 130.38 22.02 129.30 21.11 129.00 20.00
C 126.81 11.96 140.01 7.11 145.74 13.26 C 151.48 19.40 156.94 12.05 165.00 12.00 C 173.07 11.95 176.66 24.55 167.00 27.00
C 173.68 32.55 179.95 40.07 181.00 49.00
C 192.41 47.84 199.93 35.76 212.67 39.33 C 225.41 42.90 226.61 57.02 222.23 67.23 C 217.85 77.43 209.06 81.71 205.08 92.08 C 201.09 102.45 222.59 111.81 214.00 122.00 Z"/>
</g>
<g fill="#080404" fill-opacity="1.00" stroke="None">
<path d="
M 129.00 20.00 
C 134.38 16.38 140.39 10.52 147.25 18.75 C 154.11 26.98 136.80 27.75 131.00 23.00
C 131.25 24.53 133.55 25.18 133.00 27.00
C 128.27 31.90 119.97 33.83 119.33 42.33 C 118.68 50.83 117.73 60.37 107.67 59.67 C 97.61 58.98 92.56 63.69 84.22 65.22 C 75.89 66.76 71.58 70.94 64.70 74.70 C 57.81 78.45 54.97 84.08 52.33 91.33 C 49.68 98.57 51.78 110.16 52.00 118.00
C 41.24 124.19 22.54 134.74 24.00 149.00
C 27.60 154.16 35.13 142.79 38.75 139.75 C 42.38 136.71 49.57 128.70 55.00 128.00
C 58.39 135.19 60.31 139.92 65.75 146.25 C 71.20 152.58 77.42 153.89 85.01 156.99 C 92.59 160.10 102.69 158.13 111.00 160.00 C 119.31 161.87 132.81 155.12 121.97 151.03 C 111.14 146.94 104.13 153.48 94.00 149.00
C 75.79 145.42 68.67 135.68 63.07 117.93 C 57.48 100.18 64.14 85.43 81.00 77.00
C 93.56 70.72 108.54 70.25 122.00 67.00
C 135.12 85.71 165.59 85.74 178.00 66.00
C 185.20 56.32 190.28 58.44 201.08 51.08 C 211.87 43.71 218.54 58.72 211.08 67.08 C 203.63 75.44 196.53 80.26 196.00 91.00
C 195.89 93.25 195.79 95.76 196.00 98.00
C 198.56 109.54 205.64 115.68 214.00 122.00
C 222.59 111.81 201.09 102.45 205.08 92.08 C 209.06 81.71 217.85 77.43 222.23 67.23 C 226.61 57.02 225.41 42.90 212.67 39.33 C 199.93 35.76 192.41 47.84 181.00 49.00
C 179.95 40.07 173.68 32.55 167.00 27.00
C 176.66 24.55 173.07 11.95 165.00 12.00 C 156.94 12.05 151.48 19.40 145.74 13.26 C 140.01 7.11 126.81 11.96 129.00 20.00
M 170.00 19.00 
C 167.01 25.98 158.07 29.26 151.00 23.00
C 154.07 15.37 163.92 12.47 170.00 19.00
M 171.00 48.00 
C 172.05 51.02 171.86 53.06 171.00 56.00
C 168.33 65.16 161.81 67.55 154.00 71.00
C 142.96 75.88 129.97 68.69 129.00 58.00
C 128.42 51.62 127.06 46.69 131.00 41.00
C 132.36 39.03 133.99 37.23 136.00 36.00
C 148.53 28.32 166.24 34.26 171.00 48.00 Z"/>
</g>
<g fill="#031203" fill-opacity="1.00" stroke="None">
<path d="
M 129.00 20.00 
C 129.30 21.11 130.38 22.02 131.00 23.00
C 136.80 27.75 154.11 26.98 147.25 18.75 C 140.39 10.52 134.38 16.38 129.00 20.00
M 146.00 23.00 
C 141.59 22.95 136.16 22.53 134.00 18.00
C 137.92 15.88 145.11 18.31 146.00 23.00 Z"/>
</g>
<g fill="#031002" fill-opacity="1.00" stroke="None">
<path d="
M 170.00 19.00 
C 163.92 12.47 154.07 15.37 151.00 23.00
C 158.07 29.26 167.01 25.98 170.00 19.00
M 167.00 18.00 
C 166.40 22.95 158.30 24.29 155.00 22.00
C 157.54 18.22 162.61 17.63 167.00 18.00 Z"/>
</g>
<g fill="#799677" fill-opacity="1.00" stroke="None">
<path d="
M 146.00 23.00 
C 145.11 18.31 137.92 15.88 134.00 18.00
C 136.16 22.53 141.59 22.95 146.00 23.00 Z"/>
</g>
<g fill="#7A977A" fill-opacity="1.00" stroke="None">
<path d="
M 167.00 18.00 
C 162.61 17.63 157.54 18.22 155.00 22.00
C 158.30 24.29 166.40 22.95 167.00 18.00 Z"/>
</g>
<g fill="#F2A45E" fill-opacity="1.00" stroke="None">
<path d="
M 136.00 36.00 
C 134.75 36.90 131.95 39.83 131.00 41.00
C 127.06 46.69 128.42 51.62 129.00 58.00
C 132.54 67.46 144.56 72.50 154.00 71.00
C 161.81 67.55 168.33 65.16 171.00 56.00
C 171.35 53.82 171.44 50.16 171.00 48.00
C 166.24 34.26 148.53 28.32 136.00 36.00 Z"/>
</g>
<g fill="#906345" fill-opacity="1.00" stroke="None">
<path d="
M 131.00 41.00 
C 131.95 39.83 134.75 36.90 136.00 36.00
C 133.99 37.23 132.36 39.03 131.00 41.00 Z"/>
</g>
<g fill="#492513" fill-opacity="1.00" stroke="None">
<path d="
M 171.00 56.00 
C 171.86 53.06 172.05 51.02 171.00 48.00
C 171.44 50.16 171.35 53.82 171.00 56.00 Z"/>
</g>
<g fill="#876F68" fill-opacity="1.00" stroke="None">
<path d="
M 178.00 66.00 
C 181.58 68.67 182.18 75.27 185.75 79.25 C 189.33 83.23 195.09 85.35 195.00 91.00
C 195.00 90.99 196.00 91.00 196.00 91.00
C 196.53 80.26 203.63 75.44 211.08 67.08 C 218.54 58.72 211.87 43.71 201.08 51.08 C 190.28 58.44 185.20 56.32 178.00 66.00 Z"/>
</g>
<g fill="#2B0E04" fill-opacity="1.00" stroke="None">
<path d="
M 154.00 71.00 
C 144.56 72.50 132.54 67.46 129.00 58.00
C 129.97 68.69 142.96 75.88 154.00 71.00 Z"/>
</g>
<g fill="#BF9877" fill-opacity="1.00" stroke="None">
<path d="
M 81.00 77.00 
C 95.95 81.38 95.99 97.42 95.00 111.00 C 94.01 124.58 106.19 137.99 94.00 149.00
C 104.13 153.48 111.14 146.94 121.97 151.03 C 132.81 155.12 119.31 161.87 111.00 160.00 C 102.69 158.13 92.59 160.10 85.01 156.99 C 77.42 153.89 71.20 152.58 65.75 146.25 C 60.31 139.92 58.39 135.19 55.00 128.00
C 49.57 128.70 42.38 136.71 38.75 139.75 C 35.13 142.79 27.60 154.16 24.00 149.00
C 24.20 150.95 23.01 151.83 23.00 152.00
C 22.90 154.50 25.90 154.93 24.22 158.22 C 22.54 161.51 19.03 159.15 18.00 160.00
C 18.09 161.19 16.94 162.10 17.00 163.00
C 17.82 174.68 17.50 190.32 20.00 203.00
C 22.22 200.33 30.25 201.00 28.64 204.70 C 27.04 208.39 20.32 210.95 27.00 213.00
C 29.94 214.11 31.83 210.55 31.00 216.00
C 29.85 223.54 38.66 230.05 46.08 234.92 C 53.50 239.79 64.63 246.04 74.00 246.00
C 75.00 246.00 76.00 246.00 77.00 246.00
C 71.75 242.48 81.71 234.31 83.00 232.00
C 84.56 229.21 81.82 227.37 86.00 226.00
C 95.65 222.83 111.25 233.31 109.00 244.00
C 113.44 243.85 117.40 245.71 122.00 245.00
C 124.33 244.95 126.67 245.04 129.00 245.00
C 127.26 237.67 134.44 229.55 140.00 229.00
C 135.17 224.95 131.72 216.56 139.67 217.33 C 147.63 218.11 148.37 223.43 154.00 227.00
C 161.64 222.24 160.68 217.47 169.70 213.70 C 178.71 209.92 176.12 221.40 170.00 226.00
C 172.85 225.94 179.80 236.25 178.00 239.00
C 202.23 232.72 217.21 206.19 220.00 183.00
C 216.92 183.42 214.00 181.40 215.00 178.00
C 218.74 178.16 222.34 176.44 221.00 172.00
C 218.63 172.55 215.86 170.47 216.00 168.00
C 225.07 168.22 220.30 160.02 220.01 153.99 C 219.71 147.97 215.98 141.07 219.00 135.00
C 219.15 134.55 218.81 133.41 219.00 133.00
C 211.69 130.28 214.67 130.12 215.00 124.00
C 215.02 123.67 213.78 123.14 214.00 122.00
C 205.64 115.68 198.56 109.54 196.00 98.00
C 195.57 96.05 194.52 93.63 195.00 91.00
C 195.09 85.35 189.33 83.23 185.75 79.25 C 182.18 75.27 181.58 68.67 178.00 66.00
C 165.59 85.74 135.12 85.71 122.00 67.00
C 108.54 70.25 93.56 70.72 81.00 77.00
M 160.00 98.00 
C 174.59 100.06 168.13 122.96 153.00 119.00 C 137.87 115.04 145.15 95.91 160.00 98.00 Z"/>
</g>
<g fill="#826E65" fill-opacity="1.00" stroke="None">
<path d="
M 94.00 149.00 
C 106.19 137.99 94.01 124.58 95.00 111.00 C 95.99 97.42 95.95 81.38 81.00 77.00
C 64.14 85.43 57.48 100.18 63.07 117.93 C 68.67 135.68 75.79 145.42 94.00 149.00
M 82.00 93.00 
C 94.45 96.78 77.63 111.83 82.33 118.67 C 87.03 125.51 91.66 141.24 79.77 135.23 C 67.88 129.22 75.71 119.23 69.22 109.78 C 62.73 100.32 68.16 88.80 82.00 93.00 Z"/>
</g>
<g fill="#452E1D" fill-opacity="1.00" stroke="None">
<path d="
M 196.00 98.00 
C 195.79 95.76 195.89 93.25 196.00 91.00
C 196.00 91.00 195.00 90.99 195.00 91.00
C 194.52 93.63 195.57 96.05 196.00 98.00 Z"/>
</g>
<g fill="#060202" fill-opacity="1.00" stroke="None">
<path d="
M 82.00 93.00 
C 68.16 88.80 62.73 100.32 69.22 109.78 C 75.71 119.23 67.88 129.22 79.77 135.23 C 91.66 141.24 87.03 125.51 82.33 118.67 C 77.63 111.83 94.45 96.78 82.00 93.00 Z"/>
</g>
<g fill="#0B0303" fill-opacity="1.00" stroke="None">
<path d="
M 160.00 98.00 
C 145.15 95.91 137.87 115.04 153.00 119.00 C 168.13 122.96 174.59 100.06 160.00 98.00 Z"/>
</g>
<g fill="#0F0708" fill-opacity="1.00" stroke="None">
<path d="
M 219.00 133.00 
C 222.43 125.82 222.31 126.47 215.00 124.00
C 214.67 130.12 211.69 130.28 219.00 133.00 Z"/>
</g>
<g fill="#070404" fill-opacity="1.00" stroke="None">
<path d="
M 178.00 239.00 
C 172.79 240.35 166.16 240.81 161.00 239.00
C 162.34 233.97 165.84 229.20 170.00 226.00
C 176.12 221.40 178.71 209.92 169.70 213.70 C 160.68 217.47 161.64 222.24 154.00 227.00
C 148.37 223.43 147.63 218.11 139.67 217.33 C 131.72 216.56 135.17 224.95 140.00 229.00
C 143.35 231.81 154.30 240.77 145.77 243.77 C 137.24 246.77 129.74 245.75 122.00 245.00
C 117.40 245.71 113.44 243.85 109.00 244.00
C 111.25 233.31 95.65 222.83 86.00 226.00
C 80.56 228.86 86.26 234.64 89.00 236.00
C 97.57 239.41 99.19 245.57 88.00 246.00
C 83.42 246.65 78.53 246.74 74.00 246.00
C 64.63 246.04 53.50 239.79 46.08 234.92 C 38.66 230.05 29.85 223.54 31.00 216.00
C 30.32 212.88 28.80 214.25 27.00 213.00
C 20.32 210.95 27.04 208.39 28.64 204.70 C 30.25 201.00 22.22 200.33 20.00 203.00
C 17.50 190.32 17.82 174.68 17.00 163.00
C 14.59 164.86 10.73 163.59 10.32 168.32 C 9.92 173.05 9.22 173.30 9.00 178.00
C 8.90 180.08 8.16 182.60 8.00 184.00
C 7.93 192.77 9.12 201.34 13.00 209.00
C 3.38 210.73 6.96 222.37 15.00 215.00
C 16.42 219.48 11.86 228.69 21.00 225.00
C 35.45 242.02 55.72 255.15 78.00 256.00
C 81.94 256.15 86.06 256.21 90.00 256.00
C 102.72 252.44 115.36 253.86 129.00 255.00 C 142.64 256.14 153.12 249.53 165.00 251.00 C 176.88 252.47 189.05 246.49 198.25 240.25 C 207.45 234.01 213.09 226.04 218.75 216.75 C 224.41 207.45 228.47 194.91 230.00 184.00
C 239.38 187.13 241.11 175.89 231.00 178.00
C 230.16 174.53 231.87 170.73 236.00 172.00
C 237.14 168.06 233.91 166.87 231.00 166.00
C 229.63 153.28 231.65 138.83 219.00 135.00
C 215.98 141.07 219.71 147.97 220.01 153.99 C 220.30 160.02 225.07 168.22 216.00 168.00
C 215.86 170.47 218.63 172.55 221.00 172.00
C 222.34 176.44 218.74 178.16 215.00 178.00
C 214.00 181.40 216.92 183.42 220.00 183.00
C 217.21 206.19 202.23 232.72 178.00 239.00 Z"/>
</g>
<g fill="#120D0A" fill-opacity="1.00" stroke="None">
<path d="
M 18.00 160.00 
C 19.03 159.15 22.54 161.51 24.22 158.22 C 25.90 154.93 22.90 154.50 23.00 152.00
C 20.72 153.01 17.17 150.73 16.00 154.00 C 14.83 157.26 17.84 157.92 18.00 160.00 Z"/>
</g>
<g fill="#777777" fill-opacity="1.00" stroke="None">
<path d="
M 8.00 184.00 
C 8.16 182.60 8.90 180.08 9.00 178.00
C 8.80 179.49 8.06 181.83 8.00 184.00 Z"/>
</g>
<g fill="#341B09" fill-opacity="1.00" stroke="None">
<path d="
M 27.00 213.00 
C 28.80 214.25 30.32 212.88 31.00 216.00
C 31.83 210.55 29.94 214.11 27.00 213.00 Z"/>
</g>
<g fill="#3F2C1F" fill-opacity="1.00" stroke="None">
<path d="
M 83.00 232.00 
C 83.66 234.76 86.99 235.20 89.00 236.00
C 86.26 234.64 80.56 228.86 86.00 226.00
C 81.82 227.37 84.56 229.21 83.00 232.00 Z"/>
</g>
<g fill="#856F65" fill-opacity="1.00" stroke="None">
<path d="
M 178.00 239.00 
C 179.80 236.25 172.85 225.94 170.00 226.00
C 165.84 229.20 162.34 233.97 161.00 239.00
C 166.16 240.81 172.79 240.35 178.00 239.00 Z"/>
</g>
<g fill="#846F62" fill-opacity="1.00" stroke="None">
<path d="
M 122.00 245.00 
C 129.74 245.75 137.24 246.77 145.77 243.77 C 154.30 240.77 143.35 231.81 140.00 229.00
C 134.44 229.55 127.26 237.67 129.00 245.00
C 126.67 245.04 124.33 244.95 122.00 245.00 Z"/>
</g>
<g fill="#847066" fill-opacity="1.00" stroke="None">
<path d="
M 77.00 246.00 
C 80.66 246.00 84.35 246.14 88.00 246.00
C 99.19 245.57 97.57 239.41 89.00 236.00
C 86.99 235.20 83.66 234.76 83.00 232.00
C 81.71 234.31 71.75 242.48 77.00 246.00 Z"/>
</g>
<g fill="#514641" fill-opacity="1.00" stroke="None">
<path d="
M 88.00 246.00 
C 84.35 246.14 80.66 246.00 77.00 246.00
C 76.00 246.00 75.00 246.00 74.00 246.00
C 78.53 246.74 83.42 246.65 88.00 246.00 Z"/>
</g>
<g fill="#7A7A7A" fill-opacity="1.00" stroke="None">
<path d="
M 90.00 256.00 
C 86.06 256.21 81.94 256.15 78.00 256.00
C 81.93 256.56 85.99 256.65 90.00 256.00 Z"/>
</g>
</svg>