<svg xmlns="http://www.w3.org/2000/svg" xmlns:v="https://svgstorm.com"
viewBox = "0 0 265 259"
width="265"
height="259">
<g fill="None" fill-opacity="0.0" stroke="#FDFDFD" stroke-opacity="1.00" stroke-width="0.3"><path d="
M 0.00 259.00 
L 265.00 259.00
L 265.00 0.00
L 0.00 0.00
L 0.00 259.00
M 68.00 29.00 
C 67.91 29.13 70.85 28.03 71.00 28.00
C 72.89 27.66 74.77 27.82 76.00 29.00
C 76.49 28.94 77.00 29.00 77.00 29.00
C 77.50 29.00 78.00 29.00 78.00 29.00
C 78.26 28.88 78.70 28.21 79.00 28.00
C 81.12 26.50 86.19 22.56 87.00 27.00
C 88.10 27.18 88.18 29.15 88.00 30.00
C 88.44 29.83 89.50 30.03 90.00 30.00
C 95.33 29.67 100.92 30.89 106.00 32.00
C 107.41 32.31 110.06 33.91 111.00 34.00
C 112.05 33.87 112.44 33.13 113.00 33.00
C 116.62 27.62 116.99 22.46 124.69 20.69 C 132.40 18.93 136.57 23.17 139.00 30.00
C 141.80 37.89 140.12 48.39 131.00 52.00
C 136.35 70.17 144.62 80.77 152.31 98.69 C 159.99 116.62 183.63 113.28 199.07 119.93 C 214.52 126.57 228.24 136.46 241.00 147.00
C 247.99 152.42 247.85 162.75 249.07 173.08 C 250.29 183.40 246.24 200.27 246.00 210.00
C 243.22 215.65 234.08 218.08 236.00 225.00
C 226.66 228.85 223.01 234.56 213.78 238.78 C 204.54 242.99 195.49 246.18 184.99 248.99 C 174.50 251.80 164.17 252.26 153.00 254.00 C 141.82 255.74 128.57 255.64 117.00 255.00 C 105.43 254.36 89.98 254.56 79.00 254.00 C 68.02 253.44 51.22 256.79 51.00 245.00
C 50.95 243.66 51.66 239.55 52.00 238.00
C 51.81 234.62 49.90 228.93 50.00 226.00
C 49.49 227.93 48.71 229.83 49.00 232.00
C 46.77 229.13 48.81 223.77 50.00 221.00
C 49.57 219.46 50.47 217.53 50.00 216.00
C 49.80 215.37 49.10 215.11 49.00 214.00
C 48.10 211.80 48.24 209.72 48.00 207.00
C 47.93 206.25 48.14 205.11 47.00 205.00
C 46.85 206.74 45.73 208.39 44.00 209.00
C 43.45 207.18 45.75 206.53 46.00 205.00
C 46.23 204.71 46.68 204.19 47.00 204.00
C 47.62 203.07 47.56 201.08 48.00 200.00
C 48.22 197.01 46.72 194.27 47.00 191.00
C 46.45 191.79 44.75 192.46 44.00 193.00
C 51.71 178.47 49.89 159.48 46.00 144.00
C 39.61 143.60 33.41 142.40 27.00 142.00
C 21.02 135.10 19.44 124.11 19.00 114.00 C 18.56 103.89 14.87 91.88 20.00 85.00
C 21.28 82.82 23.35 81.65 25.00 80.00
C 30.36 73.73 35.57 67.21 42.00 62.00
C 42.36 61.71 43.65 60.12 44.00 60.00
C 31.39 58.32 27.23 45.04 41.00 41.00
C 40.18 38.70 39.41 35.52 42.00 34.00
C 42.94 32.18 42.94 31.14 45.00 30.00
C 46.27 29.29 48.63 30.53 50.00 30.00
C 50.17 24.66 50.36 13.90 58.01 14.01 C 65.66 14.12 64.95 24.88 68.00 29.00 Z"/>
</g>
<g fill="None" fill-opacity="0.0" stroke="#251510" stroke-opacity="1.00" stroke-width="0.3"><path d="
M 45.00 30.00 
C 42.51 31.86 43.89 32.05 45.00 33.00
C 46.54 31.99 48.40 31.78 49.00 34.00
C 46.71 33.81 45.39 37.12 44.00 34.00
C 43.53 34.12 42.41 33.81 42.00 34.00
C 39.41 35.52 40.18 38.70 41.00 41.00
C 27.23 45.04 31.39 58.32 44.00 60.00
C 46.63 60.35 51.45 60.69 54.00 60.00
C 54.58 59.84 57.04 59.55 56.00 58.00
C 55.50 57.95 55.00 58.00 55.00 58.00
C 52.96 58.19 49.36 58.66 50.00 57.00
C 50.10 56.75 51.27 55.25 51.00 55.00
C 50.02 54.10 42.75 57.56 40.00 56.00
C 39.33 55.62 37.09 52.92 37.00 52.00
C 36.82 50.08 37.24 48.80 39.00 48.00
C 39.19 47.92 39.00 47.00 39.00 47.00
C 42.19 41.80 47.56 51.20 52.00 50.00
C 52.99 48.83 52.38 47.69 52.00 46.00
C 51.62 44.30 50.55 44.42 52.00 43.00
C 52.25 42.76 52.00 42.00 52.00 42.00
C 47.10 42.18 44.44 42.14 47.00 38.00
C 48.54 35.52 47.36 35.51 50.00 36.00
C 53.60 36.67 52.49 37.49 53.00 39.00
C 53.84 39.49 53.82 39.69 55.00 40.00
C 58.14 40.83 60.31 43.87 61.00 47.00
C 61.12 46.74 61.96 46.35 62.00 46.00
C 62.67 39.58 57.35 31.21 51.00 30.00
C 50.48 26.25 54.96 15.47 60.67 18.33 C 66.39 21.19 63.15 30.94 60.00 34.00
C 61.54 31.82 64.57 32.71 66.00 31.00
C 65.71 29.21 65.49 27.75 65.00 26.00
C 66.88 26.24 66.46 28.55 68.00 29.00
C 64.95 24.88 65.66 14.12 58.01 14.01 C 50.36 13.90 50.17 24.66 50.00 30.00
C 48.63 30.53 46.27 29.29 45.00 30.00
M 58.00 15.00 
C 57.83 17.28 54.65 18.48 53.00 20.00
C 53.14 17.67 55.61 15.06 58.00 15.00
M 50.00 46.00 
C 44.57 48.64 45.58 40.23 50.00 46.00 Z"/>
</g>
<g fill="None" fill-opacity="0.0" stroke="#A29380" stroke-opacity="1.00" stroke-width="0.3"><path d="
M 58.00 15.00 
C 55.61 15.06 53.14 17.67 53.00 20.00
C 54.65 18.48 57.83 17.28 58.00 15.00 Z"/>
</g>
<g fill="None" fill-opacity="0.0" stroke="#BA9569" stroke-opacity="1.00" stroke-width="0.3"><path d="
M 62.00 46.00 
C 62.15 46.32 63.95 47.77 64.00 48.00
C 64.58 47.05 64.68 45.13 65.00 44.00
C 66.38 39.11 66.75 35.56 66.00 31.00
C 64.57 32.71 61.54 31.82 60.00 34.00
C 63.15 30.94 66.39 21.19 60.67 18.33 C 54.96 15.47 50.48 26.25 51.00 30.00
C 57.35 31.21 62.67 39.58 62.00 46.00 Z"/>
</g>
<g fill="None" fill-opacity="0.0" stroke="#594635" stroke-opacity="1.00" stroke-width="0.3"><path d="
M 113.00 33.00 
C 116.69 32.17 115.91 25.67 122.23 23.23 C 128.55 20.79 133.52 22.27 137.00 28.00
C 137.57 28.94 138.45 29.30 139.00 30.00
C 136.57 23.17 132.40 18.93 124.69 20.69 C 116.99 22.46 116.62 27.62 113.00 33.00 Z"/>
</g>
<g fill="None" fill-opacity="0.0" stroke="#C4975D" stroke-opacity="1.00" stroke-width="0.3"><path d="
M 113.00 33.00 
C 112.44 33.13 112.05 33.87 111.00 34.00
C 110.06 34.11 108.95 34.03 108.00 34.00
C 103.03 33.83 93.38 33.20 90.00 30.00
C 89.50 30.03 88.44 29.83 88.00 30.00
C 87.89 30.04 86.23 31.81 86.00 32.00
C 83.08 34.43 83.30 34.21 81.00 32.00
C 79.10 30.18 78.93 31.40 81.00 29.00
C 81.35 28.59 81.67 27.28 82.00 27.00
C 80.21 27.63 80.09 27.97 79.00 28.00
C 78.70 28.21 78.26 28.88 78.00 29.00
C 80.07 30.99 66.33 45.75 72.00 45.00
C 76.13 41.75 92.72 36.84 94.77 46.23 C 96.82 55.62 90.16 59.65 83.75 66.75 C 77.34 73.86 66.98 67.58 61.00 63.00
C 59.30 62.24 58.89 65.53 58.00 62.00
C 57.51 62.06 57.00 62.00 57.00 62.00
C 56.02 62.76 53.50 61.10 54.00 60.00
C 51.45 60.69 46.63 60.35 44.00 60.00
C 43.65 60.12 42.36 61.71 42.00 62.00
C 39.54 65.52 34.86 71.66 31.00 76.00
C 29.81 76.62 37.27 76.32 39.00 74.00
C 39.79 76.73 42.95 74.15 42.00 78.00
C 44.42 73.66 48.48 78.95 51.00 80.00
C 51.57 79.30 51.85 78.02 53.00 78.00
C 53.55 79.82 51.25 80.47 51.00 82.00
C 51.16 81.82 53.53 81.28 54.00 81.00
C 54.90 80.47 55.22 78.18 57.00 79.00
C 54.70 81.29 52.99 84.39 55.78 87.22 C 58.56 90.05 54.81 96.34 58.00 97.00
C 58.31 97.46 60.55 96.63 61.00 97.00
C 60.09 101.85 53.92 102.74 50.00 104.00
C 42.14 106.73 35.03 106.22 28.00 102.00
C 26.78 101.27 23.25 98.06 22.00 98.00
C 22.73 98.03 19.68 99.52 20.00 99.00
C 20.61 105.54 20.21 112.66 21.00 119.00 C 21.79 125.34 22.39 130.32 24.92 136.08 C 27.45 141.83 36.84 139.87 40.67 141.33 C 44.50 142.79 59.94 139.99 60.00 144.00
C 61.61 145.06 61.13 148.30 62.00 150.00
C 58.99 150.44 60.64 146.42 59.00 145.00
C 54.92 143.48 52.37 143.58 54.00 149.00
C 52.11 147.74 52.95 144.20 51.00 143.00
C 51.26 147.60 50.01 144.02 48.00 143.00
C 50.36 158.37 52.03 176.11 47.00 191.00
C 46.72 194.27 48.22 197.01 48.00 200.00
C 49.77 195.70 52.84 191.14 53.00 186.00
C 54.70 191.50 50.96 199.62 47.00 204.00
C 46.68 204.19 46.23 204.71 46.00 205.00
C 46.24 204.75 47.00 205.00 47.00 205.00
C 48.14 205.11 47.93 206.25 48.00 207.00
C 48.90 209.20 48.76 211.28 49.00 214.00
C 49.10 215.11 49.80 215.37 50.00 216.00
C 50.73 211.71 54.26 206.69 55.00 202.00
C 56.52 208.01 51.14 215.22 51.00 222.00
C 50.68 223.37 50.37 224.61 50.00 226.00
C 49.90 228.93 51.81 234.62 52.00 238.00
C 52.04 237.81 52.85 236.58 53.00 236.00
C 53.68 233.35 54.35 230.70 55.00 228.00
C 57.03 229.87 55.12 234.18 54.00 236.00
C 53.28 238.83 54.05 243.67 52.00 246.00
C 52.95 246.79 53.14 247.62 53.00 249.00
C 82.49 253.47 120.24 254.47 150.00 252.00 C 179.76 249.53 203.76 244.17 227.23 226.23 C 250.70 208.29 251.50 174.10 241.00 149.00
C 235.75 149.26 231.42 139.87 225.92 138.08 C 220.41 136.30 215.14 130.34 209.30 127.70 C 203.47 125.05 196.85 121.71 190.32 119.68 C 183.79 117.65 175.12 115.25 168.00 115.00 C 160.88 114.75 157.32 108.83 153.25 103.75 C 149.18 98.68 147.33 91.87 143.75 86.25 C 140.16 80.64 138.46 73.78 135.07 67.93 C 131.69 62.07 130.31 56.60 128.00 52.00
C 134.73 48.77 142.07 40.39 138.22 32.78 C 134.37 25.17 123.92 26.24 119.00 32.00
C 118.09 33.16 117.90 34.53 118.00 36.00
C 116.06 36.88 115.15 33.39 117.00 33.00
C 119.20 25.84 131.26 23.05 137.00 28.00
C 133.52 22.27 128.55 20.79 122.23 23.23 C 115.91 25.67 116.69 32.17 113.00 33.00
M 128.00 29.00 
C 126.28 30.97 125.63 33.95 123.00 35.00
C 123.74 32.72 125.06 29.05 128.00 29.00
M 126.00 35.00 
C 125.60 37.30 125.54 40.37 124.00 42.00
C 123.91 39.55 123.77 36.39 126.00 35.00
M 115.00 70.00 
C 127.69 68.34 135.80 82.60 131.22 94.22 C 126.64 105.84 110.58 109.31 100.31 103.69 C 90.03 98.08 96.98 78.26 102.00 73.00
C 105.45 69.39 110.94 67.18 116.00 67.00
C 116.53 68.28 115.03 68.86 115.00 70.00
M 152.00 118.00 
C 147.65 115.00 140.81 112.58 139.00 107.00
C 142.92 111.38 148.87 112.94 152.00 118.00
M 40.00 130.00 
C 36.83 130.23 33.88 129.95 31.00 129.00
C 36.74 125.60 32.00 115.48 35.00 110.00
C 38.40 116.00 32.27 126.84 40.00 130.00
M 147.00 121.00 
C 144.58 119.52 141.49 118.49 140.00 116.00
C 142.65 116.61 146.49 118.19 147.00 121.00
M 134.00 128.00 
C 131.69 126.86 130.23 124.47 130.00 122.00
C 131.93 123.33 133.58 125.67 134.00 128.00
M 202.00 159.00 
C 199.08 158.87 195.56 157.56 194.00 155.00
C 196.80 155.69 199.98 157.07 202.00 159.00
M 201.00 171.00 
C 194.98 168.19 199.75 165.11 201.00 171.00
M 201.00 192.00 
C 198.67 191.86 196.06 189.39 196.00 187.00
C 197.66 188.74 201.23 188.98 201.00 192.00
M 105.00 194.00 
C 105.72 199.39 107.27 204.58 108.00 210.00
C 104.92 206.27 103.80 198.31 105.00 194.00
M 116.00 194.00 
C 117.66 199.56 119.24 205.16 120.00 211.00
C 117.17 206.79 115.11 198.66 116.00 194.00 Z"/>
</g>
<g fill="None" fill-opacity="0.0" stroke="#212325" stroke-opacity="1.00" stroke-width="0.3"><path d="
M 79.00 28.00 
C 80.09 27.97 80.21 27.63 82.00 27.00
C 83.66 26.42 84.77 25.82 86.00 27.00
C 86.26 27.25 87.00 27.00 87.00 27.00
C 86.19 22.56 81.12 26.50 79.00 28.00 Z"/>
</g>
<g fill="None" fill-opacity="0.0" stroke="#604329" stroke-opacity="1.00" stroke-width="0.3"><path d="
M 66.00 31.00 
C 66.75 35.56 66.38 39.11 65.00 44.00
C 65.00 44.16 65.99 44.66 66.00 45.00
C 67.07 40.73 69.61 34.10 68.00 29.00
C 66.46 28.55 66.88 26.24 65.00 26.00
C 65.49 27.75 65.71 29.21 66.00 31.00 Z"/>
</g>
<g fill="None" fill-opacity="0.0" stroke="#F0EEEB" stroke-opacity="1.00" stroke-width="0.3"><path d="
M 82.00 27.00 
C 81.67 27.28 81.35 28.59 81.00 29.00
C 81.09 29.14 85.84 29.18 86.00 29.00
C 85.86 28.54 85.77 27.16 86.00 27.00
C 84.77 25.82 83.66 26.42 82.00 27.00 Z"/>
</g>
<g fill="None" fill-opacity="0.0" stroke="#362113" stroke-opacity="1.00" stroke-width="0.3"><path d="
M 117.00 33.00 
C 117.42 32.47 118.57 32.40 119.00 32.00
C 123.92 26.24 134.37 25.17 138.22 32.78 C 142.07 40.39 134.73 48.77 128.00 52.00
C 130.31 56.60 131.69 62.07 135.07 67.93 C 138.46 73.78 140.16 80.64 143.75 86.25 C 147.33 91.87 149.18 98.68 153.25 103.75 C 157.32 108.83 160.88 114.75 168.00 115.00 C 175.12 115.25 183.79 117.65 190.32 119.68 C 196.85 121.71 203.47 125.05 209.30 127.70 C 215.14 130.34 220.41 136.30 225.92 138.08 C 231.42 139.87 235.75 149.26 241.00 149.00
C 240.92 148.51 241.15 147.45 241.00 147.00
C 228.24 136.46 214.52 126.57 199.07 119.93 C 183.63 113.28 159.99 116.62 152.31 98.69 C 144.62 80.77 136.35 70.17 131.00 52.00
C 140.12 48.39 141.80 37.89 139.00 30.00
C 138.45 29.30 137.57 28.94 137.00 28.00
C 131.26 23.05 119.20 25.84 117.00 33.00 Z"/>
</g>
<g fill="None" fill-opacity="0.0" stroke="#6B6259" stroke-opacity="1.00" stroke-width="0.3"><path d="
M 86.00 29.00 
C 86.38 30.26 87.07 30.31 86.00 32.00
C 86.23 31.81 87.89 30.04 88.00 30.00
C 88.18 29.15 88.10 27.18 87.00 27.00
C 87.00 27.00 86.26 27.25 86.00 27.00
C 85.77 27.16 85.86 28.54 86.00 29.00 Z"/>
</g>
<g fill="None" fill-opacity="0.0" stroke="#B9986B" stroke-opacity="1.00" stroke-width="0.3"><path d="
M 68.00 29.00 
C 69.61 34.10 67.07 40.73 66.00 45.00
C 65.48 47.07 65.18 47.39 66.00 49.00
C 65.90 43.26 75.05 34.46 77.00 29.00
C 77.00 29.00 76.49 28.94 76.00 29.00
C 74.35 29.20 71.73 27.95 71.00 28.00
C 70.85 28.03 67.91 29.13 68.00 29.00 Z"/>
</g>
<g fill="None" fill-opacity="0.0" stroke="#2F1E06" stroke-opacity="1.00" stroke-width="0.3"><path d="
M 76.00 29.00 
C 74.77 27.82 72.89 27.66 71.00 28.00
C 71.73 27.95 74.35 29.20 76.00 29.00 Z"/>
</g>
<g fill="None" fill-opacity="0.0" stroke="#471F0A" stroke-opacity="1.00" stroke-width="0.3"><path d="
M 66.00 49.00 
C 66.08 49.16 66.99 50.99 67.00 51.00
C 67.18 51.07 75.25 52.11 71.00 54.00
C 69.38 54.72 66.53 53.14 65.00 54.00
C 64.97 54.19 64.09 55.93 64.00 56.00
C 65.08 57.33 71.53 57.80 67.00 59.00
C 65.54 59.39 62.63 56.45 63.00 60.00
C 65.38 59.84 69.78 62.99 68.00 65.00
C 68.71 65.30 70.91 66.22 72.00 66.00
C 71.13 65.78 69.85 62.83 70.00 62.00
C 71.77 61.79 73.37 63.54 74.00 65.00
C 74.14 64.78 75.51 65.08 76.00 65.00
C 76.23 63.08 71.95 61.94 72.00 60.00
C 74.86 59.65 77.39 60.27 80.00 61.00
C 80.60 59.90 81.56 59.15 82.00 58.00
C 80.47 58.80 78.32 57.54 77.00 57.00
C 77.53 55.40 79.75 56.28 81.00 56.00
C 82.25 55.75 82.49 56.04 84.00 56.00
C 82.08 55.69 79.54 51.04 80.00 49.00
C 83.46 48.95 85.28 52.50 88.00 54.00
C 88.36 53.44 88.95 52.69 89.00 52.00
C 88.81 51.47 82.86 47.42 82.00 47.00
C 81.60 46.80 81.00 47.00 81.00 47.00
C 77.18 49.41 70.92 51.45 67.00 49.00
C 69.11 48.60 71.66 47.62 73.00 46.00
C 72.65 45.94 72.12 44.98 72.00 45.00
C 66.33 45.75 80.07 30.99 78.00 29.00
C 78.00 29.00 77.50 29.00 77.00 29.00
C 75.05 34.46 65.90 43.26 66.00 49.00
M 73.00 55.00 
C 73.58 45.76 83.76 56.56 73.00 55.00
M 75.00 58.00 
C 73.85 59.03 70.69 57.76 69.00 57.00
C 70.28 54.95 74.00 56.35 75.00 58.00 Z"/>
</g>
<g fill="None" fill-opacity="0.0" stroke="#B9A899" stroke-opacity="1.00" stroke-width="0.3"><path d="
M 81.00 32.00 
C 81.10 30.57 85.86 28.93 86.00 29.00
C 85.84 29.18 81.09 29.14 81.00 29.00
C 78.93 31.40 79.10 30.18 81.00 32.00 Z"/>
</g>
<g fill="None" fill-opacity="0.0" stroke="#291407" stroke-opacity="1.00" stroke-width="0.3"><path d="
M 81.00 32.00 
C 83.30 34.21 83.08 34.43 86.00 32.00
C 87.07 30.31 86.38 30.26 86.00 29.00
C 85.86 28.93 81.10 30.57 81.00 32.00 Z"/>
</g>
<g fill="None" fill-opacity="0.0" stroke="#725023" stroke-opacity="1.00" stroke-width="0.3"><path d="
M 128.00 29.00 
C 125.06 29.05 123.74 32.72 123.00 35.00
C 125.63 33.95 126.28 30.97 128.00 29.00 Z"/>
</g>
<g fill="None" fill-opacity="0.0" stroke="#3C463E" stroke-opacity="1.00" stroke-width="0.3"><path d="
M 42.00 34.00 
C 42.41 33.81 43.53 34.12 44.00 34.00
C 44.35 33.91 44.73 33.18 45.00 33.00
C 43.89 32.05 42.51 31.86 45.00 30.00
C 42.94 31.14 42.94 32.18 42.00 34.00 Z"/>
</g>
<g fill="None" fill-opacity="0.0" stroke="#341F15" stroke-opacity="1.00" stroke-width="0.3"><path d="
M 108.00 34.00 
C 107.49 33.86 106.44 32.19 106.00 32.00
C 100.92 30.89 95.33 29.67 90.00 30.00
C 93.38 33.20 103.03 33.83 108.00 34.00 Z"/>
</g>
<g fill="None" fill-opacity="0.0" stroke="#86828E" stroke-opacity="1.00" stroke-width="0.3"><path d="
M 45.00 33.00 
C 44.73 33.18 44.35 33.91 44.00 34.00
C 45.39 37.12 46.71 33.81 49.00 34.00
C 48.40 31.78 46.54 31.99 45.00 33.00 Z"/>
</g>
<g fill="None" fill-opacity="0.0" stroke="#77635B" stroke-opacity="1.00" stroke-width="0.3"><path d="
M 108.00 34.00 
C 108.95 34.03 110.06 34.11 111.00 34.00
C 110.06 33.91 107.41 32.31 106.00 32.00
C 106.44 32.19 107.49 33.86 108.00 34.00 Z"/>
</g>
<g fill="None" fill-opacity="0.0" stroke="#755327" stroke-opacity="1.00" stroke-width="0.3"><path d="
M 117.00 33.00 
C 115.15 33.39 116.06 36.88 118.00 36.00
C 117.90 34.53 118.09 33.16 119.00 32.00
C 118.57 32.40 117.42 32.47 117.00 33.00 Z"/>
</g>
<g fill="None" fill-opacity="0.0" stroke="#431A09" stroke-opacity="1.00" stroke-width="0.3"><path d="
M 47.00 38.00 
C 49.07 37.45 53.44 40.12 52.00 42.00
C 52.00 42.00 52.25 42.76 52.00 43.00
C 53.51 43.39 55.43 43.76 55.00 46.00
C 54.00 46.00 53.00 46.00 52.00 46.00
C 52.38 47.69 52.99 48.83 52.00 50.00
C 50.01 52.35 43.01 48.34 39.00 47.00
C 39.00 47.00 39.19 47.92 39.00 48.00
C 40.87 50.11 44.82 49.41 47.00 51.00
C 47.73 51.54 48.95 51.87 49.00 53.00
C 47.33 53.00 45.67 53.00 44.00 53.00
C 42.59 53.06 37.78 53.63 37.00 52.00
C 37.09 52.92 39.33 55.62 40.00 56.00
C 39.51 52.90 50.41 53.12 51.00 55.00
C 51.27 55.25 50.10 56.75 50.00 57.00
C 50.61 57.39 57.56 53.76 55.00 58.00
C 55.00 58.00 55.50 57.95 56.00 58.00
C 56.35 58.03 56.89 58.65 57.00 59.00
C 57.10 57.18 58.76 55.54 59.00 55.00
C 56.96 55.11 52.95 54.47 53.00 52.00
C 55.47 51.32 57.18 52.78 59.00 54.00
C 58.81 53.47 58.23 51.28 58.00 51.00
C 56.28 50.31 54.06 49.66 53.00 48.00
C 55.54 46.87 57.93 46.88 60.00 49.00
C 60.04 48.78 60.97 48.35 61.00 48.00
C 56.53 45.48 57.48 43.28 55.00 40.00
C 53.82 39.69 53.84 39.49 53.00 39.00
C 52.82 38.89 48.06 35.44 50.00 36.00
C 47.36 35.51 48.54 35.52 47.00 38.00 Z"/>
</g>
<g fill="None" fill-opacity="0.0" stroke="#714B1C" stroke-opacity="1.00" stroke-width="0.3"><path d="
M 126.00 35.00 
C 123.77 36.39 123.91 39.55 124.00 42.00
C 125.54 40.37 125.60 37.30 126.00 35.00 Z"/>
</g>
<g fill="None" fill-opacity="0.0" stroke="#AA8B61" stroke-opacity="1.00" stroke-width="0.3"><path d="
M 53.00 39.00 
C 52.49 37.49 53.60 36.67 50.00 36.00
C 48.06 35.44 52.82 38.89 53.00 39.00 Z"/>
</g>
<g fill="None" fill-opacity="0.0" stroke="#B7905C" stroke-opacity="1.00" stroke-width="0.3"><path d="
M 52.00 42.00 
C 53.44 40.12 49.07 37.45 47.00 38.00
C 44.44 42.14 47.10 42.18 52.00 42.00 Z"/>
</g>
<g fill="None" fill-opacity="0.0" stroke="#B78D55" stroke-opacity="1.00" stroke-width="0.3"><path d="
M 61.00 48.00 
C 61.05 47.50 61.00 47.00 61.00 47.00
C 60.31 43.87 58.14 40.83 55.00 40.00
C 57.48 43.28 56.53 45.48 61.00 48.00 Z"/>
</g>
<g fill="None" fill-opacity="0.0" stroke="#220F06" stroke-opacity="1.00" stroke-width="0.3"><path d="
M 72.00 45.00 
C 72.12 44.98 72.65 45.94 73.00 46.00
C 76.13 46.57 79.32 43.68 81.00 47.00
C 81.00 47.00 81.60 46.80 82.00 47.00
C 84.34 45.18 89.22 48.81 89.00 52.00
C 88.95 52.69 88.36 53.44 88.00 54.00
C 86.82 55.81 86.20 55.94 84.00 56.00
C 82.49 56.04 82.25 55.75 81.00 56.00
C 82.87 56.63 82.35 57.10 82.00 58.00
C 81.56 59.15 80.60 59.90 80.00 61.00
C 79.35 62.19 79.23 64.48 76.00 65.00
C 75.51 65.08 74.14 64.78 74.00 65.00
C 73.76 65.39 72.42 65.91 72.00 66.00
C 70.91 66.22 68.71 65.30 68.00 65.00
C 62.76 62.80 59.74 59.57 64.00 56.00
C 64.09 55.93 64.97 54.19 65.00 54.00
C 65.09 53.52 64.82 52.42 65.00 52.00
C 65.43 51.00 66.00 51.14 67.00 51.00
C 66.99 50.99 66.08 49.16 66.00 49.00
C 65.18 47.39 65.48 47.07 66.00 45.00
C 65.99 44.66 65.00 44.16 65.00 44.00
C 64.68 45.13 64.58 47.05 64.00 48.00
C 64.04 47.94 61.35 49.83 61.00 50.00
C 61.69 51.03 61.14 51.34 61.00 53.00
C 59.75 52.70 59.29 51.17 58.00 51.00
C 58.23 51.28 58.81 53.47 59.00 54.00
C 59.16 54.44 59.00 55.00 59.00 55.00
C 58.76 55.54 57.10 57.18 57.00 59.00
C 57.16 59.53 56.62 61.64 57.00 62.00
C 57.00 62.00 57.51 62.06 58.00 62.00
C 59.71 61.80 59.92 62.17 61.00 63.00
C 66.98 67.58 77.34 73.86 83.75 66.75 C 90.16 59.65 96.82 55.62 94.77 46.23 C 92.72 36.84 76.13 41.75 72.00 45.00
M 89.00 44.00 
C 88.34 47.13 83.39 46.15 84.00 43.00
C 86.28 43.32 86.26 45.45 89.00 44.00
M 93.00 46.00 
C 92.75 51.59 87.38 46.31 93.00 46.00
M 80.00 68.00 
C 74.65 68.05 79.99 62.60 80.00 68.00 Z"/>
</g>
<g fill="None" fill-opacity="0.0" stroke="#B38973" stroke-opacity="1.00" stroke-width="0.3"><path d="
M 52.00 46.00 
C 53.00 46.00 54.00 46.00 55.00 46.00
C 55.43 43.76 53.51 43.39 52.00 43.00
C 50.55 44.42 51.62 44.30 52.00 46.00 Z"/>
</g>
<g fill="None" fill-opacity="0.0" stroke="#978D7E" stroke-opacity="1.00" stroke-width="0.3"><path d="
M 89.00 44.00 
C 86.26 45.45 86.28 43.32 84.00 43.00
C 83.39 46.15 88.34 47.13 89.00 44.00 Z"/>
</g>
<g fill="None" fill-opacity="0.0" stroke="#96816E" stroke-opacity="1.00" stroke-width="0.3"><path d="
M 50.00 46.00 
C 45.58 40.23 44.57 48.64 50.00 46.00 Z"/>
</g>
<g fill="None" fill-opacity="0.0" stroke="#B58E62" stroke-opacity="1.00" stroke-width="0.3"><path d="
M 39.00 47.00 
C 43.01 48.34 50.01 52.35 52.00 50.00
C 47.56 51.20 42.19 41.80 39.00 47.00 Z"/>
</g>
<g fill="None" fill-opacity="0.0" stroke="#C99154" stroke-opacity="1.00" stroke-width="0.3"><path d="
M 73.00 46.00 
C 71.66 47.62 69.11 48.60 67.00 49.00
C 70.92 51.45 77.18 49.41 81.00 47.00
C 79.32 43.68 76.13 46.57 73.00 46.00 Z"/>
</g>
<g fill="None" fill-opacity="0.0" stroke="#6D432B" stroke-opacity="1.00" stroke-width="0.3"><path d="
M 61.00 47.00 
C 61.00 47.00 61.05 47.50 61.00 48.00
C 60.97 48.35 60.04 48.78 60.00 49.00
C 60.24 49.28 60.82 49.73 61.00 50.00
C 61.35 49.83 64.04 47.94 64.00 48.00
C 63.95 47.77 62.15 46.32 62.00 46.00
C 61.96 46.35 61.12 46.74 61.00 47.00 Z"/>
</g>
<g fill="None" fill-opacity="0.0" stroke="#C19672" stroke-opacity="1.00" stroke-width="0.3"><path d="
M 82.00 47.00 
C 82.86 47.42 88.81 51.47 89.00 52.00
C 89.22 48.81 84.34 45.18 82.00 47.00 Z"/>
</g>
<g fill="None" fill-opacity="0.0" stroke="#847D7D" stroke-opacity="1.00" stroke-width="0.3"><path d="
M 93.00 46.00 
C 87.38 46.31 92.75 51.59 93.00 46.00 Z"/>
</g>
<g fill="None" fill-opacity="0.0" stroke="#BE9259" stroke-opacity="1.00" stroke-width="0.3"><path d="
M 58.00 51.00 
C 59.29 51.17 59.75 52.70 61.00 53.00
C 61.14 51.34 61.69 51.03 61.00 50.00
C 60.82 49.73 60.24 49.28 60.00 49.00
C 57.93 46.88 55.54 46.87 53.00 48.00
C 54.06 49.66 56.28 50.31 58.00 51.00 Z"/>
</g>
<g fill="None" fill-opacity="0.0" stroke="#C89453" stroke-opacity="1.00" stroke-width="0.3"><path d="
M 37.00 52.00 
C 37.78 53.63 42.59 53.06 44.00 53.00
C 44.60 52.86 46.59 51.73 47.00 51.00
C 44.82 49.41 40.87 50.11 39.00 48.00
C 37.24 48.80 36.82 50.08 37.00 52.00 Z"/>
</g>
<g fill="None" fill-opacity="0.0" stroke="#C89659" stroke-opacity="1.00" stroke-width="0.3"><path d="
M 84.00 56.00 
C 86.20 55.94 86.82 55.81 88.00 54.00
C 85.28 52.50 83.46 48.95 80.00 49.00
C 79.54 51.04 82.08 55.69 84.00 56.00 Z"/>
</g>
<g fill="None" fill-opacity="0.0" stroke="#AC6C60" stroke-opacity="1.00" stroke-width="0.3"><path d="
M 44.00 53.00 
C 45.67 53.00 47.33 53.00 49.00 53.00
C 48.95 51.87 47.73 51.54 47.00 51.00
C 46.59 51.73 44.60 52.86 44.00 53.00 Z"/>
</g>
<g fill="None" fill-opacity="0.0" stroke="#6F4B20" stroke-opacity="1.00" stroke-width="0.3"><path d="
M 65.00 52.00 
C 66.35 51.27 71.68 51.47 71.00 54.00
C 75.25 52.11 67.18 51.07 67.00 51.00
C 66.00 51.14 65.43 51.00 65.00 52.00 Z"/>
</g>
<g fill="None" fill-opacity="0.0" stroke="#BB9058" stroke-opacity="1.00" stroke-width="0.3"><path d="
M 73.00 55.00 
C 83.76 56.56 73.58 45.76 73.00 55.00 Z"/>
</g>
<g fill="None" fill-opacity="0.0" stroke="#B18761" stroke-opacity="1.00" stroke-width="0.3"><path d="
M 59.00 55.00 
C 59.00 55.00 59.16 54.44 59.00 54.00
C 57.18 52.78 55.47 51.32 53.00 52.00
C 52.95 54.47 56.96 55.11 59.00 55.00 Z"/>
</g>
<g fill="None" fill-opacity="0.0" stroke="#D69C60" stroke-opacity="1.00" stroke-width="0.3"><path d="
M 65.00 54.00 
C 66.53 53.14 69.38 54.72 71.00 54.00
C 71.68 51.47 66.35 51.27 65.00 52.00
C 64.82 52.42 65.09 53.52 65.00 54.00 Z"/>
</g>
<g fill="None" fill-opacity="0.0" stroke="#B89049" stroke-opacity="1.00" stroke-width="0.3"><path d="
M 40.00 56.00 
C 42.75 57.56 50.02 54.10 51.00 55.00
C 50.41 53.12 39.51 52.90 40.00 56.00 Z"/>
</g>
<g fill="None" fill-opacity="0.0" stroke="#B5976E" stroke-opacity="1.00" stroke-width="0.3"><path d="
M 50.00 57.00 
C 49.36 58.66 52.96 58.19 55.00 58.00
C 57.56 53.76 50.61 57.39 50.00 57.00 Z"/>
</g>
<g fill="None" fill-opacity="0.0" stroke="#BE9567" stroke-opacity="1.00" stroke-width="0.3"><path d="
M 68.00 65.00 
C 69.78 62.99 65.38 59.84 63.00 60.00
C 62.63 56.45 65.54 59.39 67.00 59.00
C 68.17 59.43 65.04 55.89 64.00 56.00
C 59.74 59.57 62.76 62.80 68.00 65.00 Z"/>
</g>
<g fill="None" fill-opacity="0.0" stroke="#885F31" stroke-opacity="1.00" stroke-width="0.3"><path d="
M 67.00 59.00 
C 71.53 57.80 65.08 57.33 64.00 56.00
C 65.04 55.89 68.17 59.43 67.00 59.00 Z"/>
</g>
<g fill="None" fill-opacity="0.0" stroke="#BF8D6A" stroke-opacity="1.00" stroke-width="0.3"><path d="
M 75.00 58.00 
C 74.00 56.35 70.28 54.95 69.00 57.00
C 70.69 57.76 73.85 59.03 75.00 58.00 Z"/>
</g>
<g fill="None" fill-opacity="0.0" stroke="#B79A64" stroke-opacity="1.00" stroke-width="0.3"><path d="
M 82.00 58.00 
C 82.35 57.10 82.87 56.63 81.00 56.00
C 79.75 56.28 77.53 55.40 77.00 57.00
C 78.32 57.54 80.47 58.80 82.00 58.00 Z"/>
</g>
<g fill="None" fill-opacity="0.0" stroke="#463319" stroke-opacity="1.00" stroke-width="0.3"><path d="
M 54.00 60.00 
C 53.50 61.10 56.02 62.76 57.00 62.00
C 56.62 61.64 57.16 59.53 57.00 59.00
C 56.89 58.65 56.35 58.03 56.00 58.00
C 57.04 59.55 54.58 59.84 54.00 60.00 Z"/>
</g>
<g fill="None" fill-opacity="0.0" stroke="#C5935A" stroke-opacity="1.00" stroke-width="0.3"><path d="
M 76.00 65.00 
C 79.23 64.48 79.35 62.19 80.00 61.00
C 77.39 60.27 74.86 59.65 72.00 60.00
C 71.95 61.94 76.23 63.08 76.00 65.00 Z"/>
</g>
<g fill="None" fill-opacity="0.0" stroke="#3A2718" stroke-opacity="1.00" stroke-width="0.3"><path d="
M 25.00 80.00 
C 23.63 81.60 21.10 83.46 20.00 85.00
C 14.87 91.88 18.56 103.89 19.00 114.00 C 19.44 124.11 21.02 135.10 27.00 142.00
C 33.41 142.40 39.61 143.60 46.00 144.00
C 49.89 159.48 51.71 178.47 44.00 193.00
C 44.75 192.46 46.45 191.79 47.00 191.00
C 52.03 176.11 50.36 158.37 48.00 143.00
C 50.01 144.02 51.26 147.60 51.00 143.00
C 52.95 144.20 52.11 147.74 54.00 149.00
C 52.37 143.58 54.92 143.48 59.00 145.00
C 59.24 145.09 60.01 144.33 60.00 144.00
C 59.94 139.99 44.50 142.79 40.67 141.33 C 36.84 139.87 27.45 141.83 24.92 136.08 C 22.39 130.32 21.79 125.34 21.00 119.00 C 20.21 112.66 20.61 105.54 20.00 99.00
C 19.04 88.72 24.30 83.54 31.00 76.00
C 34.86 71.66 39.54 65.52 42.00 62.00
C 35.57 67.21 30.36 73.73 25.00 80.00 Z"/>
</g>
<g fill="None" fill-opacity="0.0" stroke="#6F6647" stroke-opacity="1.00" stroke-width="0.3"><path d="
M 61.00 63.00 
C 59.92 62.17 59.71 61.80 58.00 62.00
C 58.89 65.53 59.30 62.24 61.00 63.00 Z"/>
</g>
<g fill="None" fill-opacity="0.0" stroke="#B5976B" stroke-opacity="1.00" stroke-width="0.3"><path d="
M 72.00 66.00 
C 72.42 65.91 73.76 65.39 74.00 65.00
C 73.37 63.54 71.77 61.79 70.00 62.00
C 69.85 62.83 71.13 65.78 72.00 66.00 Z"/>
</g>
<g fill="None" fill-opacity="0.0" stroke="#6C665B" stroke-opacity="1.00" stroke-width="0.3"><path d="
M 80.00 68.00 
C 79.99 62.60 74.65 68.05 80.00 68.00 Z"/>
</g>
<g fill="None" fill-opacity="0.0" stroke="#320F02" stroke-opacity="1.00" stroke-width="0.3"><path d="
M 102.00 73.00 
C 103.49 72.26 112.09 70.38 115.00 70.00
C 115.03 68.86 116.53 68.28 116.00 67.00
C 110.94 67.18 105.45 69.39 102.00 73.00 Z"/>
</g>
<g fill="None" fill-opacity="0.0" stroke="#C17C43" stroke-opacity="1.00" stroke-width="0.3"><path d="
M 102.00 73.00 
C 96.98 78.26 90.03 98.08 100.31 103.69 C 110.58 109.31 126.64 105.84 131.22 94.22 C 135.80 82.60 127.69 68.34 115.00 70.00
C 112.09 70.38 103.49 72.26 102.00 73.00 Z"/>
</g>
<g fill="None" fill-opacity="0.0" stroke="#B47C50" stroke-opacity="1.00" stroke-width="0.3"><path d="
M 31.00 76.00 
C 24.30 83.54 19.04 88.72 20.00 99.00
C 19.68 99.52 22.73 98.03 22.00 98.00
C 22.04 97.66 19.98 95.10 21.00 94.00
C 23.80 95.41 31.00 98.21 28.00 102.00
C 35.03 106.22 42.14 106.73 50.00 104.00
C 49.01 103.90 47.99 104.08 47.00 104.00
C 47.90 99.18 54.91 99.21 58.00 97.00
C 54.81 96.34 58.56 90.05 55.78 87.22 C 52.99 84.39 54.70 81.29 57.00 79.00
C 55.22 78.18 54.90 80.47 54.00 81.00
C 51.17 83.97 49.30 87.29 46.00 90.00
C 44.14 91.86 42.86 94.47 40.00 95.00
C 37.63 92.69 35.88 91.76 33.00 90.00
C 36.00 86.63 36.25 86.04 33.00 84.00
C 35.34 83.98 36.08 80.53 39.00 81.00
C 34.69 84.39 37.87 85.40 41.00 82.00
C 41.08 85.80 34.60 86.15 40.00 88.00
C 37.85 88.85 35.29 87.45 36.00 91.00
C 38.62 90.00 39.59 93.33 42.00 93.00
C 44.24 89.67 47.76 87.25 50.00 84.00
C 50.69 82.36 49.24 82.16 51.00 80.00
C 48.48 78.95 44.42 73.66 42.00 78.00
C 42.95 74.15 39.79 76.73 39.00 74.00
C 37.27 76.32 29.81 76.62 31.00 76.00 Z"/>
</g>
<g fill="None" fill-opacity="0.0" stroke="#855A30" stroke-opacity="1.00" stroke-width="0.3"><path d="
M 51.00 80.00 
C 49.24 82.16 50.69 82.36 50.00 84.00
C 50.51 83.26 50.55 82.89 51.00 82.00
C 51.25 80.47 53.55 79.82 53.00 78.00
C 51.85 78.02 51.57 79.30 51.00 80.00 Z"/>
</g>
<g fill="None" fill-opacity="0.0" stroke="#535045" stroke-opacity="1.00" stroke-width="0.3"><path d="
M 20.00 85.00 
C 21.10 83.46 23.63 81.60 25.00 80.00
C 23.35 81.65 21.28 82.82 20.00 85.00 Z"/>
</g>
<g fill="None" fill-opacity="0.0" stroke="#965D33" stroke-opacity="1.00" stroke-width="0.3"><path d="
M 46.00 90.00 
C 45.05 90.78 43.19 92.82 42.00 93.00
C 39.59 93.33 38.62 90.00 36.00 91.00
C 35.29 87.45 37.85 88.85 40.00 88.00
C 34.60 86.15 41.08 85.80 41.00 82.00
C 37.87 85.40 34.69 84.39 39.00 81.00
C 36.08 80.53 35.34 83.98 33.00 84.00
C 36.25 86.04 36.00 86.63 33.00 90.00
C 35.88 91.76 37.63 92.69 40.00 95.00
C 42.86 94.47 44.14 91.86 46.00 90.00 Z"/>
</g>
<g fill="None" fill-opacity="0.0" stroke="#6D3817" stroke-opacity="1.00" stroke-width="0.3"><path d="
M 51.00 82.00 
C 50.55 82.89 50.51 83.26 50.00 84.00
C 47.76 87.25 44.24 89.67 42.00 93.00
C 43.19 92.82 45.05 90.78 46.00 90.00
C 49.30 87.29 51.17 83.97 54.00 81.00
C 53.53 81.28 51.16 81.82 51.00 82.00 Z"/>
</g>
<g fill="None" fill-opacity="0.0" stroke="#301003" stroke-opacity="1.00" stroke-width="0.3"><path d="
M 22.00 98.00 
C 23.25 98.06 26.78 101.27 28.00 102.00
C 31.00 98.21 23.80 95.41 21.00 94.00
C 19.98 95.10 22.04 97.66 22.00 98.00 Z"/>
</g>
<g fill="None" fill-opacity="0.0" stroke="#311204" stroke-opacity="1.00" stroke-width="0.3"><path d="
M 50.00 104.00 
C 53.92 102.74 60.09 101.85 61.00 97.00
C 60.55 96.63 58.31 97.46 58.00 97.00
C 54.91 99.21 47.90 99.18 47.00 104.00
C 47.99 104.08 49.01 103.90 50.00 104.00 Z"/>
</g>
<g fill="None" fill-opacity="0.0" stroke="#805624" stroke-opacity="1.00" stroke-width="0.3"><path d="
M 152.00 118.00 
C 148.87 112.94 142.92 111.38 139.00 107.00
C 140.81 112.58 147.65 115.00 152.00 118.00 Z"/>
</g>
<g fill="None" fill-opacity="0.0" stroke="#2A0B02" stroke-opacity="1.00" stroke-width="0.3"><path d="
M 40.00 130.00 
C 32.27 126.84 38.40 116.00 35.00 110.00
C 32.00 115.48 36.74 125.60 31.00 129.00
C 33.88 129.95 36.83 130.23 40.00 130.00 Z"/>
</g>
<g fill="None" fill-opacity="0.0" stroke="#754917" stroke-opacity="1.00" stroke-width="0.3"><path d="
M 147.00 121.00 
C 146.49 118.19 142.65 116.61 140.00 116.00
C 141.49 118.49 144.58 119.52 147.00 121.00 Z"/>
</g>
<g fill="None" fill-opacity="0.0" stroke="#7D501C" stroke-opacity="1.00" stroke-width="0.3"><path d="
M 134.00 128.00 
C 133.58 125.67 131.93 123.33 130.00 122.00
C 130.23 124.47 131.69 126.86 134.00 128.00 Z"/>
</g>
<g fill="None" fill-opacity="0.0" stroke="#71481C" stroke-opacity="1.00" stroke-width="0.3"><path d="
M 59.00 145.00 
C 60.64 146.42 58.99 150.44 62.00 150.00
C 61.13 148.30 61.61 145.06 60.00 144.00
C 60.01 144.33 59.24 145.09 59.00 145.00 Z"/>
</g>
<g fill="None" fill-opacity="0.0" stroke="#F7EEDC" stroke-opacity="1.00" stroke-width="0.3"><path d="
M 241.00 149.00 
C 251.50 174.10 250.70 208.29 227.23 226.23 C 203.76 244.17 179.76 249.53 150.00 252.00 C 120.24 254.47 82.49 253.47 53.00 249.00
C 53.14 247.62 52.95 246.79 52.00 246.00
C 51.06 247.08 51.05 246.27 51.00 245.00
C 51.22 256.79 68.02 253.44 79.00 254.00 C 89.98 254.56 105.43 254.36 117.00 255.00 C 128.57 255.64 141.82 255.74 153.00 254.00 C 164.17 252.26 174.50 251.80 184.99 248.99 C 195.49 246.18 204.54 242.99 213.78 238.78 C 223.01 234.56 226.66 228.85 236.00 225.00
C 234.08 218.08 243.22 215.65 246.00 210.00
C 246.24 200.27 250.29 183.40 249.07 173.08 C 247.85 162.75 247.99 152.42 241.00 147.00
C 241.15 147.45 240.92 148.51 241.00 149.00 Z"/>
</g>
<g fill="None" fill-opacity="0.0" stroke="#7E4F1D" stroke-opacity="1.00" stroke-width="0.3"><path d="
M 202.00 159.00 
C 199.98 157.07 196.80 155.69 194.00 155.00
C 195.56 157.56 199.08 158.87 202.00 159.00 Z"/>
</g>
<g fill="None" fill-opacity="0.0" stroke="#865824" stroke-opacity="1.00" stroke-width="0.3"><path d="
M 201.00 171.00 
C 199.75 165.11 194.98 168.19 201.00 171.00 Z"/>
</g>
<g fill="None" fill-opacity="0.0" stroke="#5D3516" stroke-opacity="1.00" stroke-width="0.3"><path d="
M 48.00 200.00 
C 47.56 201.08 47.62 203.07 47.00 204.00
C 50.96 199.62 54.70 191.50 53.00 186.00
C 52.84 191.14 49.77 195.70 48.00 200.00 Z"/>
</g>
<g fill="None" fill-opacity="0.0" stroke="#6E471C" stroke-opacity="1.00" stroke-width="0.3"><path d="
M 201.00 192.00 
C 201.23 188.98 197.66 188.74 196.00 187.00
C 196.06 189.39 198.67 191.86 201.00 192.00 Z"/>
</g>
<g fill="None" fill-opacity="0.0" stroke="#64390C" stroke-opacity="1.00" stroke-width="0.3"><path d="
M 105.00 194.00 
C 103.80 198.31 104.92 206.27 108.00 210.00
C 107.27 204.58 105.72 199.39 105.00 194.00 Z"/>
</g>
<g fill="None" fill-opacity="0.0" stroke="#643F10" stroke-opacity="1.00" stroke-width="0.3"><path d="
M 116.00 194.00 
C 115.11 198.66 117.17 206.79 120.00 211.00
C 119.24 205.16 117.66 199.56 116.00 194.00 Z"/>
</g>
<g fill="None" fill-opacity="0.0" stroke="#533012" stroke-opacity="1.00" stroke-width="0.3"><path d="
M 50.00 216.00 
C 50.47 217.53 49.57 219.46 50.00 221.00
C 50.10 221.35 50.91 221.75 51.00 222.00
C 51.14 215.22 56.52 208.01 55.00 202.00
C 54.26 206.69 50.73 211.71 50.00 216.00 Z"/>
</g>
<g fill="None" fill-opacity="0.0" stroke="#48413E" stroke-opacity="1.00" stroke-width="0.3"><path d="
M 47.00 205.00 
C 47.00 205.00 46.24 204.75 46.00 205.00
C 45.75 206.53 43.45 207.18 44.00 209.00
C 45.73 208.39 46.85 206.74 47.00 205.00 Z"/>
</g>
<g fill="None" fill-opacity="0.0" stroke="#EDDFBC" stroke-opacity="1.00" stroke-width="0.3"><path d="
M 49.00 214.00 
C 48.76 211.28 48.90 209.20 48.00 207.00
C 48.24 209.72 48.10 211.80 49.00 214.00 Z"/>
</g>
<g fill="None" fill-opacity="0.0" stroke="#4B4031" stroke-opacity="1.00" stroke-width="0.3"><path d="
M 50.00 226.00 
C 50.37 224.61 50.68 223.37 51.00 222.00
C 50.91 221.75 50.10 221.35 50.00 221.00
C 48.81 223.77 46.77 229.13 49.00 232.00
C 48.71 229.83 49.49 227.93 50.00 226.00 Z"/>
</g>
<g fill="None" fill-opacity="0.0" stroke="#603E10" stroke-opacity="1.00" stroke-width="0.3"><path d="
M 53.00 236.00 
C 53.20 235.76 54.00 236.00 54.00 236.00
C 55.12 234.18 57.03 229.87 55.00 228.00
C 54.35 230.70 53.68 233.35 53.00 236.00 Z"/>
</g>
<g fill="None" fill-opacity="0.0" stroke="#37220F" stroke-opacity="1.00" stroke-width="0.3"><path d="
M 52.00 238.00 
C 51.66 239.55 50.95 243.66 51.00 245.00
C 51.05 246.27 51.06 247.08 52.00 246.00
C 54.05 243.67 53.28 238.83 54.00 236.00
C 54.00 236.00 53.20 235.76 53.00 236.00
C 52.85 236.58 52.04 237.81 52.00 238.00 Z"/>
</g>
<g fill="#FDFDFD" fill-opacity="1.00" stroke="None">
<path d="
M 0.00 259.00 
L 265.00 259.00
L 265.00 0.00
L 0.00 0.00
L 0.00 259.00
M 68.00 29.00 
C 67.91 29.13 70.85 28.03 71.00 28.00
C 72.89 27.66 74.77 27.82 76.00 29.00
C 76.49 28.94 77.00 29.00 77.00 29.00
C 77.50 29.00 78.00 29.00 78.00 29.00
C 78.26 28.88 78.70 28.21 79.00 28.00
C 81.12 26.50 86.19 22.56 87.00 27.00
C 88.10 27.18 88.18 29.15 88.00 30.00
C 88.44 29.83 89.50 30.03 90.00 30.00
C 95.33 29.67 100.92 30.89 106.00 32.00
C 107.41 32.31 110.06 33.91 111.00 34.00
C 112.05 33.87 112.44 33.13 113.00 33.00
C 116.62 27.62 116.99 22.46 124.69 20.69 C 132.40 18.93 136.57 23.17 139.00 30.00
C 141.80 37.89 140.12 48.39 131.00 52.00
C 136.35 70.17 144.62 80.77 152.31 98.69 C 159.99 116.62 183.63 113.28 199.07 119.93 C 214.52 126.57 228.24 136.46 241.00 147.00
C 247.99 152.42 247.85 162.75 249.07 173.08 C 250.29 183.40 246.24 200.27 246.00 210.00
C 243.22 215.65 234.08 218.08 236.00 225.00
C 226.66 228.85 223.01 234.56 213.78 238.78 C 204.54 242.99 195.49 246.18 184.99 248.99 C 174.50 251.80 164.17 252.26 153.00 254.00 C 141.82 255.74 128.57 255.64 117.00 255.00 C 105.43 254.36 89.98 254.56 79.00 254.00 C 68.02 253.44 51.22 256.79 51.00 245.00
C 50.95 243.66 51.66 239.55 52.00 238.00
C 51.81 234.62 49.90 228.93 50.00 226.00
C 49.49 227.93 48.71 229.83 49.00 232.00
C 46.77 229.13 48.81 223.77 50.00 221.00
C 49.57 219.46 50.47 217.53 50.00 216.00
C 49.80 215.37 49.10 215.11 49.00 214.00
C 48.10 211.80 48.24 209.72 48.00 207.00
C 47.93 206.25 48.14 205.11 47.00 205.00
C 46.85 206.74 45.73 208.39 44.00 209.00
C 43.45 207.18 45.75 206.53 46.00 205.00
C 46.23 204.71 46.68 204.19 47.00 204.00
C 47.62 203.07 47.56 201.08 48.00 200.00
C 48.22 197.01 46.72 194.27 47.00 191.00
C 46.45 191.79 44.75 192.46 44.00 193.00
C 51.71 178.47 49.89 159.48 46.00 144.00
C 39.61 143.60 33.41 142.40 27.00 142.00
C 21.02 135.10 19.44 124.11 19.00 114.00 C 18.56 103.89 14.87 91.88 20.00 85.00
C 21.28 82.82 23.35 81.65 25.00 80.00
C 30.36 73.73 35.57 67.21 42.00 62.00
C 42.36 61.71 43.65 60.12 44.00 60.00
C 31.39 58.32 27.23 45.04 41.00 41.00
C 40.18 38.70 39.41 35.52 42.00 34.00
C 42.94 32.18 42.94 31.14 45.00 30.00
C 46.27 29.29 48.63 30.53 50.00 30.00
C 50.17 24.66 50.36 13.90 58.01 14.01 C 65.66 14.12 64.95 24.88 68.00 29.00 Z"/>
</g>
<g fill="#251510" fill-opacity="1.00" stroke="None">
<path d="
M 45.00 30.00 
C 42.51 31.86 43.89 32.05 45.00 33.00
C 46.54 31.99 48.40 31.78 49.00 34.00
C 46.71 33.81 45.39 37.12 44.00 34.00
C 43.53 34.12 42.41 33.81 42.00 34.00
C 39.41 35.52 40.18 38.70 41.00 41.00
C 27.23 45.04 31.39 58.32 44.00 60.00
C 46.63 60.35 51.45 60.69 54.00 60.00
C 54.58 59.84 57.04 59.55 56.00 58.00
C 55.50 57.95 55.00 58.00 55.00 58.00
C 52.96 58.19 49.36 58.66 50.00 57.00
C 50.10 56.75 51.27 55.25 51.00 55.00
C 50.02 54.10 42.75 57.56 40.00 56.00
C 39.33 55.62 37.09 52.92 37.00 52.00
C 36.82 50.08 37.24 48.80 39.00 48.00
C 39.19 47.92 39.00 47.00 39.00 47.00
C 42.19 41.80 47.56 51.20 52.00 50.00
C 52.99 48.83 52.38 47.69 52.00 46.00
C 51.62 44.30 50.55 44.42 52.00 43.00
C 52.25 42.76 52.00 42.00 52.00 42.00
C 47.10 42.18 44.44 42.14 47.00 38.00
C 48.54 35.52 47.36 35.51 50.00 36.00
C 53.60 36.67 52.49 37.49 53.00 39.00
C 53.84 39.49 53.82 39.69 55.00 40.00
C 58.14 40.83 60.31 43.87 61.00 47.00
C 61.12 46.74 61.96 46.35 62.00 46.00
C 62.67 39.58 57.35 31.21 51.00 30.00
C 50.48 26.25 54.96 15.47 60.67 18.33 C 66.39 21.19 63.15 30.94 60.00 34.00
C 61.54 31.82 64.57 32.71 66.00 31.00
C 65.71 29.21 65.49 27.75 65.00 26.00
C 66.88 26.24 66.46 28.55 68.00 29.00
C 64.95 24.88 65.66 14.12 58.01 14.01 C 50.36 13.90 50.17 24.66 50.00 30.00
C 48.63 30.53 46.27 29.29 45.00 30.00
M 58.00 15.00 
C 57.83 17.28 54.65 18.48 53.00 20.00
C 53.14 17.67 55.61 15.06 58.00 15.00
M 50.00 46.00 
C 44.57 48.64 45.58 40.23 50.00 46.00 Z"/>
</g>
<g fill="#A29380" fill-opacity="1.00" stroke="None">
<path d="
M 58.00 15.00 
C 55.61 15.06 53.14 17.67 53.00 20.00
C 54.65 18.48 57.83 17.28 58.00 15.00 Z"/>
</g>
<g fill="#BA9569" fill-opacity="1.00" stroke="None">
<path d="
M 62.00 46.00 
C 62.15 46.32 63.95 47.77 64.00 48.00
C 64.58 47.05 64.68 45.13 65.00 44.00
C 66.38 39.11 66.75 35.56 66.00 31.00
C 64.57 32.71 61.54 31.82 60.00 34.00
C 63.15 30.94 66.39 21.19 60.67 18.33 C 54.96 15.47 50.48 26.25 51.00 30.00
C 57.35 31.21 62.67 39.58 62.00 46.00 Z"/>
</g>
<g fill="#594635" fill-opacity="1.00" stroke="None">
<path d="
M 113.00 33.00 
C 116.69 32.17 115.91 25.67 122.23 23.23 C 128.55 20.79 133.52 22.27 137.00 28.00
C 137.57 28.94 138.45 29.30 139.00 30.00
C 136.57 23.17 132.40 18.93 124.69 20.69 C 116.99 22.46 116.62 27.62 113.00 33.00 Z"/>
</g>
<g fill="#C4975D" fill-opacity="1.00" stroke="None">
<path d="
M 113.00 33.00 
C 112.44 33.13 112.05 33.87 111.00 34.00
C 110.06 34.11 108.95 34.03 108.00 34.00
C 103.03 33.83 93.38 33.20 90.00 30.00
C 89.50 30.03 88.44 29.83 88.00 30.00
C 87.89 30.04 86.23 31.81 86.00 32.00
C 83.08 34.43 83.30 34.21 81.00 32.00
C 79.10 30.18 78.93 31.40 81.00 29.00
C 81.35 28.59 81.67 27.28 82.00 27.00
C 80.21 27.63 80.09 27.97 79.00 28.00
C 78.70 28.21 78.26 28.88 78.00 29.00
C 80.07 30.99 66.33 45.75 72.00 45.00
C 76.13 41.75 92.72 36.84 94.77 46.23 C 96.82 55.62 90.16 59.65 83.75 66.75 C 77.34 73.86 66.98 67.58 61.00 63.00
C 59.30 62.24 58.89 65.53 58.00 62.00
C 57.51 62.06 57.00 62.00 57.00 62.00
C 56.02 62.76 53.50 61.10 54.00 60.00
C 51.45 60.69 46.63 60.35 44.00 60.00
C 43.65 60.12 42.36 61.71 42.00 62.00
C 39.54 65.52 34.86 71.66 31.00 76.00
C 29.81 76.62 37.27 76.32 39.00 74.00
C 39.79 76.73 42.95 74.15 42.00 78.00
C 44.42 73.66 48.48 78.95 51.00 80.00
C 51.57 79.30 51.85 78.02 53.00 78.00
C 53.55 79.82 51.25 80.47 51.00 82.00
C 51.16 81.82 53.53 81.28 54.00 81.00
C 54.90 80.47 55.22 78.18 57.00 79.00
C 54.70 81.29 52.99 84.39 55.78 87.22 C 58.56 90.05 54.81 96.34 58.00 97.00
C 58.31 97.46 60.55 96.63 61.00 97.00
C 60.09 101.85 53.92 102.74 50.00 104.00
C 42.14 106.73 35.03 106.22 28.00 102.00
C 26.78 101.27 23.25 98.06 22.00 98.00
C 22.73 98.03 19.68 99.52 20.00 99.00
C 20.61 105.54 20.21 112.66 21.00 119.00 C 21.79 125.34 22.39 130.32 24.92 136.08 C 27.45 141.83 36.84 139.87 40.67 141.33 C 44.50 142.79 59.94 139.99 60.00 144.00
C 61.61 145.06 61.13 148.30 62.00 150.00
C 58.99 150.44 60.64 146.42 59.00 145.00
C 54.92 143.48 52.37 143.58 54.00 149.00
C 52.11 147.74 52.95 144.20 51.00 143.00
C 51.26 147.60 50.01 144.02 48.00 143.00
C 50.36 158.37 52.03 176.11 47.00 191.00
C 46.72 194.27 48.22 197.01 48.00 200.00
C 49.77 195.70 52.84 191.14 53.00 186.00
C 54.70 191.50 50.96 199.62 47.00 204.00
C 46.68 204.19 46.23 204.71 46.00 205.00
C 46.24 204.75 47.00 205.00 47.00 205.00
C 48.14 205.11 47.93 206.25 48.00 207.00
C 48.90 209.20 48.76 211.28 49.00 214.00
C 49.10 215.11 49.80 215.37 50.00 216.00
C 50.73 211.71 54.26 206.69 55.00 202.00
C 56.52 208.01 51.14 215.22 51.00 222.00
C 50.68 223.37 50.37 224.61 50.00 226.00
C 49.90 228.93 51.81 234.62 52.00 238.00
C 52.04 237.81 52.85 236.58 53.00 236.00
C 53.68 233.35 54.35 230.70 55.00 228.00
C 57.03 229.87 55.12 234.18 54.00 236.00
C 53.28 238.83 54.05 243.67 52.00 246.00
C 52.95 246.79 53.14 247.62 53.00 249.00
C 82.49 253.47 120.24 254.47 150.00 252.00 C 179.76 249.53 203.76 244.17 227.23 226.23 C 250.70 208.29 251.50 174.10 241.00 149.00
C 235.75 149.26 231.42 139.87 225.92 138.08 C 220.41 136.30 215.14 130.34 209.30 127.70 C 203.47 125.05 196.85 121.71 190.32 119.68 C 183.79 117.65 175.12 115.25 168.00 115.00 C 160.88 114.75 157.32 108.83 153.25 103.75 C 149.18 98.68 147.33 91.87 143.75 86.25 C 140.16 80.64 138.46 73.78 135.07 67.93 C 131.69 62.07 130.31 56.60 128.00 52.00
C 134.73 48.77 142.07 40.39 138.22 32.78 C 134.37 25.17 123.92 26.24 119.00 32.00
C 118.09 33.16 117.90 34.53 118.00 36.00
C 116.06 36.88 115.15 33.39 117.00 33.00
C 119.20 25.84 131.26 23.05 137.00 28.00
C 133.52 22.27 128.55 20.79 122.23 23.23 C 115.91 25.67 116.69 32.17 113.00 33.00
M 128.00 29.00 
C 126.28 30.97 125.63 33.95 123.00 35.00
C 123.74 32.72 125.06 29.05 128.00 29.00
M 126.00 35.00 
C 125.60 37.30 125.54 40.37 124.00 42.00
C 123.91 39.55 123.77 36.39 126.00 35.00
M 115.00 70.00 
C 127.69 68.34 135.80 82.60 131.22 94.22 C 126.64 105.84 110.58 109.31 100.31 103.69 C 90.03 98.08 96.98 78.26 102.00 73.00
C 105.45 69.39 110.94 67.18 116.00 67.00
C 116.53 68.28 115.03 68.86 115.00 70.00
M 152.00 118.00 
C 147.65 115.00 140.81 112.58 139.00 107.00
C 142.92 111.38 148.87 112.94 152.00 118.00
M 40.00 130.00 
C 36.83 130.23 33.88 129.95 31.00 129.00
C 36.74 125.60 32.00 115.48 35.00 110.00
C 38.40 116.00 32.27 126.84 40.00 130.00
M 147.00 121.00 
C 144.58 119.52 141.49 118.49 140.00 116.00
C 142.65 116.61 146.49 118.19 147.00 121.00
M 134.00 128.00 
C 131.69 126.86 130.23 124.47 130.00 122.00
C 131.93 123.33 133.58 125.67 134.00 128.00
M 202.00 159.00 
C 199.08 158.87 195.56 157.56 194.00 155.00
C 196.80 155.69 199.98 157.07 202.00 159.00
M 201.00 171.00 
C 194.98 168.19 199.75 165.11 201.00 171.00
M 201.00 192.00 
C 198.67 191.86 196.06 189.39 196.00 187.00
C 197.66 188.74 201.23 188.98 201.00 192.00
M 105.00 194.00 
C 105.72 199.39 107.27 204.58 108.00 210.00
C 104.92 206.27 103.80 198.31 105.00 194.00
M 116.00 194.00 
C 117.66 199.56 119.24 205.16 120.00 211.00
C 117.17 206.79 115.11 198.66 116.00 194.00 Z"/>
</g>
<g fill="#212325" fill-opacity="1.00" stroke="None">
<path d="
M 79.00 28.00 
C 80.09 27.97 80.21 27.63 82.00 27.00
C 83.66 26.42 84.77 25.82 86.00 27.00
C 86.26 27.25 87.00 27.00 87.00 27.00
C 86.19 22.56 81.12 26.50 79.00 28.00 Z"/>
</g>
<g fill="#604329" fill-opacity="1.00" stroke="None">
<path d="
M 66.00 31.00 
C 66.75 35.56 66.38 39.11 65.00 44.00
C 65.00 44.16 65.99 44.66 66.00 45.00
C 67.07 40.73 69.61 34.10 68.00 29.00
C 66.46 28.55 66.88 26.24 65.00 26.00
C 65.49 27.75 65.71 29.21 66.00 31.00 Z"/>
</g>
<g fill="#F0EEEB" fill-opacity="1.00" stroke="None">
<path d="
M 82.00 27.00 
C 81.67 27.28 81.35 28.59 81.00 29.00
C 81.09 29.14 85.84 29.18 86.00 29.00
C 85.86 28.54 85.77 27.16 86.00 27.00
C 84.77 25.82 83.66 26.42 82.00 27.00 Z"/>
</g>
<g fill="#362113" fill-opacity="1.00" stroke="None">
<path d="
M 117.00 33.00 
C 117.42 32.47 118.57 32.40 119.00 32.00
C 123.92 26.24 134.37 25.17 138.22 32.78 C 142.07 40.39 134.73 48.77 128.00 52.00
C 130.31 56.60 131.69 62.07 135.07 67.93 C 138.46 73.78 140.16 80.64 143.75 86.25 C 147.33 91.87 149.18 98.68 153.25 103.75 C 157.32 108.83 160.88 114.75 168.00 115.00 C 175.12 115.25 183.79 117.65 190.32 119.68 C 196.85 121.71 203.47 125.05 209.30 127.70 C 215.14 130.34 220.41 136.30 225.92 138.08 C 231.42 139.87 235.75 149.26 241.00 149.00
C 240.92 148.51 241.15 147.45 241.00 147.00
C 228.24 136.46 214.52 126.57 199.07 119.93 C 183.63 113.28 159.99 116.62 152.31 98.69 C 144.62 80.77 136.35 70.17 131.00 52.00
C 140.12 48.39 141.80 37.89 139.00 30.00
C 138.45 29.30 137.57 28.94 137.00 28.00
C 131.26 23.05 119.20 25.84 117.00 33.00 Z"/>
</g>
<g fill="#6B6259" fill-opacity="1.00" stroke="None">
<path d="
M 86.00 29.00 
C 86.38 30.26 87.07 30.31 86.00 32.00
C 86.23 31.81 87.89 30.04 88.00 30.00
C 88.18 29.15 88.10 27.18 87.00 27.00
C 87.00 27.00 86.26 27.25 86.00 27.00
C 85.77 27.16 85.86 28.54 86.00 29.00 Z"/>
</g>
<g fill="#B9986B" fill-opacity="1.00" stroke="None">
<path d="
M 68.00 29.00 
C 69.61 34.10 67.07 40.73 66.00 45.00
C 65.48 47.07 65.18 47.39 66.00 49.00
C 65.90 43.26 75.05 34.46 77.00 29.00
C 77.00 29.00 76.49 28.94 76.00 29.00
C 74.35 29.20 71.73 27.95 71.00 28.00
C 70.85 28.03 67.91 29.13 68.00 29.00 Z"/>
</g>
<g fill="#2F1E06" fill-opacity="1.00" stroke="None">
<path d="
M 76.00 29.00 
C 74.77 27.82 72.89 27.66 71.00 28.00
C 71.73 27.95 74.35 29.20 76.00 29.00 Z"/>
</g>
<g fill="#471F0A" fill-opacity="1.00" stroke="None">
<path d="
M 66.00 49.00 
C 66.08 49.16 66.99 50.99 67.00 51.00
C 67.18 51.07 75.25 52.11 71.00 54.00
C 69.38 54.72 66.53 53.14 65.00 54.00
C 64.97 54.19 64.09 55.93 64.00 56.00
C 65.08 57.33 71.53 57.80 67.00 59.00
C 65.54 59.39 62.63 56.45 63.00 60.00
C 65.38 59.84 69.78 62.99 68.00 65.00
C 68.71 65.30 70.91 66.22 72.00 66.00
C 71.13 65.78 69.85 62.83 70.00 62.00
C 71.77 61.79 73.37 63.54 74.00 65.00
C 74.14 64.78 75.51 65.08 76.00 65.00
C 76.23 63.08 71.95 61.94 72.00 60.00
C 74.86 59.65 77.39 60.27 80.00 61.00
C 80.60 59.90 81.56 59.15 82.00 58.00
C 80.47 58.80 78.32 57.54 77.00 57.00
C 77.53 55.40 79.75 56.28 81.00 56.00
C 82.25 55.75 82.49 56.04 84.00 56.00
C 82.08 55.69 79.54 51.04 80.00 49.00
C 83.46 48.95 85.28 52.50 88.00 54.00
C 88.36 53.44 88.95 52.69 89.00 52.00
C 88.81 51.47 82.86 47.42 82.00 47.00
C 81.60 46.80 81.00 47.00 81.00 47.00
C 77.18 49.41 70.92 51.45 67.00 49.00
C 69.11 48.60 71.66 47.62 73.00 46.00
C 72.65 45.94 72.12 44.98 72.00 45.00
C 66.33 45.75 80.07 30.99 78.00 29.00
C 78.00 29.00 77.50 29.00 77.00 29.00
C 75.05 34.46 65.90 43.26 66.00 49.00
M 73.00 55.00 
C 73.58 45.76 83.76 56.56 73.00 55.00
M 75.00 58.00 
C 73.85 59.03 70.69 57.76 69.00 57.00
C 70.28 54.95 74.00 56.35 75.00 58.00 Z"/>
</g>
<g fill="#B9A899" fill-opacity="1.00" stroke="None">
<path d="
M 81.00 32.00 
C 81.10 30.57 85.86 28.93 86.00 29.00
C 85.84 29.18 81.09 29.14 81.00 29.00
C 78.93 31.40 79.10 30.18 81.00 32.00 Z"/>
</g>
<g fill="#291407" fill-opacity="1.00" stroke="None">
<path d="
M 81.00 32.00 
C 83.30 34.21 83.08 34.43 86.00 32.00
C 87.07 30.31 86.38 30.26 86.00 29.00
C 85.86 28.93 81.10 30.57 81.00 32.00 Z"/>
</g>
<g fill="#725023" fill-opacity="1.00" stroke="None">
<path d="
M 128.00 29.00 
C 125.06 29.05 123.74 32.72 123.00 35.00
C 125.63 33.95 126.28 30.97 128.00 29.00 Z"/>
</g>
<g fill="#3C463E" fill-opacity="1.00" stroke="None">
<path d="
M 42.00 34.00 
C 42.41 33.81 43.53 34.12 44.00 34.00
C 44.35 33.91 44.73 33.18 45.00 33.00
C 43.89 32.05 42.51 31.86 45.00 30.00
C 42.94 31.14 42.94 32.18 42.00 34.00 Z"/>
</g>
<g fill="#341F15" fill-opacity="1.00" stroke="None">
<path d="
M 108.00 34.00 
C 107.49 33.86 106.44 32.19 106.00 32.00
C 100.92 30.89 95.33 29.67 90.00 30.00
C 93.38 33.20 103.03 33.83 108.00 34.00 Z"/>
</g>
<g fill="#86828E" fill-opacity="1.00" stroke="None">
<path d="
M 45.00 33.00 
C 44.73 33.18 44.35 33.91 44.00 34.00
C 45.39 37.12 46.71 33.81 49.00 34.00
C 48.40 31.78 46.54 31.99 45.00 33.00 Z"/>
</g>
<g fill="#77635B" fill-opacity="1.00" stroke="None">
<path d="
M 108.00 34.00 
C 108.95 34.03 110.06 34.11 111.00 34.00
C 110.06 33.91 107.41 32.31 106.00 32.00
C 106.44 32.19 107.49 33.86 108.00 34.00 Z"/>
</g>
<g fill="#755327" fill-opacity="1.00" stroke="None">
<path d="
M 117.00 33.00 
C 115.15 33.39 116.06 36.88 118.00 36.00
C 117.90 34.53 118.09 33.16 119.00 32.00
C 118.57 32.40 117.42 32.47 117.00 33.00 Z"/>
</g>
<g fill="#431A09" fill-opacity="1.00" stroke="None">
<path d="
M 47.00 38.00 
C 49.07 37.45 53.44 40.12 52.00 42.00
C 52.00 42.00 52.25 42.76 52.00 43.00
C 53.51 43.39 55.43 43.76 55.00 46.00
C 54.00 46.00 53.00 46.00 52.00 46.00
C 52.38 47.69 52.99 48.83 52.00 50.00
C 50.01 52.35 43.01 48.34 39.00 47.00
C 39.00 47.00 39.19 47.92 39.00 48.00
C 40.87 50.11 44.82 49.41 47.00 51.00
C 47.73 51.54 48.95 51.87 49.00 53.00
C 47.33 53.00 45.67 53.00 44.00 53.00
C 42.59 53.06 37.78 53.63 37.00 52.00
C 37.09 52.92 39.33 55.62 40.00 56.00
C 39.51 52.90 50.41 53.12 51.00 55.00
C 51.27 55.25 50.10 56.75 50.00 57.00
C 50.61 57.39 57.56 53.76 55.00 58.00
C 55.00 58.00 55.50 57.95 56.00 58.00
C 56.35 58.03 56.89 58.65 57.00 59.00
C 57.10 57.18 58.76 55.54 59.00 55.00
C 56.96 55.11 52.95 54.47 53.00 52.00
C 55.47 51.32 57.18 52.78 59.00 54.00
C 58.81 53.47 58.23 51.28 58.00 51.00
C 56.28 50.31 54.06 49.66 53.00 48.00
C 55.54 46.87 57.93 46.88 60.00 49.00
C 60.04 48.78 60.97 48.35 61.00 48.00
C 56.53 45.48 57.48 43.28 55.00 40.00
C 53.82 39.69 53.84 39.49 53.00 39.00
C 52.82 38.89 48.06 35.44 50.00 36.00
C 47.36 35.51 48.54 35.52 47.00 38.00 Z"/>
</g>
<g fill="#714B1C" fill-opacity="1.00" stroke="None">
<path d="
M 126.00 35.00 
C 123.77 36.39 123.91 39.55 124.00 42.00
C 125.54 40.37 125.60 37.30 126.00 35.00 Z"/>
</g>
<g fill="#AA8B61" fill-opacity="1.00" stroke="None">
<path d="
M 53.00 39.00 
C 52.49 37.49 53.60 36.67 50.00 36.00
C 48.06 35.44 52.82 38.89 53.00 39.00 Z"/>
</g>
<g fill="#B7905C" fill-opacity="1.00" stroke="None">
<path d="
M 52.00 42.00 
C 53.44 40.12 49.07 37.45 47.00 38.00
C 44.44 42.14 47.10 42.18 52.00 42.00 Z"/>
</g>
<g fill="#B78D55" fill-opacity="1.00" stroke="None">
<path d="
M 61.00 48.00 
C 61.05 47.50 61.00 47.00 61.00 47.00
C 60.31 43.87 58.14 40.83 55.00 40.00
C 57.48 43.28 56.53 45.48 61.00 48.00 Z"/>
</g>
<g fill="#220F06" fill-opacity="1.00" stroke="None">
<path d="
M 72.00 45.00 
C 72.12 44.98 72.65 45.94 73.00 46.00
C 76.13 46.57 79.32 43.68 81.00 47.00
C 81.00 47.00 81.60 46.80 82.00 47.00
C 84.34 45.18 89.22 48.81 89.00 52.00
C 88.95 52.69 88.36 53.44 88.00 54.00
C 86.82 55.81 86.20 55.94 84.00 56.00
C 82.49 56.04 82.25 55.75 81.00 56.00
C 82.87 56.63 82.35 57.10 82.00 58.00
C 81.56 59.15 80.60 59.90 80.00 61.00
C 79.35 62.19 79.23 64.48 76.00 65.00
C 75.51 65.08 74.14 64.78 74.00 65.00
C 73.76 65.39 72.42 65.91 72.00 66.00
C 70.91 66.22 68.71 65.30 68.00 65.00
C 62.76 62.80 59.74 59.57 64.00 56.00
C 64.09 55.93 64.97 54.19 65.00 54.00
C 65.09 53.52 64.82 52.42 65.00 52.00
C 65.43 51.00 66.00 51.14 67.00 51.00
C 66.99 50.99 66.08 49.16 66.00 49.00
C 65.18 47.39 65.48 47.07 66.00 45.00
C 65.99 44.66 65.00 44.16 65.00 44.00
C 64.68 45.13 64.58 47.05 64.00 48.00
C 64.04 47.94 61.35 49.83 61.00 50.00
C 61.69 51.03 61.14 51.34 61.00 53.00
C 59.75 52.70 59.29 51.17 58.00 51.00
C 58.23 51.28 58.81 53.47 59.00 54.00
C 59.16 54.44 59.00 55.00 59.00 55.00
C 58.76 55.54 57.10 57.18 57.00 59.00
C 57.16 59.53 56.62 61.64 57.00 62.00
C 57.00 62.00 57.51 62.06 58.00 62.00
C 59.71 61.80 59.92 62.17 61.00 63.00
C 66.98 67.58 77.34 73.86 83.75 66.75 C 90.16 59.65 96.82 55.62 94.77 46.23 C 92.72 36.84 76.13 41.75 72.00 45.00
M 89.00 44.00 
C 88.34 47.13 83.39 46.15 84.00 43.00
C 86.28 43.32 86.26 45.45 89.00 44.00
M 93.00 46.00 
C 92.75 51.59 87.38 46.31 93.00 46.00
M 80.00 68.00 
C 74.65 68.05 79.99 62.60 80.00 68.00 Z"/>
</g>
<g fill="#B38973" fill-opacity="1.00" stroke="None">
<path d="
M 52.00 46.00 
C 53.00 46.00 54.00 46.00 55.00 46.00
C 55.43 43.76 53.51 43.39 52.00 43.00
C 50.55 44.42 51.62 44.30 52.00 46.00 Z"/>
</g>
<g fill="#978D7E" fill-opacity="1.00" stroke="None">
<path d="
M 89.00 44.00 
C 86.26 45.45 86.28 43.32 84.00 43.00
C 83.39 46.15 88.34 47.13 89.00 44.00 Z"/>
</g>
<g fill="#96816E" fill-opacity="1.00" stroke="None">
<path d="
M 50.00 46.00 
C 45.58 40.23 44.57 48.64 50.00 46.00 Z"/>
</g>
<g fill="#B58E62" fill-opacity="1.00" stroke="None">
<path d="
M 39.00 47.00 
C 43.01 48.34 50.01 52.35 52.00 50.00
C 47.56 51.20 42.19 41.80 39.00 47.00 Z"/>
</g>
<g fill="#C99154" fill-opacity="1.00" stroke="None">
<path d="
M 73.00 46.00 
C 71.66 47.62 69.11 48.60 67.00 49.00
C 70.92 51.45 77.18 49.41 81.00 47.00
C 79.32 43.68 76.13 46.57 73.00 46.00 Z"/>
</g>
<g fill="#6D432B" fill-opacity="1.00" stroke="None">
<path d="
M 61.00 47.00 
C 61.00 47.00 61.05 47.50 61.00 48.00
C 60.97 48.35 60.04 48.78 60.00 49.00
C 60.24 49.28 60.82 49.73 61.00 50.00
C 61.35 49.83 64.04 47.94 64.00 48.00
C 63.95 47.77 62.15 46.32 62.00 46.00
C 61.96 46.35 61.12 46.74 61.00 47.00 Z"/>
</g>
<g fill="#C19672" fill-opacity="1.00" stroke="None">
<path d="
M 82.00 47.00 
C 82.86 47.42 88.81 51.47 89.00 52.00
C 89.22 48.81 84.34 45.18 82.00 47.00 Z"/>
</g>
<g fill="#847D7D" fill-opacity="1.00" stroke="None">
<path d="
M 93.00 46.00 
C 87.38 46.31 92.75 51.59 93.00 46.00 Z"/>
</g>
<g fill="#BE9259" fill-opacity="1.00" stroke="None">
<path d="
M 58.00 51.00 
C 59.29 51.17 59.75 52.70 61.00 53.00
C 61.14 51.34 61.69 51.03 61.00 50.00
C 60.82 49.73 60.24 49.28 60.00 49.00
C 57.93 46.88 55.54 46.87 53.00 48.00
C 54.06 49.66 56.28 50.31 58.00 51.00 Z"/>
</g>
<g fill="#C89453" fill-opacity="1.00" stroke="None">
<path d="
M 37.00 52.00 
C 37.78 53.63 42.59 53.06 44.00 53.00
C 44.60 52.86 46.59 51.73 47.00 51.00
C 44.82 49.41 40.87 50.11 39.00 48.00
C 37.24 48.80 36.82 50.08 37.00 52.00 Z"/>
</g>
<g fill="#C89659" fill-opacity="1.00" stroke="None">
<path d="
M 84.00 56.00 
C 86.20 55.94 86.82 55.81 88.00 54.00
C 85.28 52.50 83.46 48.95 80.00 49.00
C 79.54 51.04 82.08 55.69 84.00 56.00 Z"/>
</g>
<g fill="#AC6C60" fill-opacity="1.00" stroke="None">
<path d="
M 44.00 53.00 
C 45.67 53.00 47.33 53.00 49.00 53.00
C 48.95 51.87 47.73 51.54 47.00 51.00
C 46.59 51.73 44.60 52.86 44.00 53.00 Z"/>
</g>
<g fill="#6F4B20" fill-opacity="1.00" stroke="None">
<path d="
M 65.00 52.00 
C 66.35 51.27 71.68 51.47 71.00 54.00
C 75.25 52.11 67.18 51.07 67.00 51.00
C 66.00 51.14 65.43 51.00 65.00 52.00 Z"/>
</g>
<g fill="#BB9058" fill-opacity="1.00" stroke="None">
<path d="
M 73.00 55.00 
C 83.76 56.56 73.58 45.76 73.00 55.00 Z"/>
</g>
<g fill="#B18761" fill-opacity="1.00" stroke="None">
<path d="
M 59.00 55.00 
C 59.00 55.00 59.16 54.44 59.00 54.00
C 57.18 52.78 55.47 51.32 53.00 52.00
C 52.95 54.47 56.96 55.11 59.00 55.00 Z"/>
</g>
<g fill="#D69C60" fill-opacity="1.00" stroke="None">
<path d="
M 65.00 54.00 
C 66.53 53.14 69.38 54.72 71.00 54.00
C 71.68 51.47 66.35 51.27 65.00 52.00
C 64.82 52.42 65.09 53.52 65.00 54.00 Z"/>
</g>
<g fill="#B89049" fill-opacity="1.00" stroke="None">
<path d="
M 40.00 56.00 
C 42.75 57.56 50.02 54.10 51.00 55.00
C 50.41 53.12 39.51 52.90 40.00 56.00 Z"/>
</g>
<g fill="#B5976E" fill-opacity="1.00" stroke="None">
<path d="
M 50.00 57.00 
C 49.36 58.66 52.96 58.19 55.00 58.00
C 57.56 53.76 50.61 57.39 50.00 57.00 Z"/>
</g>
<g fill="#BE9567" fill-opacity="1.00" stroke="None">
<path d="
M 68.00 65.00 
C 69.78 62.99 65.38 59.84 63.00 60.00
C 62.63 56.45 65.54 59.39 67.00 59.00
C 68.17 59.43 65.04 55.89 64.00 56.00
C 59.74 59.57 62.76 62.80 68.00 65.00 Z"/>
</g>
<g fill="#885F31" fill-opacity="1.00" stroke="None">
<path d="
M 67.00 59.00 
C 71.53 57.80 65.08 57.33 64.00 56.00
C 65.04 55.89 68.17 59.43 67.00 59.00 Z"/>
</g>
<g fill="#BF8D6A" fill-opacity="1.00" stroke="None">
<path d="
M 75.00 58.00 
C 74.00 56.35 70.28 54.95 69.00 57.00
C 70.69 57.76 73.85 59.03 75.00 58.00 Z"/>
</g>
<g fill="#B79A64" fill-opacity="1.00" stroke="None">
<path d="
M 82.00 58.00 
C 82.35 57.10 82.87 56.63 81.00 56.00
C 79.75 56.28 77.53 55.40 77.00 57.00
C 78.32 57.54 80.47 58.80 82.00 58.00 Z"/>
</g>
<g fill="#463319" fill-opacity="1.00" stroke="None">
<path d="
M 54.00 60.00 
C 53.50 61.10 56.02 62.76 57.00 62.00
C 56.62 61.64 57.16 59.53 57.00 59.00
C 56.89 58.65 56.35 58.03 56.00 58.00
C 57.04 59.55 54.58 59.84 54.00 60.00 Z"/>
</g>
<g fill="#C5935A" fill-opacity="1.00" stroke="None">
<path d="
M 76.00 65.00 
C 79.23 64.48 79.35 62.19 80.00 61.00
C 77.39 60.27 74.86 59.65 72.00 60.00
C 71.95 61.94 76.23 63.08 76.00 65.00 Z"/>
</g>
<g fill="#3A2718" fill-opacity="1.00" stroke="None">
<path d="
M 25.00 80.00 
C 23.63 81.60 21.10 83.46 20.00 85.00
C 14.87 91.88 18.56 103.89 19.00 114.00 C 19.44 124.11 21.02 135.10 27.00 142.00
C 33.41 142.40 39.61 143.60 46.00 144.00
C 49.89 159.48 51.71 178.47 44.00 193.00
C 44.75 192.46 46.45 191.79 47.00 191.00
C 52.03 176.11 50.36 158.37 48.00 143.00
C 50.01 144.02 51.26 147.60 51.00 143.00
C 52.95 144.20 52.11 147.74 54.00 149.00
C 52.37 143.58 54.92 143.48 59.00 145.00
C 59.24 145.09 60.01 144.33 60.00 144.00
C 59.94 139.99 44.50 142.79 40.67 141.33 C 36.84 139.87 27.45 141.83 24.92 136.08 C 22.39 130.32 21.79 125.34 21.00 119.00 C 20.21 112.66 20.61 105.54 20.00 99.00
C 19.04 88.72 24.30 83.54 31.00 76.00
C 34.86 71.66 39.54 65.52 42.00 62.00
C 35.57 67.21 30.36 73.73 25.00 80.00 Z"/>
</g>
<g fill="#6F6647" fill-opacity="1.00" stroke="None">
<path d="
M 61.00 63.00 
C 59.92 62.17 59.71 61.80 58.00 62.00
C 58.89 65.53 59.30 62.24 61.00 63.00 Z"/>
</g>
<g fill="#B5976B" fill-opacity="1.00" stroke="None">
<path d="
M 72.00 66.00 
C 72.42 65.91 73.76 65.39 74.00 65.00
C 73.37 63.54 71.77 61.79 70.00 62.00
C 69.85 62.83 71.13 65.78 72.00 66.00 Z"/>
</g>
<g fill="#6C665B" fill-opacity="1.00" stroke="None">
<path d="
M 80.00 68.00 
C 79.99 62.60 74.65 68.05 80.00 68.00 Z"/>
</g>
<g fill="#320F02" fill-opacity="1.00" stroke="None">
<path d="
M 102.00 73.00 
C 103.49 72.26 112.09 70.38 115.00 70.00
C 115.03 68.86 116.53 68.28 116.00 67.00
C 110.94 67.18 105.45 69.39 102.00 73.00 Z"/>
</g>
<g fill="#C17C43" fill-opacity="1.00" stroke="None">
<path d="
M 102.00 73.00 
C 96.98 78.26 90.03 98.08 100.31 103.69 C 110.58 109.31 126.64 105.84 131.22 94.22 C 135.80 82.60 127.69 68.34 115.00 70.00
C 112.09 70.38 103.49 72.26 102.00 73.00 Z"/>
</g>
<g fill="#B47C50" fill-opacity="1.00" stroke="None">
<path d="
M 31.00 76.00 
C 24.30 83.54 19.04 88.72 20.00 99.00
C 19.68 99.52 22.73 98.03 22.00 98.00
C 22.04 97.66 19.98 95.10 21.00 94.00
C 23.80 95.41 31.00 98.21 28.00 102.00
C 35.03 106.22 42.14 106.73 50.00 104.00
C 49.01 103.90 47.99 104.08 47.00 104.00
C 47.90 99.18 54.91 99.21 58.00 97.00
C 54.81 96.34 58.56 90.05 55.78 87.22 C 52.99 84.39 54.70 81.29 57.00 79.00
C 55.22 78.18 54.90 80.47 54.00 81.00
C 51.17 83.97 49.30 87.29 46.00 90.00
C 44.14 91.86 42.86 94.47 40.00 95.00
C 37.63 92.69 35.88 91.76 33.00 90.00
C 36.00 86.63 36.25 86.04 33.00 84.00
C 35.34 83.98 36.08 80.53 39.00 81.00
C 34.69 84.39 37.87 85.40 41.00 82.00
C 41.08 85.80 34.60 86.15 40.00 88.00
C 37.85 88.85 35.29 87.45 36.00 91.00
C 38.62 90.00 39.59 93.33 42.00 93.00
C 44.24 89.67 47.76 87.25 50.00 84.00
C 50.69 82.36 49.24 82.16 51.00 80.00
C 48.48 78.95 44.42 73.66 42.00 78.00
C 42.95 74.15 39.79 76.73 39.00 74.00
C 37.27 76.32 29.81 76.62 31.00 76.00 Z"/>
</g>
<g fill="#855A30" fill-opacity="1.00" stroke="None">
<path d="
M 51.00 80.00 
C 49.24 82.16 50.69 82.36 50.00 84.00
C 50.51 83.26 50.55 82.89 51.00 82.00
C 51.25 80.47 53.55 79.82 53.00 78.00
C 51.85 78.02 51.57 79.30 51.00 80.00 Z"/>
</g>
<g fill="#535045" fill-opacity="1.00" stroke="None">
<path d="
M 20.00 85.00 
C 21.10 83.46 23.63 81.60 25.00 80.00
C 23.35 81.65 21.28 82.82 20.00 85.00 Z"/>
</g>
<g fill="#965D33" fill-opacity="1.00" stroke="None">
<path d="
M 46.00 90.00 
C 45.05 90.78 43.19 92.82 42.00 93.00
C 39.59 93.33 38.62 90.00 36.00 91.00
C 35.29 87.45 37.85 88.85 40.00 88.00
C 34.60 86.15 41.08 85.80 41.00 82.00
C 37.87 85.40 34.69 84.39 39.00 81.00
C 36.08 80.53 35.34 83.98 33.00 84.00
C 36.25 86.04 36.00 86.63 33.00 90.00
C 35.88 91.76 37.63 92.69 40.00 95.00
C 42.86 94.47 44.14 91.86 46.00 90.00 Z"/>
</g>
<g fill="#6D3817" fill-opacity="1.00" stroke="None">
<path d="
M 51.00 82.00 
C 50.55 82.89 50.51 83.26 50.00 84.00
C 47.76 87.25 44.24 89.67 42.00 93.00
C 43.19 92.82 45.05 90.78 46.00 90.00
C 49.30 87.29 51.17 83.97 54.00 81.00
C 53.53 81.28 51.16 81.82 51.00 82.00 Z"/>
</g>
<g fill="#301003" fill-opacity="1.00" stroke="None">
<path d="
M 22.00 98.00 
C 23.25 98.06 26.78 101.27 28.00 102.00
C 31.00 98.21 23.80 95.41 21.00 94.00
C 19.98 95.10 22.04 97.66 22.00 98.00 Z"/>
</g>
<g fill="#311204" fill-opacity="1.00" stroke="None">
<path d="
M 50.00 104.00 
C 53.92 102.74 60.09 101.85 61.00 97.00
C 60.55 96.63 58.31 97.46 58.00 97.00
C 54.91 99.21 47.90 99.18 47.00 104.00
C 47.99 104.08 49.01 103.90 50.00 104.00 Z"/>
</g>
<g fill="#805624" fill-opacity="1.00" stroke="None">
<path d="
M 152.00 118.00 
C 148.87 112.94 142.92 111.38 139.00 107.00
C 140.81 112.58 147.65 115.00 152.00 118.00 Z"/>
</g>
<g fill="#2A0B02" fill-opacity="1.00" stroke="None">
<path d="
M 40.00 130.00 
C 32.27 126.84 38.40 116.00 35.00 110.00
C 32.00 115.48 36.74 125.60 31.00 129.00
C 33.88 129.95 36.83 130.23 40.00 130.00 Z"/>
</g>
<g fill="#754917" fill-opacity="1.00" stroke="None">
<path d="
M 147.00 121.00 
C 146.49 118.19 142.65 116.61 140.00 116.00
C 141.49 118.49 144.58 119.52 147.00 121.00 Z"/>
</g>
<g fill="#7D501C" fill-opacity="1.00" stroke="None">
<path d="
M 134.00 128.00 
C 133.58 125.67 131.93 123.33 130.00 122.00
C 130.23 124.47 131.69 126.86 134.00 128.00 Z"/>
</g>
<g fill="#71481C" fill-opacity="1.00" stroke="None">
<path d="
M 59.00 145.00 
C 60.64 146.42 58.99 150.44 62.00 150.00
C 61.13 148.30 61.61 145.06 60.00 144.00
C 60.01 144.33 59.24 145.09 59.00 145.00 Z"/>
</g>
<g fill="#F7EEDC" fill-opacity="1.00" stroke="None">
<path d="
M 241.00 149.00 
C 251.50 174.10 250.70 208.29 227.23 226.23 C 203.76 244.17 179.76 249.53 150.00 252.00 C 120.24 254.47 82.49 253.47 53.00 249.00
C 53.14 247.62 52.95 246.79 52.00 246.00
C 51.06 247.08 51.05 246.27 51.00 245.00
C 51.22 256.79 68.02 253.44 79.00 254.00 C 89.98 254.56 105.43 254.36 117.00 255.00 C 128.57 255.64 141.82 255.74 153.00 254.00 C 164.17 252.26 174.50 251.80 184.99 248.99 C 195.49 246.18 204.54 242.99 213.78 238.78 C 223.01 234.56 226.66 228.85 236.00 225.00
C 234.08 218.08 243.22 215.65 246.00 210.00
C 246.24 200.27 250.29 183.40 249.07 173.08 C 247.85 162.75 247.99 152.42 241.00 147.00
C 241.15 147.45 240.92 148.51 241.00 149.00 Z"/>
</g>
<g fill="#7E4F1D" fill-opacity="1.00" stroke="None">
<path d="
M 202.00 159.00 
C 199.98 157.07 196.80 155.69 194.00 155.00
C 195.56 157.56 199.08 158.87 202.00 159.00 Z"/>
</g>
<g fill="#865824" fill-opacity="1.00" stroke="None">
<path d="
M 201.00 171.00 
C 199.75 165.11 194.98 168.19 201.00 171.00 Z"/>
</g>
<g fill="#5D3516" fill-opacity="1.00" stroke="None">
<path d="
M 48.00 200.00 
C 47.56 201.08 47.62 203.07 47.00 204.00
C 50.96 199.62 54.70 191.50 53.00 186.00
C 52.84 191.14 49.77 195.70 48.00 200.00 Z"/>
</g>
<g fill="#6E471C" fill-opacity="1.00" stroke="None">
<path d="
M 201.00 192.00 
C 201.23 188.98 197.66 188.74 196.00 187.00
C 196.06 189.39 198.67 191.86 201.00 192.00 Z"/>
</g>
<g fill="#64390C" fill-opacity="1.00" stroke="None">
<path d="
M 105.00 194.00 
C 103.80 198.31 104.92 206.27 108.00 210.00
C 107.27 204.58 105.72 199.39 105.00 194.00 Z"/>
</g>
<g fill="#643F10" fill-opacity="1.00" stroke="None">
<path d="
M 116.00 194.00 
C 115.11 198.66 117.17 206.79 120.00 211.00
C 119.24 205.16 117.66 199.56 116.00 194.00 Z"/>
</g>
<g fill="#533012" fill-opacity="1.00" stroke="None">
<path d="
M 50.00 216.00 
C 50.47 217.53 49.57 219.46 50.00 221.00
C 50.10 221.35 50.91 221.75 51.00 222.00
C 51.14 215.22 56.52 208.01 55.00 202.00
C 54.26 206.69 50.73 211.71 50.00 216.00 Z"/>
</g>
<g fill="#48413E" fill-opacity="1.00" stroke="None">
<path d="
M 47.00 205.00 
C 47.00 205.00 46.24 204.75 46.00 205.00
C 45.75 206.53 43.45 207.18 44.00 209.00
C 45.73 208.39 46.85 206.74 47.00 205.00 Z"/>
</g>
<g fill="#EDDFBC" fill-opacity="1.00" stroke="None">
<path d="
M 49.00 214.00 
C 48.76 211.28 48.90 209.20 48.00 207.00
C 48.24 209.72 48.10 211.80 49.00 214.00 Z"/>
</g>
<g fill="#4B4031" fill-opacity="1.00" stroke="None">
<path d="
M 50.00 226.00 
C 50.37 224.61 50.68 223.37 51.00 222.00
C 50.91 221.75 50.10 221.35 50.00 221.00
C 48.81 223.77 46.77 229.13 49.00 232.00
C 48.71 229.83 49.49 227.93 50.00 226.00 Z"/>
</g>
<g fill="#603E10" fill-opacity="1.00" stroke="None">
<path d="
M 53.00 236.00 
C 53.20 235.76 54.00 236.00 54.00 236.00
C 55.12 234.18 57.03 229.87 55.00 228.00
C 54.35 230.70 53.68 233.35 53.00 236.00 Z"/>
</g>
<g fill="#37220F" fill-opacity="1.00" stroke="None">
<path d="
M 52.00 238.00 
C 51.66 239.55 50.95 243.66 51.00 245.00
C 51.05 246.27 51.06 247.08 52.00 246.00
C 54.05 243.67 53.28 238.83 54.00 236.00
C 54.00 236.00 53.20 235.76 53.00 236.00
C 52.85 236.58 52.04 237.81 52.00 238.00 Z"/>
</g>
</svg>