<svg xmlns="http://www.w3.org/2000/svg" xmlns:v="https://svgstorm.com"
viewBox = "0 0 239 254"
width="239"
height="254">
<g fill="None" fill-opacity="0.0" stroke="#FBFBFB" stroke-opacity="1.00" stroke-width="0.3"><path d="
M 0.00 254.00 
L 239.00 254.00
L 239.00 0.00
L 0.00 0.00
L 0.00 254.00
M 203.00 47.00 
C 203.94 45.74 206.54 41.42 208.00 44.00
C 210.99 49.27 204.22 58.75 203.07 64.07 C 201.93 69.39 195.25 73.58 192.70 78.70 C 190.14 83.81 191.96 94.38 193.00 100.00
C 199.48 93.57 200.61 81.41 209.00 77.00
C 206.04 87.14 207.20 99.26 200.08 108.08 C 192.95 116.89 194.93 129.29 199.00 139.00
C 204.11 132.55 205.22 122.70 213.00 118.00
C 213.76 132.31 203.83 143.69 199.00 156.00
C 198.64 158.55 199.00 161.42 199.00 164.00
C 199.00 167.17 198.20 171.65 200.00 174.00
C 204.20 164.67 209.48 155.15 217.00 148.00
C 216.69 157.60 215.63 165.49 207.75 173.75 C 199.86 182.00 216.51 187.53 212.74 196.74 C 208.97 205.96 194.22 206.13 195.00 217.00
C 209.12 213.68 232.46 196.41 218.00 181.00
C 229.80 182.03 227.05 197.87 220.25 204.25 C 213.44 210.63 207.06 215.26 198.25 219.25 C 189.44 223.25 190.24 236.92 186.00 245.00
C 183.36 238.12 190.80 230.86 189.00 223.00
C 186.67 223.00 184.33 223.00 182.00 223.00
C 181.05 222.78 179.96 223.18 179.00 223.00
C 179.44 221.71 180.58 220.79 182.00 221.00
C 186.04 219.52 192.76 220.30 191.00 213.00
C 175.33 214.89 160.42 219.98 144.00 219.00
C 142.61 219.16 139.97 219.83 138.00 220.00
C 136.06 220.35 133.95 219.74 132.00 220.00
C 131.41 222.91 133.59 225.06 133.00 228.00
C 138.33 228.00 143.67 228.00 149.00 228.00
C 149.74 227.97 157.47 227.32 152.00 229.00
C 146.16 230.79 139.10 229.09 133.00 230.00
C 133.00 232.33 133.00 234.67 133.00 237.00
C 133.03 237.43 134.53 251.41 132.00 248.00
C 127.03 241.30 135.13 222.84 125.97 220.03 C 116.82 217.22 105.64 216.26 96.33 213.67 C 87.02 211.08 77.97 208.20 68.92 205.08 C 59.88 201.95 52.22 196.33 52.01 185.99 C 51.80 175.65 49.22 165.89 44.70 157.30 C 40.17 148.71 31.87 147.11 26.25 139.75 C 20.63 132.39 15.80 124.33 15.00 115.00
C 14.86 113.36 15.00 111.65 15.00 110.00
C 15.00 107.03 14.77 103.96 15.00 101.00
C 15.19 98.63 15.67 95.71 17.00 94.00
C 19.87 85.72 22.89 80.25 27.75 72.75 C 32.61 65.25 43.39 66.10 46.00 58.00
C 39.97 53.88 29.93 52.19 28.00 44.00
C 30.74 45.17 30.96 48.42 34.00 49.00
C 33.56 48.40 33.39 47.57 33.00 47.00
C 30.79 43.77 26.87 39.96 29.00 36.00
C 30.69 41.27 36.04 50.95 42.00 50.00
C 36.00 46.09 29.58 30.77 28.00 24.00
C 27.77 23.01 25.50 19.84 28.00 19.00
C 27.93 15.37 33.49 16.02 36.00 16.00
C 35.82 3.96 47.16 8.48 52.25 14.75 C 57.34 21.02 63.46 27.23 63.00 36.00
C 69.09 30.24 82.61 30.49 80.00 42.00
C 79.53 44.36 78.45 44.44 77.00 46.00
C 73.71 49.53 66.41 55.16 62.00 56.00
C 64.40 57.34 67.65 57.87 70.00 59.00
C 67.07 63.12 60.44 60.05 56.00 61.00
C 61.59 69.60 77.90 66.86 88.22 69.78 C 98.54 72.70 109.48 73.91 118.69 80.31 C 127.91 86.70 137.99 92.51 150.00 91.00
C 152.47 91.05 155.23 91.79 157.00 92.00
C 176.45 92.79 172.12 110.99 158.00 118.00
C 172.44 134.22 176.60 159.05 195.00 171.00
C 189.78 160.73 178.95 151.33 181.00 138.00
C 186.09 138.84 190.80 144.66 193.00 149.00
C 198.05 141.49 188.54 133.60 184.70 128.30 C 180.85 123.01 172.80 111.22 180.00 109.00
C 182.13 109.57 183.74 112.53 185.00 114.00
C 186.88 116.20 188.94 118.34 190.00 121.00
C 197.73 99.56 169.32 88.31 172.00 67.00
C 179.09 69.44 181.96 78.85 188.00 82.00
C 188.40 75.35 186.71 67.91 183.69 62.31 C 180.68 56.70 178.14 50.92 175.68 45.32 C 173.22 39.72 171.89 28.19 178.25 33.75 C 184.61 39.31 182.33 43.83 188.00 49.00
C 192.35 33.52 192.18 12.05 207.00 2.00
C 207.68 24.03 192.02 43.40 192.00 64.00
C 195.92 58.69 199.12 52.53 203.00 47.00
M 149.00 17.00 
C 150.11 17.37 149.85 19.97 148.24 19.59 C 146.63 19.21 147.75 16.58 149.00 17.00
M 217.00 196.00 
C 218.01 190.30 212.25 186.34 211.00 181.00
C 217.63 180.98 222.20 191.86 217.00 196.00
M 41.00 190.00 
C 42.56 196.97 35.73 191.19 41.00 190.00
M 49.00 197.00 
C 52.33 201.70 46.40 200.17 49.00 197.00
M 55.00 206.00 
C 61.05 208.28 67.33 215.06 72.00 218.00
C 67.10 215.67 62.36 213.23 58.00 210.00
C 56.40 208.81 50.97 204.48 55.00 206.00
M 84.00 222.00 
C 81.68 221.04 77.18 221.28 77.00 218.00
C 79.21 219.49 82.88 219.07 84.00 222.00
M 127.00 228.00 
C 123.40 230.08 118.27 226.95 114.00 227.00
C 117.66 224.58 123.04 227.01 127.00 228.00
M 106.00 232.00 
C 109.81 234.85 102.03 233.00 102.00 233.00
C 94.79 233.17 88.04 229.76 81.00 229.00
C 88.59 227.37 97.62 232.04 106.00 232.00
M 151.00 235.00 
C 149.81 235.00 144.53 233.96 149.00 234.00
C 152.50 230.94 162.52 233.21 167.22 231.22 C 171.92 229.23 181.79 229.85 186.00 230.00
C 174.71 233.07 163.01 234.68 151.00 235.00
M 117.00 236.00 
C 110.93 234.50 115.59 231.09 117.00 236.00 Z"/>
</g>
<g fill="None" fill-opacity="0.0" stroke="#0E0907" stroke-opacity="1.00" stroke-width="0.3"><path d="
M 185.00 114.00 
C 184.16 113.16 180.79 109.30 180.00 109.00
C 172.80 111.22 180.85 123.01 184.70 128.30 C 188.54 133.60 198.05 141.49 193.00 149.00
C 190.80 144.66 186.09 138.84 181.00 138.00
C 178.95 151.33 189.78 160.73 195.00 171.00
C 176.60 159.05 172.44 134.22 158.00 118.00
C 172.12 110.99 176.45 92.79 157.00 92.00
C 154.63 91.90 151.67 91.16 150.00 91.00
C 137.99 92.51 127.91 86.70 118.69 80.31 C 109.48 73.91 98.54 72.70 88.22 69.78 C 77.90 66.86 61.59 69.60 56.00 61.00
C 60.44 60.05 67.07 63.12 70.00 59.00
C 67.65 57.87 64.40 57.34 62.00 56.00
C 60.78 55.32 61.23 53.96 59.00 54.00
C 58.57 54.18 58.00 54.00 58.00 54.00
C 54.81 56.46 45.94 54.35 46.00 49.00
C 44.92 50.93 44.09 50.46 42.00 50.00
C 36.04 50.95 30.69 41.27 29.00 36.00
C 26.87 39.96 30.79 43.77 33.00 47.00
C 34.20 48.30 36.53 49.06 37.00 51.00
C 35.72 51.27 34.28 50.23 34.00 49.00
C 30.96 48.42 30.74 45.17 28.00 44.00
C 29.93 52.19 39.97 53.88 46.00 58.00
C 43.39 66.10 32.61 65.25 27.75 72.75 C 22.89 80.25 19.87 85.72 17.00 94.00
C 17.19 93.76 18.00 94.00 18.00 94.00
C 18.89 92.83 19.34 91.29 20.00 90.00
C 23.81 82.56 26.44 75.54 33.08 70.08 C 39.73 64.63 53.88 66.92 62.00 68.00
C 76.88 69.98 93.74 70.22 107.22 76.78 C 120.70 83.34 130.77 91.53 146.00 93.00
C 154.67 93.84 163.17 91.84 166.97 101.03 C 170.78 110.21 155.31 112.94 155.00 119.00
C 163.39 128.35 169.34 142.83 175.25 153.75 C 181.17 164.66 198.06 176.34 192.00 188.00
C 190.35 185.12 192.24 184.47 193.00 182.00
C 188.63 179.15 184.84 178.31 180.00 176.00
C 178.87 188.44 189.42 197.39 191.00 209.00
C 172.28 213.82 153.23 217.90 133.00 217.00
C 133.39 200.74 153.20 193.35 157.00 179.00
C 146.62 177.83 144.41 190.59 137.00 195.00
C 137.66 185.96 140.99 176.73 144.77 168.77 C 148.55 160.81 156.50 155.97 157.00 147.00
C 148.77 146.82 147.40 157.05 143.00 162.00
C 140.15 147.73 143.62 128.51 135.23 115.77 C 126.84 103.03 125.78 120.65 130.31 124.69 C 134.83 128.74 137.46 137.14 137.98 144.02 C 138.50 150.91 139.13 162.80 138.00 170.00
C 136.04 167.52 127.57 149.40 122.77 156.77 C 117.97 164.14 130.51 172.44 130.93 180.07 C 131.34 187.70 137.75 199.46 130.00 206.00
C 127.91 200.35 125.20 191.00 117.00 193.00
C 117.95 201.37 125.06 207.79 127.00 216.00
C 104.53 218.00 90.81 208.26 69.77 203.23 C 48.73 198.20 56.73 170.53 46.69 156.31 C 36.66 142.08 16.10 134.81 17.00 115.00
C 16.94 114.84 15.28 115.25 15.00 115.00
C 15.80 124.33 20.63 132.39 26.25 139.75 C 31.87 147.11 40.17 148.71 44.70 157.30 C 49.22 165.89 51.80 175.65 52.01 185.99 C 52.22 196.33 59.88 201.95 68.92 205.08 C 77.97 208.20 87.02 211.08 96.33 213.67 C 105.64 216.26 116.82 217.22 125.97 220.03 C 135.13 222.84 127.03 241.30 132.00 248.00
C 133.81 245.23 132.93 240.52 133.00 237.00
C 133.00 234.67 133.00 232.33 133.00 230.00
C 139.10 229.09 146.16 230.79 152.00 229.00
C 151.73 227.71 149.96 228.08 149.00 228.00
C 143.67 228.00 138.33 228.00 133.00 228.00
C 133.59 225.06 131.41 222.91 132.00 220.00
C 133.95 219.74 136.06 220.35 138.00 220.00
C 139.64 219.70 141.76 219.06 144.00 219.00
C 160.42 219.98 175.33 214.89 191.00 213.00
C 192.76 220.30 186.04 219.52 182.00 221.00
C 181.84 221.06 181.86 222.95 182.00 223.00
C 184.33 223.00 186.67 223.00 189.00 223.00
C 190.80 230.86 183.36 238.12 186.00 245.00
C 190.24 236.92 189.44 223.25 198.25 219.25 C 207.06 215.26 213.44 210.63 220.25 204.25 C 227.05 197.87 229.80 182.03 218.00 181.00
C 232.46 196.41 209.12 213.68 195.00 217.00
C 194.22 206.13 208.97 205.96 212.74 196.74 C 216.51 187.53 199.86 182.00 207.75 173.75 C 215.63 165.49 216.69 157.60 217.00 148.00
C 209.48 155.15 204.20 164.67 200.00 174.00
C 198.20 171.65 199.00 167.17 199.00 164.00
C 198.73 161.17 198.20 158.95 199.00 156.00
C 203.83 143.69 213.76 132.31 213.00 118.00
C 205.22 122.70 204.11 132.55 199.00 139.00
C 194.93 129.29 192.95 116.89 200.08 108.08 C 207.20 99.26 206.04 87.14 209.00 77.00
C 200.61 81.41 199.48 93.57 193.00 100.00
C 191.96 94.38 190.14 83.81 192.70 78.70 C 195.25 73.58 201.93 69.39 203.07 64.07 C 204.22 58.75 210.99 49.27 208.00 44.00
C 206.30 44.13 204.14 45.79 203.00 47.00
C 199.12 52.53 195.92 58.69 192.00 64.00
C 192.02 43.40 207.68 24.03 207.00 2.00
C 192.18 12.05 192.35 33.52 188.00 49.00
C 182.33 43.83 184.61 39.31 178.25 33.75 C 171.89 28.19 173.22 39.72 175.68 45.32 C 178.14 50.92 180.68 56.70 183.69 62.31 C 186.71 67.91 188.40 75.35 188.00 82.00
C 181.96 78.85 179.09 69.44 172.00 67.00
C 169.32 88.31 197.73 99.56 190.00 121.00
C 188.94 118.34 186.88 116.20 185.00 114.00
M 54.00 64.00 
C 51.03 63.32 49.03 63.37 46.00 64.00
C 44.51 57.38 54.61 58.91 54.00 64.00
M 196.00 207.00 
C 197.51 199.47 195.87 191.10 199.00 184.00
C 214.92 187.49 208.97 204.46 196.00 207.00 Z"/>
</g>
<g fill="None" fill-opacity="0.0" stroke="#33150C" stroke-opacity="1.00" stroke-width="0.3"><path d="
M 28.00 19.00 
C 28.05 18.98 28.88 19.74 29.00 20.00
C 31.67 13.23 38.49 24.87 37.78 29.22 C 37.07 33.57 43.08 41.37 43.00 46.00
C 36.32 38.99 31.93 30.07 29.00 21.00
C 28.08 21.98 28.02 22.47 28.00 24.00
C 29.58 30.77 36.00 46.09 42.00 50.00
C 44.09 50.46 44.92 50.93 46.00 49.00
C 45.94 54.35 54.81 56.46 58.00 54.00
C 57.00 54.01 56.00 53.99 55.00 54.00
C 57.50 48.67 64.54 29.56 74.22 34.78 C 83.91 40.00 66.77 55.30 59.00 54.00
C 61.23 53.96 60.78 55.32 62.00 56.00
C 66.41 55.16 73.71 49.53 77.00 46.00
C 77.46 45.34 79.89 42.37 80.00 42.00
C 82.61 30.49 69.09 30.24 63.00 36.00
C 63.46 27.23 57.34 21.02 52.25 14.75 C 47.16 8.48 35.82 3.96 36.00 16.00
C 33.49 16.02 27.93 15.37 28.00 19.00
M 39.00 22.00 
C 38.52 19.05 37.88 17.04 39.00 14.00
C 42.07 5.68 48.05 15.07 53.75 20.25 C 59.46 25.43 59.86 35.06 57.22 43.22 C 54.59 51.39 48.84 55.25 45.69 45.31 C 42.55 35.36 39.55 32.17 39.00 22.00 Z"/>
</g>
<g fill="None" fill-opacity="0.0" stroke="#F19A5F" stroke-opacity="1.00" stroke-width="0.3"><path d="
M 39.00 14.00 
C 38.49 16.31 38.87 19.63 39.00 22.00
C 39.55 32.17 42.55 35.36 45.69 45.31 C 48.84 55.25 54.59 51.39 57.22 43.22 C 59.86 35.06 59.46 25.43 53.75 20.25 C 48.05 15.07 42.07 5.68 39.00 14.00 Z"/>
</g>
<g fill="None" fill-opacity="0.0" stroke="#8E6550" stroke-opacity="1.00" stroke-width="0.3"><path d="
M 39.00 22.00 
C 38.87 19.63 38.49 16.31 39.00 14.00
C 37.88 17.04 38.52 19.05 39.00 22.00 Z"/>
</g>
<g fill="None" fill-opacity="0.0" stroke="#000000" stroke-opacity="1.00" stroke-width="0.3"><path d="
M 149.00 17.00 
C 147.75 16.58 146.63 19.21 148.24 19.59 C 149.85 19.97 150.11 17.37 149.00 17.00 Z"/>
</g>
<g fill="None" fill-opacity="0.0" stroke="#DC996C" stroke-opacity="1.00" stroke-width="0.3"><path d="
M 29.00 20.00 
C 29.19 20.41 29.00 21.00 29.00 21.00
C 31.93 30.07 36.32 38.99 43.00 46.00
C 43.08 41.37 37.07 33.57 37.78 29.22 C 38.49 24.87 31.67 13.23 29.00 20.00 Z"/>
</g>
<g fill="None" fill-opacity="0.0" stroke="#5A4933" stroke-opacity="1.00" stroke-width="0.3"><path d="
M 28.00 24.00 
C 28.02 22.47 28.08 21.98 29.00 21.00
C 29.00 21.00 29.19 20.41 29.00 20.00
C 28.88 19.74 28.05 18.98 28.00 19.00
C 25.50 19.84 27.77 23.01 28.00 24.00 Z"/>
</g>
<g fill="None" fill-opacity="0.0" stroke="#E99A65" stroke-opacity="1.00" stroke-width="0.3"><path d="
M 58.00 54.00 
C 58.00 54.00 58.57 54.18 59.00 54.00
C 66.77 55.30 83.91 40.00 74.22 34.78 C 64.54 29.56 57.50 48.67 55.00 54.00
C 56.00 53.99 57.00 54.01 58.00 54.00 Z"/>
</g>
<g fill="None" fill-opacity="0.0" stroke="#010204" stroke-opacity="1.00" stroke-width="0.3"><path d="
M 77.00 46.00 
C 78.45 44.44 79.53 44.36 80.00 42.00
C 79.89 42.37 77.46 45.34 77.00 46.00 Z"/>
</g>
<g fill="None" fill-opacity="0.0" stroke="#787878" stroke-opacity="1.00" stroke-width="0.3"><path d="
M 203.00 47.00 
C 204.14 45.79 206.30 44.13 208.00 44.00
C 206.54 41.42 203.94 45.74 203.00 47.00 Z"/>
</g>
<g fill="None" fill-opacity="0.0" stroke="#C3C1BF" stroke-opacity="1.00" stroke-width="0.3"><path d="
M 34.00 49.00 
C 34.28 50.23 35.72 51.27 37.00 51.00
C 36.53 49.06 34.20 48.30 33.00 47.00
C 33.39 47.57 33.56 48.40 34.00 49.00 Z"/>
</g>
<g fill="None" fill-opacity="0.0" stroke="#DCDADA" stroke-opacity="1.00" stroke-width="0.3"><path d="
M 54.00 64.00 
C 54.61 58.91 44.51 57.38 46.00 64.00
C 49.03 63.37 51.03 63.32 54.00 64.00 Z"/>
</g>
<g fill="None" fill-opacity="0.0" stroke="#857064" stroke-opacity="1.00" stroke-width="0.3"><path d="
M 20.00 90.00 
C 27.05 98.61 39.68 87.76 47.07 88.07 C 54.47 88.39 67.54 75.68 62.00 68.00
C 53.88 66.92 39.73 64.63 33.08 70.08 C 26.44 75.54 23.81 82.56 20.00 90.00 Z"/>
</g>
<g fill="None" fill-opacity="0.0" stroke="#C2A583" stroke-opacity="1.00" stroke-width="0.3"><path d="
M 20.00 90.00 
C 19.34 91.29 18.89 92.83 18.00 94.00
C 16.27 100.32 16.63 108.25 17.00 115.00
C 16.10 134.81 36.66 142.08 46.69 156.31 C 56.73 170.53 48.73 198.20 69.77 203.23 C 90.81 208.26 104.53 218.00 127.00 216.00
C 125.06 207.79 117.95 201.37 117.00 193.00
C 125.20 191.00 127.91 200.35 130.00 206.00
C 137.75 199.46 131.34 187.70 130.93 180.07 C 130.51 172.44 117.97 164.14 122.77 156.77 C 127.57 149.40 136.04 167.52 138.00 170.00
C 139.13 162.80 138.50 150.91 137.98 144.02 C 137.46 137.14 134.83 128.74 130.31 124.69 C 125.78 120.65 126.84 103.03 135.23 115.77 C 143.62 128.51 140.15 147.73 143.00 162.00
C 147.40 157.05 148.77 146.82 157.00 147.00
C 156.50 155.97 148.55 160.81 144.77 168.77 C 140.99 176.73 137.66 185.96 137.00 195.00
C 144.41 190.59 146.62 177.83 157.00 179.00
C 153.20 193.35 133.39 200.74 133.00 217.00
C 153.23 217.90 172.28 213.82 191.00 209.00
C 189.42 197.39 178.87 188.44 180.00 176.00
C 184.84 178.31 188.63 179.15 193.00 182.00
C 192.24 184.47 190.35 185.12 192.00 188.00
C 198.06 176.34 181.17 164.66 175.25 153.75 C 169.34 142.83 163.39 128.35 155.00 119.00
C 151.52 115.13 145.67 116.17 143.70 110.30 C 141.72 104.43 144.54 98.55 146.00 93.00
C 130.77 91.53 120.70 83.34 107.22 76.78 C 93.74 70.22 76.88 69.98 62.00 68.00
C 67.54 75.68 54.47 88.39 47.07 88.07 C 39.68 87.76 27.05 98.61 20.00 90.00
M 120.00 98.00 
C 111.40 100.87 102.47 93.96 94.00 92.00
C 102.15 90.67 111.16 97.41 120.00 98.00
M 166.00 147.00 
C 163.81 145.96 162.88 143.33 163.00 141.00
C 165.19 142.04 166.12 144.67 166.00 147.00
M 162.00 158.00 
C 156.71 156.90 161.89 151.60 162.00 158.00
M 172.00 161.00 
C 169.53 161.09 167.46 158.42 168.00 156.00
C 170.17 156.93 171.11 159.05 172.00 161.00
M 180.00 165.00 
C 183.56 169.67 176.71 168.47 180.00 165.00
M 168.00 173.00 
C 165.83 172.07 164.89 169.95 164.00 168.00
C 166.65 167.76 167.73 170.92 168.00 173.00
M 177.00 176.00 
C 171.69 173.25 177.34 169.94 177.00 176.00
M 174.00 186.00 
C 168.71 184.72 173.16 179.77 174.00 186.00
M 183.00 200.00 
C 178.26 199.63 181.22 195.21 183.00 200.00 Z"/>
</g>
<g fill="None" fill-opacity="0.0" stroke="#341C0B" stroke-opacity="1.00" stroke-width="0.3"><path d="
M 120.00 98.00 
C 111.16 97.41 102.15 90.67 94.00 92.00
C 102.47 93.96 111.40 100.87 120.00 98.00 Z"/>
</g>
<g fill="None" fill-opacity="0.0" stroke="#655D59" stroke-opacity="1.00" stroke-width="0.3"><path d="
M 157.00 92.00 
C 155.23 91.79 152.47 91.05 150.00 91.00
C 151.67 91.16 154.63 91.90 157.00 92.00 Z"/>
</g>
<g fill="None" fill-opacity="0.0" stroke="#826F65" stroke-opacity="1.00" stroke-width="0.3"><path d="
M 155.00 119.00 
C 155.31 112.94 170.78 110.21 166.97 101.03 C 163.17 91.84 154.67 93.84 146.00 93.00
C 144.54 98.55 141.72 104.43 143.70 110.30 C 145.67 116.17 151.52 115.13 155.00 119.00
M 161.00 102.00 
C 156.17 101.35 150.01 103.31 146.00 101.00
C 149.61 99.27 159.49 96.26 161.00 102.00 Z"/>
</g>
<g fill="None" fill-opacity="0.0" stroke="#413623" stroke-opacity="1.00" stroke-width="0.3"><path d="
M 15.00 101.00 
C 15.04 103.49 15.27 107.44 15.00 110.00
C 15.00 111.65 14.86 113.36 15.00 115.00
C 15.28 115.25 16.94 114.84 17.00 115.00
C 16.63 108.25 16.27 100.32 18.00 94.00
C 18.00 94.00 17.19 93.76 17.00 94.00
C 15.67 95.71 15.19 98.63 15.00 101.00 Z"/>
</g>
<g fill="None" fill-opacity="0.0" stroke="#1E0C06" stroke-opacity="1.00" stroke-width="0.3"><path d="
M 161.00 102.00 
C 159.49 96.26 149.61 99.27 146.00 101.00
C 150.01 103.31 156.17 101.35 161.00 102.00 Z"/>
</g>
<g fill="None" fill-opacity="0.0" stroke="#160E02" stroke-opacity="1.00" stroke-width="0.3"><path d="
M 15.00 110.00 
C 15.27 107.44 15.04 103.49 15.00 101.00
C 14.77 103.96 15.00 107.03 15.00 110.00 Z"/>
</g>
<g fill="None" fill-opacity="0.0" stroke="#808080" stroke-opacity="1.00" stroke-width="0.3"><path d="
M 185.00 114.00 
C 183.74 112.53 182.13 109.57 180.00 109.00
C 180.79 109.30 184.16 113.16 185.00 114.00 Z"/>
</g>
<g fill="None" fill-opacity="0.0" stroke="#492A16" stroke-opacity="1.00" stroke-width="0.3"><path d="
M 166.00 147.00 
C 166.12 144.67 165.19 142.04 163.00 141.00
C 162.88 143.33 163.81 145.96 166.00 147.00 Z"/>
</g>
<g fill="None" fill-opacity="0.0" stroke="#3F1F0D" stroke-opacity="1.00" stroke-width="0.3"><path d="
M 162.00 158.00 
C 161.89 151.60 156.71 156.90 162.00 158.00 Z"/>
</g>
<g fill="None" fill-opacity="0.0" stroke="#472A16" stroke-opacity="1.00" stroke-width="0.3"><path d="
M 172.00 161.00 
C 171.11 159.05 170.17 156.93 168.00 156.00
C 167.46 158.42 169.53 161.09 172.00 161.00 Z"/>
</g>
<g fill="None" fill-opacity="0.0" stroke="#7A7A7A" stroke-opacity="1.00" stroke-width="0.3"><path d="
M 199.00 164.00 
C 199.00 161.42 198.64 158.55 199.00 156.00
C 198.20 158.95 198.73 161.17 199.00 164.00 Z"/>
</g>
<g fill="None" fill-opacity="0.0" stroke="#371D0B" stroke-opacity="1.00" stroke-width="0.3"><path d="
M 180.00 165.00 
C 176.71 168.47 183.56 169.67 180.00 165.00 Z"/>
</g>
<g fill="None" fill-opacity="0.0" stroke="#4F3113" stroke-opacity="1.00" stroke-width="0.3"><path d="
M 168.00 173.00 
C 167.73 170.92 166.65 167.76 164.00 168.00
C 164.89 169.95 165.83 172.07 168.00 173.00 Z"/>
</g>
<g fill="None" fill-opacity="0.0" stroke="#432612" stroke-opacity="1.00" stroke-width="0.3"><path d="
M 177.00 176.00 
C 177.34 169.94 171.69 173.25 177.00 176.00 Z"/>
</g>
<g fill="None" fill-opacity="0.0" stroke="#0F1016" stroke-opacity="1.00" stroke-width="0.3"><path d="
M 217.00 196.00 
C 222.20 191.86 217.63 180.98 211.00 181.00
C 212.25 186.34 218.01 190.30 217.00 196.00 Z"/>
</g>
<g fill="None" fill-opacity="0.0" stroke="#482B18" stroke-opacity="1.00" stroke-width="0.3"><path d="
M 174.00 186.00 
C 173.16 179.77 168.71 184.72 174.00 186.00 Z"/>
</g>
<g fill="None" fill-opacity="0.0" stroke="#B8A189" stroke-opacity="1.00" stroke-width="0.3"><path d="
M 196.00 207.00 
C 208.97 204.46 214.92 187.49 199.00 184.00
C 195.87 191.10 197.51 199.47 196.00 207.00
M 203.00 193.00 
C 200.52 193.12 197.91 190.13 200.00 188.00
C 201.95 188.90 203.48 190.72 203.00 193.00 Z"/>
</g>
<g fill="None" fill-opacity="0.0" stroke="#3B210F" stroke-opacity="1.00" stroke-width="0.3"><path d="
M 203.00 193.00 
C 203.48 190.72 201.95 188.90 200.00 188.00
C 197.91 190.13 200.52 193.12 203.00 193.00 Z"/>
</g>
<g fill="None" fill-opacity="0.0" stroke="#999999" stroke-opacity="1.00" stroke-width="0.3"><path d="
M 41.00 190.00 
C 35.73 191.19 42.56 196.97 41.00 190.00 Z"/>
</g>
<g fill="None" fill-opacity="0.0" stroke="#272B2C" stroke-opacity="1.00" stroke-width="0.3"><path d="
M 49.00 197.00 
C 46.40 200.17 52.33 201.70 49.00 197.00 Z"/>
</g>
<g fill="None" fill-opacity="0.0" stroke="#3F1F09" stroke-opacity="1.00" stroke-width="0.3"><path d="
M 183.00 200.00 
C 181.22 195.21 178.26 199.63 183.00 200.00 Z"/>
</g>
<g fill="None" fill-opacity="0.0" stroke="#838585" stroke-opacity="1.00" stroke-width="0.3"><path d="
M 58.00 210.00 
C 56.91 209.00 56.09 206.88 55.00 206.00
C 50.97 204.48 56.40 208.81 58.00 210.00 Z"/>
</g>
<g fill="None" fill-opacity="0.0" stroke="#292A2A" stroke-opacity="1.00" stroke-width="0.3"><path d="
M 58.00 210.00 
C 62.36 213.23 67.10 215.67 72.00 218.00
C 67.33 215.06 61.05 208.28 55.00 206.00
C 56.09 206.88 56.91 209.00 58.00 210.00 Z"/>
</g>
<g fill="None" fill-opacity="0.0" stroke="#4C4C4D" stroke-opacity="1.00" stroke-width="0.3"><path d="
M 84.00 222.00 
C 82.88 219.07 79.21 219.49 77.00 218.00
C 77.18 221.28 81.68 221.04 84.00 222.00 Z"/>
</g>
<g fill="None" fill-opacity="0.0" stroke="#75716B" stroke-opacity="1.00" stroke-width="0.3"><path d="
M 138.00 220.00 
C 139.97 219.83 142.61 219.16 144.00 219.00
C 141.76 219.06 139.64 219.70 138.00 220.00 Z"/>
</g>
<g fill="None" fill-opacity="0.0" stroke="#9FA09B" stroke-opacity="1.00" stroke-width="0.3"><path d="
M 182.00 223.00 
C 181.86 222.95 181.84 221.06 182.00 221.00
C 180.58 220.79 179.44 221.71 179.00 223.00
C 179.96 223.18 181.05 222.78 182.00 223.00 Z"/>
</g>
<g fill="None" fill-opacity="0.0" stroke="#1D1D1D" stroke-opacity="1.00" stroke-width="0.3"><path d="
M 127.00 228.00 
C 123.04 227.01 117.66 224.58 114.00 227.00
C 118.27 226.95 123.40 230.08 127.00 228.00 Z"/>
</g>
<g fill="None" fill-opacity="0.0" stroke="#7D7D7D" stroke-opacity="1.00" stroke-width="0.3"><path d="
M 149.00 228.00 
C 149.96 228.08 151.73 227.71 152.00 229.00
C 157.47 227.32 149.74 227.97 149.00 228.00 Z"/>
</g>
<g fill="None" fill-opacity="0.0" stroke="#202020" stroke-opacity="1.00" stroke-width="0.3"><path d="
M 102.00 233.00 
C 103.28 232.97 105.49 233.59 106.00 232.00
C 97.62 232.04 88.59 227.37 81.00 229.00
C 88.04 229.76 94.79 233.17 102.00 233.00 Z"/>
</g>
<g fill="None" fill-opacity="0.0" stroke="#212121" stroke-opacity="1.00" stroke-width="0.3"><path d="
M 149.00 234.00 
C 148.85 234.00 150.59 234.95 151.00 235.00
C 163.01 234.68 174.71 233.07 186.00 230.00
C 181.79 229.85 171.92 229.23 167.22 231.22 C 162.52 233.21 152.50 230.94 149.00 234.00 Z"/>
</g>
<g fill="None" fill-opacity="0.0" stroke="#B5B5B5" stroke-opacity="1.00" stroke-width="0.3"><path d="
M 102.00 233.00 
C 102.03 233.00 109.81 234.85 106.00 232.00
C 105.49 233.59 103.28 232.97 102.00 233.00 Z"/>
</g>
<g fill="None" fill-opacity="0.0" stroke="#525252" stroke-opacity="1.00" stroke-width="0.3"><path d="
M 117.00 236.00 
C 115.59 231.09 110.93 234.50 117.00 236.00 Z"/>
</g>
<g fill="None" fill-opacity="0.0" stroke="#8B8B8B" stroke-opacity="1.00" stroke-width="0.3"><path d="
M 151.00 235.00 
C 150.59 234.95 148.85 234.00 149.00 234.00
C 144.53 233.96 149.81 235.00 151.00 235.00 Z"/>
</g>
<g fill="None" fill-opacity="0.0" stroke="#737373" stroke-opacity="1.00" stroke-width="0.3"><path d="
M 132.00 248.00 
C 134.53 251.41 133.03 237.43 133.00 237.00
C 132.93 240.52 133.81 245.23 132.00 248.00 Z"/>
</g>
<g fill="#FBFBFB" fill-opacity="1.00" stroke="None">
<path d="
M 0.00 254.00 
L 239.00 254.00
L 239.00 0.00
L 0.00 0.00
L 0.00 254.00
M 203.00 47.00 
C 203.94 45.74 206.54 41.42 208.00 44.00
C 210.99 49.27 204.22 58.75 203.07 64.07 C 201.93 69.39 195.25 73.58 192.70 78.70 C 190.14 83.81 191.96 94.38 193.00 100.00
C 199.48 93.57 200.61 81.41 209.00 77.00
C 206.04 87.14 207.20 99.26 200.08 108.08 C 192.95 116.89 194.93 129.29 199.00 139.00
C 204.11 132.55 205.22 122.70 213.00 118.00
C 213.76 132.31 203.83 143.69 199.00 156.00
C 198.64 158.55 199.00 161.42 199.00 164.00
C 199.00 167.17 198.20 171.65 200.00 174.00
C 204.20 164.67 209.48 155.15 217.00 148.00
C 216.69 157.60 215.63 165.49 207.75 173.75 C 199.86 182.00 216.51 187.53 212.74 196.74 C 208.97 205.96 194.22 206.13 195.00 217.00
C 209.12 213.68 232.46 196.41 218.00 181.00
C 229.80 182.03 227.05 197.87 220.25 204.25 C 213.44 210.63 207.06 215.26 198.25 219.25 C 189.44 223.25 190.24 236.92 186.00 245.00
C 183.36 238.12 190.80 230.86 189.00 223.00
C 186.67 223.00 184.33 223.00 182.00 223.00
C 181.05 222.78 179.96 223.18 179.00 223.00
C 179.44 221.71 180.58 220.79 182.00 221.00
C 186.04 219.52 192.76 220.30 191.00 213.00
C 175.33 214.89 160.42 219.98 144.00 219.00
C 142.61 219.16 139.97 219.83 138.00 220.00
C 136.06 220.35 133.95 219.74 132.00 220.00
C 131.41 222.91 133.59 225.06 133.00 228.00
C 138.33 228.00 143.67 228.00 149.00 228.00
C 149.74 227.97 157.47 227.32 152.00 229.00
C 146.16 230.79 139.10 229.09 133.00 230.00
C 133.00 232.33 133.00 234.67 133.00 237.00
C 133.03 237.43 134.53 251.41 132.00 248.00
C 127.03 241.30 135.13 222.84 125.97 220.03 C 116.82 217.22 105.64 216.26 96.33 213.67 C 87.02 211.08 77.97 208.20 68.92 205.08 C 59.88 201.95 52.22 196.33 52.01 185.99 C 51.80 175.65 49.22 165.89 44.70 157.30 C 40.17 148.71 31.87 147.11 26.25 139.75 C 20.63 132.39 15.80 124.33 15.00 115.00
C 14.86 113.36 15.00 111.65 15.00 110.00
C 15.00 107.03 14.77 103.96 15.00 101.00
C 15.19 98.63 15.67 95.71 17.00 94.00
C 19.87 85.72 22.89 80.25 27.75 72.75 C 32.61 65.25 43.39 66.10 46.00 58.00
C 39.97 53.88 29.93 52.19 28.00 44.00
C 30.74 45.17 30.96 48.42 34.00 49.00
C 33.56 48.40 33.39 47.57 33.00 47.00
C 30.79 43.77 26.87 39.96 29.00 36.00
C 30.69 41.27 36.04 50.95 42.00 50.00
C 36.00 46.09 29.58 30.77 28.00 24.00
C 27.77 23.01 25.50 19.84 28.00 19.00
C 27.93 15.37 33.49 16.02 36.00 16.00
C 35.82 3.96 47.16 8.48 52.25 14.75 C 57.34 21.02 63.46 27.23 63.00 36.00
C 69.09 30.24 82.61 30.49 80.00 42.00
C 79.53 44.36 78.45 44.44 77.00 46.00
C 73.71 49.53 66.41 55.16 62.00 56.00
C 64.40 57.34 67.65 57.87 70.00 59.00
C 67.07 63.12 60.44 60.05 56.00 61.00
C 61.59 69.60 77.90 66.86 88.22 69.78 C 98.54 72.70 109.48 73.91 118.69 80.31 C 127.91 86.70 137.99 92.51 150.00 91.00
C 152.47 91.05 155.23 91.79 157.00 92.00
C 176.45 92.79 172.12 110.99 158.00 118.00
C 172.44 134.22 176.60 159.05 195.00 171.00
C 189.78 160.73 178.95 151.33 181.00 138.00
C 186.09 138.84 190.80 144.66 193.00 149.00
C 198.05 141.49 188.54 133.60 184.70 128.30 C 180.85 123.01 172.80 111.22 180.00 109.00
C 182.13 109.57 183.74 112.53 185.00 114.00
C 186.88 116.20 188.94 118.34 190.00 121.00
C 197.73 99.56 169.32 88.31 172.00 67.00
C 179.09 69.44 181.96 78.85 188.00 82.00
C 188.40 75.35 186.71 67.91 183.69 62.31 C 180.68 56.70 178.14 50.92 175.68 45.32 C 173.22 39.72 171.89 28.19 178.25 33.75 C 184.61 39.31 182.33 43.83 188.00 49.00
C 192.35 33.52 192.18 12.05 207.00 2.00
C 207.68 24.03 192.02 43.40 192.00 64.00
C 195.92 58.69 199.12 52.53 203.00 47.00
M 149.00 17.00 
C 150.11 17.37 149.85 19.97 148.24 19.59 C 146.63 19.21 147.75 16.58 149.00 17.00
M 217.00 196.00 
C 218.01 190.30 212.25 186.34 211.00 181.00
C 217.63 180.98 222.20 191.86 217.00 196.00
M 41.00 190.00 
C 42.56 196.97 35.73 191.19 41.00 190.00
M 49.00 197.00 
C 52.33 201.70 46.40 200.17 49.00 197.00
M 55.00 206.00 
C 61.05 208.28 67.33 215.06 72.00 218.00
C 67.10 215.67 62.36 213.23 58.00 210.00
C 56.40 208.81 50.97 204.48 55.00 206.00
M 84.00 222.00 
C 81.68 221.04 77.18 221.28 77.00 218.00
C 79.21 219.49 82.88 219.07 84.00 222.00
M 127.00 228.00 
C 123.40 230.08 118.27 226.95 114.00 227.00
C 117.66 224.58 123.04 227.01 127.00 228.00
M 106.00 232.00 
C 109.81 234.85 102.03 233.00 102.00 233.00
C 94.79 233.17 88.04 229.76 81.00 229.00
C 88.59 227.37 97.62 232.04 106.00 232.00
M 151.00 235.00 
C 149.81 235.00 144.53 233.96 149.00 234.00
C 152.50 230.94 162.52 233.21 167.22 231.22 C 171.92 229.23 181.79 229.85 186.00 230.00
C 174.71 233.07 163.01 234.68 151.00 235.00
M 117.00 236.00 
C 110.93 234.50 115.59 231.09 117.00 236.00 Z"/>
</g>
<g fill="#0E0907" fill-opacity="1.00" stroke="None">
<path d="
M 185.00 114.00 
C 184.16 113.16 180.79 109.30 180.00 109.00
C 172.80 111.22 180.85 123.01 184.70 128.30 C 188.54 133.60 198.05 141.49 193.00 149.00
C 190.80 144.66 186.09 138.84 181.00 138.00
C 178.95 151.33 189.78 160.73 195.00 171.00
C 176.60 159.05 172.44 134.22 158.00 118.00
C 172.12 110.99 176.45 92.79 157.00 92.00
C 154.63 91.90 151.67 91.16 150.00 91.00
C 137.99 92.51 127.91 86.70 118.69 80.31 C 109.48 73.91 98.54 72.70 88.22 69.78 C 77.90 66.86 61.59 69.60 56.00 61.00
C 60.44 60.05 67.07 63.12 70.00 59.00
C 67.65 57.87 64.40 57.34 62.00 56.00
C 60.78 55.32 61.23 53.96 59.00 54.00
C 58.57 54.18 58.00 54.00 58.00 54.00
C 54.81 56.46 45.94 54.35 46.00 49.00
C 44.92 50.93 44.09 50.46 42.00 50.00
C 36.04 50.95 30.69 41.27 29.00 36.00
C 26.87 39.96 30.79 43.77 33.00 47.00
C 34.20 48.30 36.53 49.06 37.00 51.00
C 35.72 51.27 34.28 50.23 34.00 49.00
C 30.96 48.42 30.74 45.17 28.00 44.00
C 29.93 52.19 39.97 53.88 46.00 58.00
C 43.39 66.10 32.61 65.25 27.75 72.75 C 22.89 80.25 19.87 85.72 17.00 94.00
C 17.19 93.76 18.00 94.00 18.00 94.00
C 18.89 92.83 19.34 91.29 20.00 90.00
C 23.81 82.56 26.44 75.54 33.08 70.08 C 39.73 64.63 53.88 66.92 62.00 68.00
C 76.88 69.98 93.74 70.22 107.22 76.78 C 120.70 83.34 130.77 91.53 146.00 93.00
C 154.67 93.84 163.17 91.84 166.97 101.03 C 170.78 110.21 155.31 112.94 155.00 119.00
C 163.39 128.35 169.34 142.83 175.25 153.75 C 181.17 164.66 198.06 176.34 192.00 188.00
C 190.35 185.12 192.24 184.47 193.00 182.00
C 188.63 179.15 184.84 178.31 180.00 176.00
C 178.87 188.44 189.42 197.39 191.00 209.00
C 172.28 213.82 153.23 217.90 133.00 217.00
C 133.39 200.74 153.20 193.35 157.00 179.00
C 146.62 177.83 144.41 190.59 137.00 195.00
C 137.66 185.96 140.99 176.73 144.77 168.77 C 148.55 160.81 156.50 155.97 157.00 147.00
C 148.77 146.82 147.40 157.05 143.00 162.00
C 140.15 147.73 143.62 128.51 135.23 115.77 C 126.84 103.03 125.78 120.65 130.31 124.69 C 134.83 128.74 137.46 137.14 137.98 144.02 C 138.50 150.91 139.13 162.80 138.00 170.00
C 136.04 167.52 127.57 149.40 122.77 156.77 C 117.97 164.14 130.51 172.44 130.93 180.07 C 131.34 187.70 137.75 199.46 130.00 206.00
C 127.91 200.35 125.20 191.00 117.00 193.00
C 117.95 201.37 125.06 207.79 127.00 216.00
C 104.53 218.00 90.81 208.26 69.77 203.23 C 48.73 198.20 56.73 170.53 46.69 156.31 C 36.66 142.08 16.10 134.81 17.00 115.00
C 16.94 114.84 15.28 115.25 15.00 115.00
C 15.80 124.33 20.63 132.39 26.25 139.75 C 31.87 147.11 40.17 148.71 44.70 157.30 C 49.22 165.89 51.80 175.65 52.01 185.99 C 52.22 196.33 59.88 201.95 68.92 205.08 C 77.97 208.20 87.02 211.08 96.33 213.67 C 105.64 216.26 116.82 217.22 125.97 220.03 C 135.13 222.84 127.03 241.30 132.00 248.00
C 133.81 245.23 132.93 240.52 133.00 237.00
C 133.00 234.67 133.00 232.33 133.00 230.00
C 139.10 229.09 146.16 230.79 152.00 229.00
C 151.73 227.71 149.96 228.08 149.00 228.00
C 143.67 228.00 138.33 228.00 133.00 228.00
C 133.59 225.06 131.41 222.91 132.00 220.00
C 133.95 219.74 136.06 220.35 138.00 220.00
C 139.64 219.70 141.76 219.06 144.00 219.00
C 160.42 219.98 175.33 214.89 191.00 213.00
C 192.76 220.30 186.04 219.52 182.00 221.00
C 181.84 221.06 181.86 222.95 182.00 223.00
C 184.33 223.00 186.67 223.00 189.00 223.00
C 190.80 230.86 183.36 238.12 186.00 245.00
C 190.24 236.92 189.44 223.25 198.25 219.25 C 207.06 215.26 213.44 210.63 220.25 204.25 C 227.05 197.87 229.80 182.03 218.00 181.00
C 232.46 196.41 209.12 213.68 195.00 217.00
C 194.22 206.13 208.97 205.96 212.74 196.74 C 216.51 187.53 199.86 182.00 207.75 173.75 C 215.63 165.49 216.69 157.60 217.00 148.00
C 209.48 155.15 204.20 164.67 200.00 174.00
C 198.20 171.65 199.00 167.17 199.00 164.00
C 198.73 161.17 198.20 158.95 199.00 156.00
C 203.83 143.69 213.76 132.31 213.00 118.00
C 205.22 122.70 204.11 132.55 199.00 139.00
C 194.93 129.29 192.95 116.89 200.08 108.08 C 207.20 99.26 206.04 87.14 209.00 77.00
C 200.61 81.41 199.48 93.57 193.00 100.00
C 191.96 94.38 190.14 83.81 192.70 78.70 C 195.25 73.58 201.93 69.39 203.07 64.07 C 204.22 58.75 210.99 49.27 208.00 44.00
C 206.30 44.13 204.14 45.79 203.00 47.00
C 199.12 52.53 195.92 58.69 192.00 64.00
C 192.02 43.40 207.68 24.03 207.00 2.00
C 192.18 12.05 192.35 33.52 188.00 49.00
C 182.33 43.83 184.61 39.31 178.25 33.75 C 171.89 28.19 173.22 39.72 175.68 45.32 C 178.14 50.92 180.68 56.70 183.69 62.31 C 186.71 67.91 188.40 75.35 188.00 82.00
C 181.96 78.85 179.09 69.44 172.00 67.00
C 169.32 88.31 197.73 99.56 190.00 121.00
C 188.94 118.34 186.88 116.20 185.00 114.00
M 54.00 64.00 
C 51.03 63.32 49.03 63.37 46.00 64.00
C 44.51 57.38 54.61 58.91 54.00 64.00
M 196.00 207.00 
C 197.51 199.47 195.87 191.10 199.00 184.00
C 214.92 187.49 208.97 204.46 196.00 207.00 Z"/>
</g>
<g fill="#33150C" fill-opacity="1.00" stroke="None">
<path d="
M 28.00 19.00 
C 28.05 18.98 28.88 19.74 29.00 20.00
C 31.67 13.23 38.49 24.87 37.78 29.22 C 37.07 33.57 43.08 41.37 43.00 46.00
C 36.32 38.99 31.93 30.07 29.00 21.00
C 28.08 21.98 28.02 22.47 28.00 24.00
C 29.58 30.77 36.00 46.09 42.00 50.00
C 44.09 50.46 44.92 50.93 46.00 49.00
C 45.94 54.35 54.81 56.46 58.00 54.00
C 57.00 54.01 56.00 53.99 55.00 54.00
C 57.50 48.67 64.54 29.56 74.22 34.78 C 83.91 40.00 66.77 55.30 59.00 54.00
C 61.23 53.96 60.78 55.32 62.00 56.00
C 66.41 55.16 73.71 49.53 77.00 46.00
C 77.46 45.34 79.89 42.37 80.00 42.00
C 82.61 30.49 69.09 30.24 63.00 36.00
C 63.46 27.23 57.34 21.02 52.25 14.75 C 47.16 8.48 35.82 3.96 36.00 16.00
C 33.49 16.02 27.93 15.37 28.00 19.00
M 39.00 22.00 
C 38.52 19.05 37.88 17.04 39.00 14.00
C 42.07 5.68 48.05 15.07 53.75 20.25 C 59.46 25.43 59.86 35.06 57.22 43.22 C 54.59 51.39 48.84 55.25 45.69 45.31 C 42.55 35.36 39.55 32.17 39.00 22.00 Z"/>
</g>
<g fill="#F19A5F" fill-opacity="1.00" stroke="None">
<path d="
M 39.00 14.00 
C 38.49 16.31 38.87 19.63 39.00 22.00
C 39.55 32.17 42.55 35.36 45.69 45.31 C 48.84 55.25 54.59 51.39 57.22 43.22 C 59.86 35.06 59.46 25.43 53.75 20.25 C 48.05 15.07 42.07 5.68 39.00 14.00 Z"/>
</g>
<g fill="#8E6550" fill-opacity="1.00" stroke="None">
<path d="
M 39.00 22.00 
C 38.87 19.63 38.49 16.31 39.00 14.00
C 37.88 17.04 38.52 19.05 39.00 22.00 Z"/>
</g>
<g fill="#000000" fill-opacity="1.00" stroke="None">
<path d="
M 149.00 17.00 
C 147.75 16.58 146.63 19.21 148.24 19.59 C 149.85 19.97 150.11 17.37 149.00 17.00 Z"/>
</g>
<g fill="#DC996C" fill-opacity="1.00" stroke="None">
<path d="
M 29.00 20.00 
C 29.19 20.41 29.00 21.00 29.00 21.00
C 31.93 30.07 36.32 38.99 43.00 46.00
C 43.08 41.37 37.07 33.57 37.78 29.22 C 38.49 24.87 31.67 13.23 29.00 20.00 Z"/>
</g>
<g fill="#5A4933" fill-opacity="1.00" stroke="None">
<path d="
M 28.00 24.00 
C 28.02 22.47 28.08 21.98 29.00 21.00
C 29.00 21.00 29.19 20.41 29.00 20.00
C 28.88 19.74 28.05 18.98 28.00 19.00
C 25.50 19.84 27.77 23.01 28.00 24.00 Z"/>
</g>
<g fill="#E99A65" fill-opacity="1.00" stroke="None">
<path d="
M 58.00 54.00 
C 58.00 54.00 58.57 54.18 59.00 54.00
C 66.77 55.30 83.91 40.00 74.22 34.78 C 64.54 29.56 57.50 48.67 55.00 54.00
C 56.00 53.99 57.00 54.01 58.00 54.00 Z"/>
</g>
<g fill="#010204" fill-opacity="1.00" stroke="None">
<path d="
M 77.00 46.00 
C 78.45 44.44 79.53 44.36 80.00 42.00
C 79.89 42.37 77.46 45.34 77.00 46.00 Z"/>
</g>
<g fill="#787878" fill-opacity="1.00" stroke="None">
<path d="
M 203.00 47.00 
C 204.14 45.79 206.30 44.13 208.00 44.00
C 206.54 41.42 203.94 45.74 203.00 47.00 Z"/>
</g>
<g fill="#C3C1BF" fill-opacity="1.00" stroke="None">
<path d="
M 34.00 49.00 
C 34.28 50.23 35.72 51.27 37.00 51.00
C 36.53 49.06 34.20 48.30 33.00 47.00
C 33.39 47.57 33.56 48.40 34.00 49.00 Z"/>
</g>
<g fill="#DCDADA" fill-opacity="1.00" stroke="None">
<path d="
M 54.00 64.00 
C 54.61 58.91 44.51 57.38 46.00 64.00
C 49.03 63.37 51.03 63.32 54.00 64.00 Z"/>
</g>
<g fill="#857064" fill-opacity="1.00" stroke="None">
<path d="
M 20.00 90.00 
C 27.05 98.61 39.68 87.76 47.07 88.07 C 54.47 88.39 67.54 75.68 62.00 68.00
C 53.88 66.92 39.73 64.63 33.08 70.08 C 26.44 75.54 23.81 82.56 20.00 90.00 Z"/>
</g>
<g fill="#C2A583" fill-opacity="1.00" stroke="None">
<path d="
M 20.00 90.00 
C 19.34 91.29 18.89 92.83 18.00 94.00
C 16.27 100.32 16.63 108.25 17.00 115.00
C 16.10 134.81 36.66 142.08 46.69 156.31 C 56.73 170.53 48.73 198.20 69.77 203.23 C 90.81 208.26 104.53 218.00 127.00 216.00
C 125.06 207.79 117.95 201.37 117.00 193.00
C 125.20 191.00 127.91 200.35 130.00 206.00
C 137.75 199.46 131.34 187.70 130.93 180.07 C 130.51 172.44 117.97 164.14 122.77 156.77 C 127.57 149.40 136.04 167.52 138.00 170.00
C 139.13 162.80 138.50 150.91 137.98 144.02 C 137.46 137.14 134.83 128.74 130.31 124.69 C 125.78 120.65 126.84 103.03 135.23 115.77 C 143.62 128.51 140.15 147.73 143.00 162.00
C 147.40 157.05 148.77 146.82 157.00 147.00
C 156.50 155.97 148.55 160.81 144.77 168.77 C 140.99 176.73 137.66 185.96 137.00 195.00
C 144.41 190.59 146.62 177.83 157.00 179.00
C 153.20 193.35 133.39 200.74 133.00 217.00
C 153.23 217.90 172.28 213.82 191.00 209.00
C 189.42 197.39 178.87 188.44 180.00 176.00
C 184.84 178.31 188.63 179.15 193.00 182.00
C 192.24 184.47 190.35 185.12 192.00 188.00
C 198.06 176.34 181.17 164.66 175.25 153.75 C 169.34 142.83 163.39 128.35 155.00 119.00
C 151.52 115.13 145.67 116.17 143.70 110.30 C 141.72 104.43 144.54 98.55 146.00 93.00
C 130.77 91.53 120.70 83.34 107.22 76.78 C 93.74 70.22 76.88 69.98 62.00 68.00
C 67.54 75.68 54.47 88.39 47.07 88.07 C 39.68 87.76 27.05 98.61 20.00 90.00
M 120.00 98.00 
C 111.40 100.87 102.47 93.96 94.00 92.00
C 102.15 90.67 111.16 97.41 120.00 98.00
M 166.00 147.00 
C 163.81 145.96 162.88 143.33 163.00 141.00
C 165.19 142.04 166.12 144.67 166.00 147.00
M 162.00 158.00 
C 156.71 156.90 161.89 151.60 162.00 158.00
M 172.00 161.00 
C 169.53 161.09 167.46 158.42 168.00 156.00
C 170.17 156.93 171.11 159.05 172.00 161.00
M 180.00 165.00 
C 183.56 169.67 176.71 168.47 180.00 165.00
M 168.00 173.00 
C 165.83 172.07 164.89 169.95 164.00 168.00
C 166.65 167.76 167.73 170.92 168.00 173.00
M 177.00 176.00 
C 171.69 173.25 177.34 169.94 177.00 176.00
M 174.00 186.00 
C 168.71 184.72 173.16 179.77 174.00 186.00
M 183.00 200.00 
C 178.26 199.63 181.22 195.21 183.00 200.00 Z"/>
</g>
<g fill="#341C0B" fill-opacity="1.00" stroke="None">
<path d="
M 120.00 98.00 
C 111.16 97.41 102.15 90.67 94.00 92.00
C 102.47 93.96 111.40 100.87 120.00 98.00 Z"/>
</g>
<g fill="#655D59" fill-opacity="1.00" stroke="None">
<path d="
M 157.00 92.00 
C 155.23 91.79 152.47 91.05 150.00 91.00
C 151.67 91.16 154.63 91.90 157.00 92.00 Z"/>
</g>
<g fill="#826F65" fill-opacity="1.00" stroke="None">
<path d="
M 155.00 119.00 
C 155.31 112.94 170.78 110.21 166.97 101.03 C 163.17 91.84 154.67 93.84 146.00 93.00
C 144.54 98.55 141.72 104.43 143.70 110.30 C 145.67 116.17 151.52 115.13 155.00 119.00
M 161.00 102.00 
C 156.17 101.35 150.01 103.31 146.00 101.00
C 149.61 99.27 159.49 96.26 161.00 102.00 Z"/>
</g>
<g fill="#413623" fill-opacity="1.00" stroke="None">
<path d="
M 15.00 101.00 
C 15.04 103.49 15.27 107.44 15.00 110.00
C 15.00 111.65 14.86 113.36 15.00 115.00
C 15.28 115.25 16.94 114.84 17.00 115.00
C 16.63 108.25 16.27 100.32 18.00 94.00
C 18.00 94.00 17.19 93.76 17.00 94.00
C 15.67 95.71 15.19 98.63 15.00 101.00 Z"/>
</g>
<g fill="#1E0C06" fill-opacity="1.00" stroke="None">
<path d="
M 161.00 102.00 
C 159.49 96.26 149.61 99.27 146.00 101.00
C 150.01 103.31 156.17 101.35 161.00 102.00 Z"/>
</g>
<g fill="#160E02" fill-opacity="1.00" stroke="None">
<path d="
M 15.00 110.00 
C 15.27 107.44 15.04 103.49 15.00 101.00
C 14.77 103.96 15.00 107.03 15.00 110.00 Z"/>
</g>
<g fill="#808080" fill-opacity="1.00" stroke="None">
<path d="
M 185.00 114.00 
C 183.74 112.53 182.13 109.57 180.00 109.00
C 180.79 109.30 184.16 113.16 185.00 114.00 Z"/>
</g>
<g fill="#492A16" fill-opacity="1.00" stroke="None">
<path d="
M 166.00 147.00 
C 166.12 144.67 165.19 142.04 163.00 141.00
C 162.88 143.33 163.81 145.96 166.00 147.00 Z"/>
</g>
<g fill="#3F1F0D" fill-opacity="1.00" stroke="None">
<path d="
M 162.00 158.00 
C 161.89 151.60 156.71 156.90 162.00 158.00 Z"/>
</g>
<g fill="#472A16" fill-opacity="1.00" stroke="None">
<path d="
M 172.00 161.00 
C 171.11 159.05 170.17 156.93 168.00 156.00
C 167.46 158.42 169.53 161.09 172.00 161.00 Z"/>
</g>
<g fill="#7A7A7A" fill-opacity="1.00" stroke="None">
<path d="
M 199.00 164.00 
C 199.00 161.42 198.64 158.55 199.00 156.00
C 198.20 158.95 198.73 161.17 199.00 164.00 Z"/>
</g>
<g fill="#371D0B" fill-opacity="1.00" stroke="None">
<path d="
M 180.00 165.00 
C 176.71 168.47 183.56 169.67 180.00 165.00 Z"/>
</g>
<g fill="#4F3113" fill-opacity="1.00" stroke="None">
<path d="
M 168.00 173.00 
C 167.73 170.92 166.65 167.76 164.00 168.00
C 164.89 169.95 165.83 172.07 168.00 173.00 Z"/>
</g>
<g fill="#432612" fill-opacity="1.00" stroke="None">
<path d="
M 177.00 176.00 
C 177.34 169.94 171.69 173.25 177.00 176.00 Z"/>
</g>
<g fill="#0F1016" fill-opacity="1.00" stroke="None">
<path d="
M 217.00 196.00 
C 222.20 191.86 217.63 180.98 211.00 181.00
C 212.25 186.34 218.01 190.30 217.00 196.00 Z"/>
</g>
<g fill="#482B18" fill-opacity="1.00" stroke="None">
<path d="
M 174.00 186.00 
C 173.16 179.77 168.71 184.72 174.00 186.00 Z"/>
</g>
<g fill="#B8A189" fill-opacity="1.00" stroke="None">
<path d="
M 196.00 207.00 
C 208.97 204.46 214.92 187.49 199.00 184.00
C 195.87 191.10 197.51 199.47 196.00 207.00
M 203.00 193.00 
C 200.52 193.12 197.91 190.13 200.00 188.00
C 201.95 188.90 203.48 190.72 203.00 193.00 Z"/>
</g>
<g fill="#3B210F" fill-opacity="1.00" stroke="None">
<path d="
M 203.00 193.00 
C 203.48 190.72 201.95 188.90 200.00 188.00
C 197.91 190.13 200.52 193.12 203.00 193.00 Z"/>
</g>
<g fill="#999999" fill-opacity="1.00" stroke="None">
<path d="
M 41.00 190.00 
C 35.73 191.19 42.56 196.97 41.00 190.00 Z"/>
</g>
<g fill="#272B2C" fill-opacity="1.00" stroke="None">
<path d="
M 49.00 197.00 
C 46.40 200.17 52.33 201.70 49.00 197.00 Z"/>
</g>
<g fill="#3F1F09" fill-opacity="1.00" stroke="None">
<path d="
M 183.00 200.00 
C 181.22 195.21 178.26 199.63 183.00 200.00 Z"/>
</g>
<g fill="#838585" fill-opacity="1.00" stroke="None">
<path d="
M 58.00 210.00 
C 56.91 209.00 56.09 206.88 55.00 206.00
C 50.97 204.48 56.40 208.81 58.00 210.00 Z"/>
</g>
<g fill="#292A2A" fill-opacity="1.00" stroke="None">
<path d="
M 58.00 210.00 
C 62.36 213.23 67.10 215.67 72.00 218.00
C 67.33 215.06 61.05 208.28 55.00 206.00
C 56.09 206.88 56.91 209.00 58.00 210.00 Z"/>
</g>
<g fill="#4C4C4D" fill-opacity="1.00" stroke="None">
<path d="
M 84.00 222.00 
C 82.88 219.07 79.21 219.49 77.00 218.00
C 77.18 221.28 81.68 221.04 84.00 222.00 Z"/>
</g>
<g fill="#75716B" fill-opacity="1.00" stroke="None">
<path d="
M 138.00 220.00 
C 139.97 219.83 142.61 219.16 144.00 219.00
C 141.76 219.06 139.64 219.70 138.00 220.00 Z"/>
</g>
<g fill="#9FA09B" fill-opacity="1.00" stroke="None">
<path d="
M 182.00 223.00 
C 181.86 222.95 181.84 221.06 182.00 221.00
C 180.58 220.79 179.44 221.71 179.00 223.00
C 179.96 223.18 181.05 222.78 182.00 223.00 Z"/>
</g>
<g fill="#1D1D1D" fill-opacity="1.00" stroke="None">
<path d="
M 127.00 228.00 
C 123.04 227.01 117.66 224.58 114.00 227.00
C 118.27 226.95 123.40 230.08 127.00 228.00 Z"/>
</g>
<g fill="#7D7D7D" fill-opacity="1.00" stroke="None">
<path d="
M 149.00 228.00 
C 149.96 228.08 151.73 227.71 152.00 229.00
C 157.47 227.32 149.74 227.97 149.00 228.00 Z"/>
</g>
<g fill="#202020" fill-opacity="1.00" stroke="None">
<path d="
M 102.00 233.00 
C 103.28 232.97 105.49 233.59 106.00 232.00
C 97.62 232.04 88.59 227.37 81.00 229.00
C 88.04 229.76 94.79 233.17 102.00 233.00 Z"/>
</g>
<g fill="#212121" fill-opacity="1.00" stroke="None">
<path d="
M 149.00 234.00 
C 148.85 234.00 150.59 234.95 151.00 235.00
C 163.01 234.68 174.71 233.07 186.00 230.00
C 181.79 229.85 171.92 229.23 167.22 231.22 C 162.52 233.21 152.50 230.94 149.00 234.00 Z"/>
</g>
<g fill="#B5B5B5" fill-opacity="1.00" stroke="None">
<path d="
M 102.00 233.00 
C 102.03 233.00 109.81 234.85 106.00 232.00
C 105.49 233.59 103.28 232.97 102.00 233.00 Z"/>
</g>
<g fill="#525252" fill-opacity="1.00" stroke="None">
<path d="
M 117.00 236.00 
C 115.59 231.09 110.93 234.50 117.00 236.00 Z"/>
</g>
<g fill="#8B8B8B" fill-opacity="1.00" stroke="None">
<path d="
M 151.00 235.00 
C 150.59 234.95 148.85 234.00 149.00 234.00
C 144.53 233.96 149.81 235.00 151.00 235.00 Z"/>
</g>
<g fill="#737373" fill-opacity="1.00" stroke="None">
<path d="
M 132.00 248.00 
C 134.53 251.41 133.03 237.43 133.00 237.00
C 132.93 240.52 133.81 245.23 132.00 248.00 Z"/>
</g>
</svg>